SplineFontDB: 3.0
FontName: Manjari-Thin
FullName: Manjari Thin
FamilyName: Manjari
Weight: Thin
Copyright: Digitized data copyright (c) 2016, Santhosh Thottingal, Kavya Manohar,\nSwathanthra Malayalam Computing(http://smc.org.in) with reserved font name "Manjari".
Version: 1.0.0-alpha.20160501
ItalicAngle: 0
UnderlinePosition: -600
UnderlineWidth: 100
Ascent: 1434
Descent: 614
InvalidEm: 0
sfntRevision: 0x00060000
LayerCount: 2
Layer: 0 0 "Back" 1
Layer: 1 0 "Fore" 0
XUID: [1021 348 -393509193 14261458]
FSType: 0
OS2Version: 1
OS2_WeightWidthSlopeOnly: 0
OS2_UseTypoMetrics: 1
CreationTime: 1201144287
ModificationTime: 1462441392
PfmFamily: 17
TTFWeight: 100
TTFWidth: 5
LineGap: 0
VLineGap: 0
Panose: 2 0 4 3 0 0 0 0 0 0
OS2TypoAscent: 1400
OS2TypoAOffset: 0
OS2TypoDescent: -800
OS2TypoDOffset: 0
OS2TypoLinegap: 0
OS2WinAscent: 1400
OS2WinAOffset: 0
OS2WinDescent: 800
OS2WinDOffset: 0
HheadAscent: 1400
HheadAOffset: 0
HheadDescent: -800
HheadDOffset: 0
OS2SubXSize: 1331
OS2SubYSize: 1433
OS2SubXOff: 274
OS2SubYOff: 286
OS2SupXSize: 1331
OS2SupYSize: 1433
OS2SupXOff: -944
OS2SupYOff: 983
OS2StrikeYSize: 102
OS2StrikeYPos: 530
OS2Vendor: 'SMC '
OS2CodePages: 00000001.00000000
OS2UnicodeRanges: 80800003.00002000.00000000.00000000
MarkAttachClasses: 1
DEI: 91125
ShortTable: maxp 16
  0
  0
  0
  0
  0
  0
  0
  2
  1
  2
  22
  0
  256
  0
  0
  0
EndShort
TtTable: prep
PUSHW_1
 511
SCANCTRL
PUSHB_1
 1
SCANTYPE
SVTCA[y-axis]
MPPEM
PUSHB_1
 8
LT
IF
PUSHB_2
 1
 1
INSTCTRL
EIF
PUSHB_2
 70
 6
CALL
IF
POP
PUSHB_1
 16
EIF
MPPEM
PUSHB_1
 20
GT
IF
POP
PUSHB_1
 128
EIF
SCVTCI
PUSHB_1
 6
CALL
NOT
IF
EIF
PUSHB_1
 20
CALL
EndTTInstrs
TtTable: fpgm
PUSHB_1
 0
FDEF
PUSHB_1
 0
SZP0
MPPEM
PUSHB_1
 42
LT
IF
PUSHB_1
 74
SROUND
EIF
PUSHB_1
 0
SWAP
MIAP[rnd]
RTG
PUSHB_1
 6
CALL
IF
RTDG
EIF
MPPEM
PUSHB_1
 42
LT
IF
RDTG
EIF
DUP
MDRP[rp0,rnd,grey]
PUSHB_1
 1
SZP0
MDAP[no-rnd]
RTG
ENDF
PUSHB_1
 1
FDEF
DUP
MDRP[rp0,min,white]
PUSHB_1
 12
CALL
ENDF
PUSHB_1
 2
FDEF
MPPEM
GT
IF
RCVT
SWAP
EIF
POP

StartChar: .notdef
Encoding: 65536 -1 0
Width: 692
GlyphClass: 2
Flags: HW
LayerCount: 2
Fore
SplineSet
45 1 m 1
 45 1119 l 1
 606 1119 l 1
 606 1 l 1
 45 1 l 1
102 55 m 1
 552 55 l 1
 552 1063 l 1
 102 1063 l 1
 102 55 l 1
EndSplineSet
EndChar

StartChar: exclam
Encoding: 33 33 4
Width: 281
GlyphClass: 2
Flags: HW
LayerCount: 2
Fore
SplineSet
201 49 m 0
 201 16 174 -12 141 -12 c 0
 108 -12 80 16 80 49 c 0
 80 82 108 109 141 109 c 0
 174 109 201 82 201 49 c 0
133 1134 m 0
 154 1134 188 1120 188 1099 c 2
 173 267 l 2
 173 246 154 230 133 230 c 0
 112 230 95 246 95 267 c 2
 95 268 l 1
 80 1099 l 2
 80 1120 112 1134 133 1134 c 0
EndSplineSet
EndChar

StartChar: numbersign
Encoding: 35 35 6
Width: 1262
GlyphClass: 2
Flags: HW
LayerCount: 2
Fore
SplineSet
621 1374 m 5
 641 1373 657 1357 657 1337 c 4
 657 1334 657 1329 656 1326 c 6
 580 1036 l 5
 954 1036 l 5
 1035 1346 l 6
 1039 1362 1056 1374 1072 1374 c 6
 1073 1374 l 5
 1093 1373 1109 1357 1109 1337 c 4
 1109 1334 1109 1329 1108 1326 c 6
 1032 1036 l 5
 1255 1036 l 6
 1276 1036 1293 1020 1293 999 c 4
 1293 978 1276 961 1255 961 c 6
 1012 961 l 5
 883 470 l 5
 1110 470 l 6
 1131 470 1147 454 1147 433 c 4
 1147 412 1131 395 1110 395 c 6
 863 395 l 5
 763 15 l 6
 759 -1 742 -14 726 -14 c 4
 705 -14 689 3 689 24 c 4
 689 27 689 31 690 34 c 6
 785 395 l 5
 411 395 l 5
 311 15 l 6
 307 -1 290 -14 274 -14 c 4
 253 -14 237 3 237 24 c 4
 237 27 237 31 238 34 c 6
 333 395 l 5
 108 395 l 6
 87 395 70 412 70 433 c 4
 70 454 87 470 108 470 c 6
 353 470 l 5
 482 961 l 5
 253 961 l 6
 232 961 216 978 216 999 c 4
 216 1020 232 1036 253 1036 c 6
 502 1036 l 5
 583 1346 l 6
 587 1362 604 1374 620 1374 c 6
 621 1374 l 5
560 961 m 5
 431 470 l 5
 805 470 l 5
 934 961 l 5
 560 961 l 5
EndSplineSet
EndChar

StartChar: dollar
Encoding: 36 36 7
Width: 1370
GlyphClass: 2
Flags: HW
LayerCount: 2
Fore
SplineSet
704 1472 m 0
 725 1472 742 1455 742 1434 c 2
 742 1272 l 1
 967 1262 1159 1171 1249 1033 c 0
 1252 1029 1253 1021 1253 1017 c 0
 1253 998 1236 983 1214 983 c 0
 1200 983 1184 991 1178 1001 c 0
 1101 1121 940 1195 743 1205 c 1
 744 704 l 1
 1028 685 1309 654 1309 421 c 0
 1309 188 1025 86 746 77 c 1
 746 29 746 -19 746 -67 c 0
 746 -88 730 -104 709 -104 c 0
 688 -104 671 -88 671 -67 c 0
 671 -19 671 29 671 77 c 1
 399 84 169 174 64 342 c 0
 62 346 60 354 60 358 c 0
 60 377 78 391 100 391 c 0
 114 391 129 383 135 373 c 0
 227 225 425 149 670 143 c 1
 669 654 l 1
 378 674 83 698 83 935 c 0
 83 998 109 1045 143 1084 c 0
 244 1201 453 1266 667 1272 c 1
 667 1434 l 2
 667 1454 683 1472 704 1472 c 0
744 649 m 1
 745 143 l 1
 979 151 1229 231 1229 421 c 0
 1229 602 998 631 744 649 c 1
669 709 m 1
 668 1206 l 1
 446 1199 163 1120 163 935 c 0
 163 750 407 727 669 709 c 1
EndSplineSet
EndChar

StartChar: percent
Encoding: 37 37 8
Width: 903
GlyphClass: 2
Flags: HW
LayerCount: 2
Fore
SplineSet
709 1372 m 2
 711 1372 l 2
 732 1372 748 1356 748 1335 c 0
 748 1331 747 1324 745 1320 c 2
 220 5 l 2
 215 -8 199 -19 185 -19 c 0
 164 -19 148 -3 148 18 c 0
 148 22 149 28 151 32 c 2
 676 1348 l 2
 681 1361 695 1372 709 1372 c 2
598 474 m 0
 711 474 803 381 803 268 c 0
 803 155 711 63 598 63 c 0
 485 63 392 155 392 268 c 0
 392 381 485 474 598 474 c 0
598 399 m 0
 525 399 467 341 467 268 c 0
 467 195 525 138 598 138 c 0
 671 138 728 195 728 268 c 0
 728 341 671 399 598 399 c 0
306 1295 m 0
 419 1295 511 1202 511 1089 c 0
 511 976 419 884 306 884 c 0
 193 884 100 976 100 1089 c 0
 100 1202 193 1295 306 1295 c 0
306 1220 m 0
 233 1220 175 1162 175 1089 c 0
 175 1016 233 959 306 959 c 0
 379 959 436 1016 436 1089 c 0
 436 1162 379 1220 306 1220 c 0
EndSplineSet
EndChar

StartChar: ampersand
Encoding: 38 38 9
Width: 1196
GlyphClass: 2
Flags: HW
LayerCount: 2
Fore
SplineSet
479 -11 m 0
 285 -11 100 135 100 352 c 0
 100 576 295 680 443 758 c 1
 374 847 265 943 265 1095 c 0
 265 1247 392 1374 545 1374 c 0
 699 1374 824 1249 824 1096 c 0
 824 917 671 804 549 736 c 1
 653 602 757 468 861 334 c 1
 901 417 928 522 932 634 c 0
 932 653 948 668 967 668 c 0
 986 668 1002 652 1002 633 c 0
 1002 495 961 370 908 272 c 1
 968 194 1029 116 1089 38 c 0
 1093 33 1097 23 1097 16 c 0
 1097 -3 1081 -19 1062 -19 c 0
 1052 -19 1040 -12 1034 -4 c 0
 979 67 924 138 869 209 c 1
 787 92 643 -11 479 -11 c 0
754 1096 m 0
 754 1209 660 1304 546 1304 c 0
 432 1304 335 1212 335 1093 c 0
 335 970 444 873 506 792 c 1
 613 851 754 945 754 1096 c 0
170 349 m 0
 170 176 322 59 479 59 c 0
 625 59 754 159 824 267 c 1
 712 412 599 557 487 702 c 1
 352 630 170 545 170 349 c 0
EndSplineSet
EndChar

StartChar: quotesingle
Encoding: 39 39 10
Width: 304
GlyphClass: 2
Flags: HW
LayerCount: 2
Fore
SplineSet
148 1434 m 0
 190 1434 205 1400 204 1358 c 1
 182 1040 l 2
 179 998 175 964 147 964 c 0
 119 964 111 999 110 1041 c 2
 100 1358 l 1
 100 1399 107 1434 148 1434 c 0
EndSplineSet
EndChar

StartChar: parenleft
Encoding: 40 40 11
Width: 653
GlyphClass: 2
Flags: HW
LayerCount: 2
Fore
SplineSet
510 1211 m 4
 531 1211 547 1194 547 1173 c 4
 547 1163 540 1150 532 1144 c 4
 311 973 175 695 175 416 c 0
 175 134 314 -146 538 -316 c 4
 546 -322 553 -336 553 -346 c 4
 553 -367 537 -384 516 -384 c 4
 509 -384 499 -380 493 -376 c 4
 250 -191 100 110 100 416 c 0
 100 719 246 1017 486 1203 c 4
 492 1207 503 1211 510 1211 c 4
EndSplineSet
EndChar

StartChar: asterisk
Encoding: 42 42 13
Width: 955
GlyphClass: 2
Flags: HW
LayerCount: 2
Fore
SplineSet
448 1399 m 6
 448 1418 464 1434 483 1434 c 4
 502 1434 518 1418 518 1399 c 6
 523 1053 l 5
 905 1297 l 6
 910 1300 918 1303 924 1303 c 4
 943 1303 959 1287 959 1268 c 4
 959 1257 952 1244 943 1238 c 6
 555 990 l 5
 943 754 l 6
 952 748 960 735 960 724 c 4
 960 705 944 689 925 689 c 4
 919 689 911 691 906 694 c 6
 525 927 l 5
 531 509 l 5
 531 508 l 6
 531 489 515 473 496 473 c 4
 477 473 461 489 461 508 c 6
 455 926 l 5
 54 670 l 6
 49 667 41 665 35 665 c 4
 16 665 0 681 -0 700 c 4
 0 711 8 723 17 729 c 6
 423 989 l 5
 19 1236 l 6
 10 1242 1 1255 1 1266 c 4
 1 1285 16 1301 36 1301 c 4
 42 1301 50 1299 55 1296 c 6
 453 1053 l 5
 448 1398 l 5
 448 1399 l 6
EndSplineSet
EndChar

StartChar: plus
Encoding: 43 43 14
Width: 908
GlyphClass: 2
Flags: HW
LayerCount: 2
Fore
SplineSet
456 893 m 0
 477 893 494 876 494 855 c 2
 494 466 l 1
 821 466 l 2
 842 466 859 450 859 429 c 0
 859 408 842 391 821 391 c 2
 494 391 l 1
 494 28 l 2
 494 7 478 -10 457 -10 c 0
 436 -10 419 7 419 28 c 2
 419 391 l 1
 88 391 l 2
 67 391 50 408 50 429 c 0
 50 450 67 466 88 466 c 2
 419 466 l 1
 419 855 l 2
 419 876 435 893 456 893 c 0
EndSplineSet
EndChar

StartChar: comma
Encoding: 44 44 15
Width: 474
GlyphClass: 2
Flags: HW
LayerCount: 2
Fore
SplineSet
261 240 m 0
 336 240 375 174 375 88 c 4
 375 -113 289 -249 158 -334 c 0
 151 -339 145 -341 138 -341 c 0
 117 -341 100 -321 100 -301 c 0
 100 -290 105 -279 117 -271 c 0
 211 -210 279 -114 295 14 c 1
 284 10 273 8 261 8 c 0
 200 8 150 60 150 124 c 0
 150 188 200 240 261 240 c 0
EndSplineSet
EndChar

StartChar: hyphen
Encoding: 45 45 16
Width: 601
GlyphClass: 2
Flags: HW
LayerCount: 2
Fore
SplineSet
138 471 m 6
 464 471 l 6
 485 471 501 455 501 434 c 4
 501 413 485 396 464 396 c 6
 138 396 l 6
 117 396 100 413 100 434 c 4
 100 455 117 471 138 471 c 6
138 471 m 6
 464 471 l 6
 485 471 501 455 501 434 c 4
 501 413 485 396 464 396 c 6
 138 396 l 6
 117 396 100 413 100 434 c 4
 100 455 117 471 138 471 c 6
138 471 m 6
 464 471 l 6
 485 471 501 455 501 434 c 4
 501 413 485 396 464 396 c 6
 138 396 l 6
 117 396 100 413 100 434 c 4
 100 455 117 471 138 471 c 6
EndSplineSet
EndChar

StartChar: period
Encoding: 46 46 17
Width: 395
GlyphClass: 2
Flags: HW
LayerCount: 2
Fore
SplineSet
100 98 m 4
 100 152 144 196 198 196 c 4
 252 196 296 152 296 98 c 4
 296 44 252 0 198 0 c 4
 144 0 100 44 100 98 c 4
EndSplineSet
EndChar

StartChar: slash
Encoding: 47 47 18
Width: 617
GlyphClass: 2
Flags: HW
LayerCount: 2
Fore
SplineSet
535 1350 m 6
 540 1363 555 1374 570 1374 c 4
 591 1374 608 1358 608 1337 c 4
 608 1333 607 1326 605 1322 c 6
 82 13 l 6
 77 0 61 -11 47 -11 c 4
 26 -11 10 5 10 26 c 4
 10 30 11 36 13 40 c 6
 535 1350 l 6
EndSplineSet
EndChar

StartChar: zero
Encoding: 48 48 19
Width: 1237
GlyphClass: 2
Flags: HW
LayerCount: 2
Fore
SplineSet
627 1379 m 0
 957 1379 1112 998 1112 682 c 0
 1112 372 947 -17 620 -17 c 0
 296 -17 125 364 125 671 c 0
 125 983 296 1379 627 1379 c 0
1037 681 m 0
 1037 951 911 1304 630 1304 c 0
 347 1304 200 941 200 671 c 0
 200 408 344 58 620 58 c 0
 899 58 1037 415 1037 681 c 0
EndSplineSet
EndChar

StartChar: one
Encoding: 49 49 20
Width: 779
GlyphClass: 2
Flags: HW
LayerCount: 2
Fore
SplineSet
403 1374 m 2
 404 1374 l 2
 425 1374 442 1358 442 1337 c 2
 439 75 l 1
 617 75 l 2
 638 75 655 58 655 37 c 0
 655 16 638 0 617 0 c 2
 163 0 l 2
 142 0 125 16 125 37 c 0
 125 58 142 75 163 75 c 2
 364 75 l 1
 367 1213 l 1
 324 1160 262 1102 181 1086 c 0
 179 1086 175 1085 173 1085 c 0
 152 1085 136 1101 136 1122 c 0
 136 1139 150 1156 167 1159 c 0
 248 1174 342 1301 371 1354 c 0
 377 1365 391 1374 403 1374 c 2
EndSplineSet
EndChar

StartChar: two
Encoding: 50 50 21
Width: 1151
GlyphClass: 2
Flags: HW
LayerCount: 2
Fore
SplineSet
162 -3 m 2
 141 -3 125 14 125 35 c 0
 125 45 132 58 140 64 c 0
 324.551293873 203.721020058 889 661.969110066 889 925 c 0
 889 1134 747 1302 542 1302 c 0
 377 1302 258 1189 224 1060 c 0
 220 1044 204 1032 188 1032 c 0
 167 1032 150 1048 150 1069 c 0
 150 1072 151 1077 152 1080 c 0
 195 1238 339 1377 541 1377 c 0
 793 1377 965 1176 965 923 c 0
 965 614.704313429 447.562207051 254.314599629 272 72 c 1
 989 72 l 2
 1010 72 1027 56 1027 35 c 0
 1027 14 1010 -3 989 -3 c 2
 162 -3 l 2
EndSplineSet
EndChar

StartChar: three
Encoding: 51 51 22
Width: 1054
GlyphClass: 2
Flags: HW
LayerCount: 2
Fore
SplineSet
534 735 m 1
 541 735 l 2
 693 735 820 861 820 1013 c 0
 820 1169 688 1298 529 1298 c 0
 392 1298 291 1208 253 1104 c 0
 248 1090 232 1079 217 1079 c 0
 196 1079 180 1096 180 1117 c 0
 180 1121 181 1126 182 1130 c 0
 230 1260 358 1373 530 1373 c 0
 730 1373 895 1209 895 1013 c 0
 895 876 814 759 710 703 c 1
 833 660 929 554 929 393 c 0
 929 167 733 -10 505 -10 c 0
 353 -10 216 65 132 182 c 0
 128 187 125 197 125 204 c 0
 125 225 142 241 163 241 c 0
 174 241 187 234 193 225 c 0
 262 128 379 65 505 65 c 0
 692 65 854 209 854 393 c 0
 854 583 718 643 536 655 c 5
 513 657 l 2
 494 658 477 674 477 694 c 0
 477 712 492 728 510 731 c 2
 534 735 l 1
EndSplineSet
EndChar

StartChar: four
Encoding: 52 52 23
Width: 1336
GlyphClass: 2
Flags: HW
LayerCount: 2
Fore
SplineSet
857 -11 m 0
 836 -11 820 5 820 26 c 2
 820 27 l 1
 819 352 l 1
 162 354 l 2
 141 354 125 371 125 392 c 0
 125 399 128 409 132 414 c 2
 823 1358 l 2
 829 1366 843 1373 853 1373 c 0
 874 1373 891 1357 891 1336 c 2
 894 427 l 1
 1173 426 l 1
 1174 426 l 2
 1195 426 1211 409 1211 388 c 0
 1211 367 1195 351 1174 351 c 2
 1173 351 l 1
 894 352 l 1
 895 27 l 1
 895 26 l 2
 895 5 878 -11 857 -11 c 0
819 427 m 1
 816 1223 l 1
 237 429 l 1
 819 427 l 1
EndSplineSet
EndChar

StartChar: five
Encoding: 53 53 24
Width: 1140
GlyphClass: 2
Flags: HW
LayerCount: 2
Fore
SplineSet
560 835 m 0
 438 835 316 771 247 670 c 0
 241 661 227 653 216 653 c 0
 195 653 178 670 178 691 c 0
 178 693 179 695 179 697 c 2
 285 1332 l 2
 288 1349 304 1363 322 1363 c 2
 958 1363 l 2
 979 1363 996 1347 996 1326 c 0
 996 1305 979 1288 958 1288 c 2
 353 1288 l 1
 273 807 l 1
 354 872 456 910 560 910 c 0
 852 910 1001 679 1001 448 c 0
 1001 218 853 -12 549 -12 c 0
 348 -12 198 109 129 251 c 0
 127 255 125 263 125 268 c 0
 125 289 142 306 163 306 c 0
 176 306 190 296 196 284 c 0
 254 165 379 63 548 63 c 0
 801 63 926 257 926 451 c 0
 926 643 803 835 560 835 c 0
EndSplineSet
EndChar

StartChar: six
Encoding: 54 54 25
Width: 1210
GlyphClass: 2
Flags: HW
LayerCount: 2
Fore
SplineSet
643 868 m 0
 886 868 1085 671 1085 426 c 0
 1085 187 891 -10 656 -10 c 4
 295 -10 125 352 125 696 c 0
 125 1032 301 1375 652 1375 c 0
 825 1375 956 1277 1024 1162 c 0
 1027 1157 1029 1149 1029 1143 c 0
 1029 1122 1013 1106 992 1106 c 0
 980 1106 965 1115 959 1125 c 0
 903 1220 795 1300 652 1300 c 0
 347 1300 200 992 200 696 c 0
 200 636 205 584 214 529 c 1
 260 725 440 868 643 868 c 0
643 793 m 0
 451 793 277 636 277 424 c 0
 277 215 454 65 655 65 c 0
 850 65 1010 229 1010 427 c 0
 1010 630 844 793 643 793 c 0
EndSplineSet
EndChar

StartChar: seven
Encoding: 55 55 26
Width: 1241
GlyphClass: 2
Flags: HW
LayerCount: 2
Fore
SplineSet
547 -14 m 5
 527 -13 511 4 511 24 c 4
 511 27 512 32 513 35 c 4
 654 476 824 892 1019 1286 c 5
 163 1286 l 6
 142 1286 125 1302 125 1323 c 4
 125 1344 142 1361 163 1361 c 6
 1079 1361 l 6
 1100 1361 1117 1344 1117 1323 c 4
 1117 1318 1115 1310 1113 1306 c 4
 909 897 732 470 584 13 c 4
 580 -2 563 -14 548 -14 c 6
 547 -14 l 5
EndSplineSet
EndChar

StartChar: eight
Encoding: 56 56 27
Width: 1087
GlyphClass: 2
Flags: HW
LayerCount: 2
Fore
SplineSet
172 1018 m 0
 172 1215 345 1372 544 1372 c 0
 742 1372 917 1217 917 1018 c 0
 917 879 827 759 717 705 c 1
 848 652 962 521 962 362 c 0
 962 145 760 -11 544 -11 c 0
 327 -11 125 145 125 363 c 0
 125 521 238 653 370 706 c 1
 261 761 172 880 172 1018 c 0
842 1018 m 0
 842 1175 702 1297 544 1297 c 0
 385 1297 247 1174 247 1018 c 0
 247 862 388 740 545 740 c 0
 702 740 842 862 842 1018 c 0
887 362 m 0
 887 538 720 663 542 663 c 0
 364 663 200 537 200 363 c 0
 200 188 367 64 544 64 c 0
 720 64 887 188 887 362 c 0
EndSplineSet
EndChar

StartChar: semicolon
Encoding: 59 59 30
Width: 425
GlyphClass: 2
Flags: HW
LayerCount: 2
Fore
SplineSet
113 647 m 0
 113 701 157 745 211 745 c 0
 265 745 309 701 309 647 c 0
 309 593 265 549 211 549 c 0
 157 549 113 593 113 647 c 0
211 241 m 0
 272 241 321 189 324 119 c 0
 324 109 325 99 325 89 c 0
 325 -112 239 -248 108 -333 c 0
 101 -338 95 -340 88 -340 c 0
 67 -340 50 -320 50 -300 c 0
 50 -289 55 -278 67 -270 c 0
 161 -209 229 -113 245 15 c 1
 234 11 223 9 211 9 c 0
 150 9 100 61 100 125 c 0
 100 189 150 241 211 241 c 0
EndSplineSet
EndChar

StartChar: less
Encoding: 60 60 31
Width: 995
GlyphClass: 2
Flags: HW
LayerCount: 2
Fore
SplineSet
864 902 m 2
 868 904 876 906 881 906 c 0
 900 906 916 890 916 871 c 0
 916 859 908 845 897 840 c 2
 189 464 l 1
 897 73 l 2
 907 68 916 54 916 42 c 0
 916 23 899 7 880 7 c 0
 875 7 867 9 863 12 c 2
 98 434 l 2
 88 440 80 454 80 465 c 0
 80 477 89 491 99 496 c 2
 864 902 l 2
EndSplineSet
EndChar

StartChar: equal
Encoding: 61 61 32
Width: 1002
GlyphClass: 2
Flags: HW
LayerCount: 2
Fore
SplineSet
865 407 m 2
 886 407 902 391 902 370 c 0
 902 349 886 332 865 332 c 2
 138 332 l 2
 117 332 100 349 100 370 c 0
 100 391 117 407 138 407 c 2
 865 407 l 2
865 407 m 2
 886 407 902 391 902 370 c 0
 902 349 886 332 865 332 c 2
 138 332 l 2
 117 332 100 349 100 370 c 0
 100 391 117 407 138 407 c 2
 865 407 l 2
865 407 m 2
 886 407 902 391 902 370 c 0
 902 349 886 332 865 332 c 2
 138 332 l 2
 117 332 100 349 100 370 c 0
 100 391 117 407 138 407 c 2
 865 407 l 2
865 658 m 2
 886 658 902 641 902 620 c 0
 902 599 886 583 865 583 c 2
 138 583 l 2
 117 583 100 599 100 620 c 0
 100 641 117 658 138 658 c 2
 865 658 l 2
EndSplineSet
EndChar

StartChar: question
Encoding: 63 63 34
Width: 994
GlyphClass: 2
Flags: HW
LayerCount: 2
Fore
SplineSet
100 899 m 0
 100 1113 273 1251 479 1251 c 0
 673 1251 826 1149 877 999 c 0
 889 964 895 927 895 890 c 0
 895 689 750 580 644 486 c 0
 577 427 510 367 510 255 c 0
 510 234 517 213 517 192 c 0
 517 170 499 152 477 152 c 0
 433 152 428 213 428 256 c 0
 428 394 516 482 590 547 c 0
 658 607 726 664 768 733 c 0
 796 780 814 826 814 890 c 0
 814 1067 656 1170 480 1170 c 0
 317 1170 181 1067 181 899 c 0
 181 890 183 881 183 872 c 0
 183 850 164 831 142 831 c 0
 107 831 100 862 100 899 c 0
544 36 m 4
 544 3 517 -25 484 -25 c 4
 451 -25 423 3 423 36 c 4
 423 69 451 96 484 96 c 4
 517 96 544 69 544 36 c 4
EndSplineSet
EndChar

StartChar: at
Encoding: 64 64 35
Width: 1827
GlyphClass: 2
Flags: HW
LayerCount: 2
Fore
SplineSet
125 399 m 0
 125 832 479 1181 907 1181 c 0
 1344 1181 1703 827 1703 397 c 0
 1703 212 1602 31 1413 31 c 0
 1308 31 1216 102 1185 195 c 1
 1121 105 1004 38 882 38 c 0
 675 38 511 211 511 417 c 0
 511 622 679 795 883 795 c 0
 999 795 1111 735 1176 650 c 1
 1175 758 l 1
 1175 759 l 2
 1175 780 1192 797 1213 797 c 0
 1234 797 1250 780 1250 759 c 0
 1251 595 1251 432 1251 273 c 0
 1251 179 1324 106 1413 106 c 0
 1558 106 1628 254 1628 398 c 0
 1628 787 1299 1106 906 1106 c 0
 519 1106 200 791 200 399 c 0
 200 24 500 -297 902 -297 c 0
 984 -297 1066 -283 1143 -254 c 0
 1147 -253 1153 -251 1157 -251 c 0
 1178 -251 1194 -268 1194 -289 c 0
 1194 -304 1183 -319 1169 -324 c 0
 1083 -356 992 -372 901 -372 c 0
 457 -372 125 -17 125 399 c 0
883 720 m 0
 720 720 586 580 586 416 c 0
 586 252 718 113 882 113 c 0
 1074 113 1170 264 1170 415 c 0
 1170 567 1073 720 883 720 c 0
EndSplineSet
EndChar

StartChar: braceleft
Encoding: 123 123 36
Width: 545
GlyphClass: 2
Flags: HW
LayerCount: 2
Fore
SplineSet
100 411 m 4
 96 411 92 411 88 411 c 4
 67 411 50 427 50 448 c 4
 50 467 65 484 85 486 c 4
 173 492 225 561 225 662 c 5
 231 1129 l 6
 233 1260 289 1372 421 1372 c 4
 456 1372 496 1365 496 1330 c 4
 496 1309 479 1292 458 1292 c 4
 446 1292 435 1297 422 1297 c 4
 333 1297 307 1220 306 1128 c 6
 300 661 l 6
 299 565 267 497 209 454 c 5
 276 411 306 338 306 235 c 6
 306 224 l 5
 304 -191 l 5
 304 -198 l 6
 304 -283 322 -344 377 -373 c 4
 394 -382 413 -387 432 -387 c 4
 441 -387 449 -384 458 -384 c 4
 479 -384 495 -401 495 -422 c 4
 495 -454 465 -462 432 -462 c 4
 336 -462 272 -395 246 -326 c 4
 230 -283 229 -240 229 -201 c 6
 229 -191 l 5
 231 225 l 5
 231 232 l 6
 231 332 195 411 100 411 c 4
EndSplineSet
EndChar

StartChar: bar
Encoding: 124 124 37
Width: 350
GlyphClass: 2
Flags: HW
LayerCount: 2
Fore
SplineSet
225 -295 m 2
 225 -319 199 -345 186 -345 c 0
 138 -345 125 -330 125 -294 c 2
 125 1211 l 2
 125 1239 147 1261 174 1261 c 2
 175 1261 l 2
 202 1261 225 1238 225 1210 c 2
 225 -295 l 2
EndSplineSet
EndChar

StartChar: asciitilde
Encoding: 126 126 39
Width: 811
GlyphClass: 2
Flags: HW
LayerCount: 2
Fore
SplineSet
736 1399 m 0
 736 1418 751 1434 771 1434 c 0
 805 1434 811 1393 811 1359 c 0
 811 1244 715 1150 602 1150 c 0
 462 1150 396 1265 311 1322 c 0
 281 1342 252 1358 212 1358 c 0
 134 1358 70 1294 70 1216 c 0
 70 1207 72 1198 72 1189 c 0
 72 1170 56 1154 37 1154 c 0
 6 1154 0 1185 0 1217 c 0
 0 1332 96 1428 211 1428 c 0
 352 1428 418 1311 504 1254 c 0
 534 1234 562 1220 601 1220 c 0
 678 1220 741 1281 741 1360 c 0
 741 1373 736 1386 736 1399 c 0
EndSplineSet
EndChar

StartChar: anuswara
Encoding: 3330 3330 41
Width: 798
GlyphClass: 2
Flags: HW
LayerCount: 2
Fore
SplineSet
399 587 m 4
 564 587 698 453 698 288 c 4
 698 123 564 -11 399 -11 c 4
 234 -11 100 123 100 288 c 4
 100 453 234 587 399 587 c 4
399 512 m 4
 275 512 175 412 175 288 c 4
 175 164 275 64 399 64 c 4
 523 64 623 164 623 288 c 4
 623 412 523 512 399 512 c 4
EndSplineSet
EndChar

StartChar: ml_a
Encoding: 3333 3333 43
Width: 2791
GlyphClass: 2
Flags: HW
LayerCount: 2
Fore
SplineSet
544 455 m 0
 544 684 675 843 827 933 c 1
 782 945 737 947 693 947 c 0
 403 947 169 759 169 469 c 0
 169 268 300 112 450 49 c 0
 465 43 472 34 472 21 c 128
 472 0 459 -18 441 -18 c 128
 434 -18 428 -17 423 -15 c 0
 251 57 100 233 100 462 c 0
 100 796 371 1016 703 1016 c 0
 776 1016 847 1006 916 976 c 1
 986 1003 1056 1016 1127 1016 c 0
 1374 1016 1535 907 1607 719 c 1
 1667 889 1825 1014 2055 1014 c 0
 2388 1014 2691 786 2691 443 c 0
 2691 199 2545 -14 2295 -14 c 0
 2086 -14 1938 147 1938 347 c 0
 1938 553 2094 730 2299 730 c 0
 2417 730 2513 690 2586 608 c 1
 2511 797 2322 943 2065 943 c 0
 1770 943 1644 748 1644 440 c 2
 1644 25 l 2
 1644 7 1627 -10 1609 -10 c 128
 1591 -10 1574 5 1574 24 c 2
 1572 439 l 1
 1569 758 1443 946 1135 946 c 0
 1092 946 1048 940 1001 929 c 1
 1074 878 1171 775 1171 656 c 0
 1171 581 1143 536 1092 493 c 1
 1179 456 1242 387 1242 270 c 0
 1242 121 1107 -11 953 -11 c 0
 716 -11 544 207 544 455 c 0
992 443 m 0
 982 443 972 442 963 442 c 0
 941 442 923 448 923 474 c 0
 923 512 953 510 992 516 c 128
 1045 524 1101 587 1101 648 c 0
 1101 765 1001 854 914 899 c 1
 758 829 611 675 611 461 c 0
 611 252 740 59 950 59 c 0
 1069 59 1173 158 1173 276 c 0
 1173 377 1087 443 992 443 c 0
2608 366 m 0
 2608 534 2470 661 2308 661 c 0
 2136 661 2006 517 2006 343 c 0
 2006 184 2131 56 2293 56 c 0
 2466 56 2608 187 2608 366 c 0
EndSplineSet
EndChar

StartChar: ml_aa
Encoding: 3334 3334 44
Width: 3023
GlyphClass: 2
Flags: HW
LayerCount: 2
Fore
SplineSet
2282 -30 m 0
 2084 -30 1930 131 1930 321 c 0
 1930 365 1938 410 1956 458 c 128
 2011 602 2180 708 2374 708 c 0
 2426 708 2480 700 2534 684 c 1
 2444 827 2279 940 2052 940 c 0
 1808 940 1640 773 1638 519 c 129
 1638 21 l 2
 1638 4 1623 -13 1606 -13 c 128
 1582 -13 1569 1 1568 21 c 2
 1567 429 l 2
 1566 595 1560 665 1496 765 c 0
 1427 872 1295 952 1131 952 c 0
 1089 952 1044 946 998 935 c 1
 1071 884 1167 783 1167 663 c 0
 1167 589 1139 534 1089 491 c 1
 1174 455 1238 379 1238 265 c 0
 1238 113 1104 -5 951 -5 c 0
 814 -5 708 53 630 161 c 0
 571 243 543 343 543 445 c 0
 543 674 673 850 824 939 c 1
 780 951 735 957 691 957 c 0
 615 957 540 939 465 905 c 0
 338 847 250 755 201 629 c 0
 179 572 169 515 169 459 c 0
 169 260 300 104 449 42 c 0
 464 36 471 27 471 14 c 128
 471 -7 458 -26 440 -26 c 128
 433 -26 427 -25 422 -23 c 0
 251 48 100 225 100 452 c 0
 100 784 371 1026 701 1026 c 0
 774 1026 844 1012 913 982 c 1
 982 1008 1052 1021 1122 1021 c 0
 1160 1021 1197 1017 1235 1010 c 0
 1411 976 1543 872 1601 708 c 1
 1662 877 1818 1010 2048 1010 c 0
 2326 1010 2545 855 2635 642 c 1
 2787 560 2922 391 2922 158 c 0
 2922 94 2911 29 2888 -34 c 0
 2822 -213 2680 -338 2471 -386 c 128
 2437 -394 2403 -398 2370 -398 c 0
 2214 -398 2069 -321 1986 -242 c 0
 1979 -235 1975 -227 1975 -217 c 128
 1975 -198 1991 -182 2010 -182 c 128
 2019 -182 2028 -185 2035 -192 c 0
 2125 -278 2231 -325 2376 -325 c 0
 2492 -325 2596 -285 2688 -204 c 0
 2778 -124 2853 -3 2853 153 c 0
 2853 180 2851 208 2846 237 c 0
 2826 360 2767 459 2669 536 c 1
 2678 495 2682 455 2682 417 c 0
 2682 225 2577 77 2445 11 c 0
 2390 -17 2336 -30 2282 -30 c 0
989 441 m 0
 979 441 970 439 961 439 c 0
 939 439 920 448 920 470 c 128
 920 504 939 509 978 514 c 128
 1042 523 1097 585 1097 662 c 0
 1097 701 1081 742 1050 787 c 128
 1016 835 970 874 911 905 c 1
 755 836 611 666 611 451 c 0
 611 285 685 167 794 105 c 0
 839 80 890 65 942 65 c 0
 1057 65 1169 144 1169 259 c 0
 1169 367 1086 441 989 441 c 0
2281 42 m 0
 2477 42 2611 224 2611 423 c 0
 2611 477 2602 534 2580 591 c 1
 2516 622 2446 636 2379 636 c 0
 2217 636 2066 554 2020 432 c 0
 2006 395 1999 358 1999 323 c 0
 1999 166 2129 42 2281 42 c 0
EndSplineSet
EndChar

StartChar: ml_i
Encoding: 3335 3335 45
Width: 2030
GlyphClass: 2
Flags: HW
LayerCount: 2
Fore
SplineSet
1056 762 m 5
 1111 905 1236 1010 1426 1010 c 0
 1568 1010 1700 945 1772 871 c 4
 1868 772 1930 643 1930 503 c 0
 1930 250 1748 65 1536 22 c 132
 1467 8 1382 1 1282 1 c 6
 566 -3 l 6
 546 -3 526 -3 506 -3 c 0
 392 -3 275 -17 222 -63 c 132
 187 -93 170 -128 170 -162 c 0
 170 -209 203 -253 263 -279 c 4
 302 -296 365 -304 452 -305 c 6
 1895 -306 l 6
 1914 -306 1930 -321 1930 -340 c 132
 1930 -359 1915 -376 1895 -376 c 6
 452 -375 l 6
 284 -375 201 -350 136 -266 c 132
 111 -234 100 -196 100 -159 c 0
 100 -107 122 -57 162 -22 c 4
 255 59 392 67 566 67 c 6
 1282 71 l 6
 1476 72 1580 86 1694 170 c 132
 1781 234 1860 352 1860 491 c 0
 1860 667 1782 796 1652 876 c 4
 1584 918 1506 939 1431 939 c 0
 1330 939 1233 901 1170 823 c 4
 1100 736 1095 669 1095 512 c 6
 1095 213 l 6
 1095 190 1083 178 1060 179 c 4
 1042 179 1025 194 1025 213 c 6
 1023 509 l 6
 1022 658 1018 709 959 794 c 4
 895 883 787 937 638 937 c 0
 438 937 278 817 214 666 c 5
 262 712 335 750 420 750 c 0
 569 750 671 656 706 540 c 132
 715 510 720 480 720 451 c 0
 720 293 593 163 433 163 c 0
 242 163 113 328 113 516 c 0
 113 549 117 582 125 616 c 4
 166 797 305 929 469 981 c 4
 526 999 581 1008 635 1008 c 0
 658 1008 681 1006 704 1003 c 4
 881 976 998 896 1056 762 c 5
650 456 m 0
 650 581 547 681 418 681 c 0
 296 681 194 573 192 454 c 4
 192 385 259 304 307 272 c 132
 346 246 389 234 431 234 c 0
 545 234 650 330 650 456 c 0
EndSplineSet
EndChar

StartChar: ml_u
Encoding: 3337 3337 47
Width: 1304
GlyphClass: 2
Flags: HW
LayerCount: 2
Fore
SplineSet
112 494 m 132
 112 516 107 539 107 560 c 0
 107 705 192 825 279 891 c 4
 370 960 474 995 592 995 c 0
 618 995 645 993 672 990 c 4
 942 957 1176 740 1176 445 c 0
 1176 290 1105 168 1010 96 c 132
 908 19 814 -3 653 -3 c 0
 637 -3 621 -2 604 -2 c 6
 499 0 l 5
 474 0 l 2
 381 0 317 -7 282 -21 c 132
 231 -42 171 -85 171 -147 c 0
 171 -153 171 -158 172 -164 c 4
 186 -244 265 -285 408 -288 c 4
 423 -288 446 -288 478 -289 c 6
 1169 -290 l 6
 1188 -290 1204 -307 1204 -326 c 132
 1204 -341 1189 -360 1176 -360 c 6
 1169 -360 l 5
 478 -359 l 5
 403 -359 l 6
 251 -359 124 -301 102 -173 c 132
 101 -165 100 -157 100 -149 c 0
 100 -64 175 11 234 35 c 132
 291 58 343 71 411 71 c 0
 440 71 468 70 500 70 c 6
 605 68 l 6
 623 68 640 67 656 67 c 0
 797 67 880 86 968 152 c 132
 1042 207 1108 314 1108 432 c 0
 1108 580 1051 690 977 764 c 4
 887 853 782 905 663 920 c 4
 641 923 619 924 598 924 c 0
 436 924 297 846 227 729 c 5
 271 758 318 773 368 773 c 0
 482 773 557 717 602 632 c 4
 625 590 636 547 636 504 c 0
 636 378 561 292 467 257 c 4
 438 246 408 241 380 241 c 0
 339 241 299 252 260 274 c 4
 183 317 134 387 115 482 c 4
 113 487 112 491 112 494 c 132
565 505 m 0
 565 610 479 703 371 703 c 0
 272 703 182 623 182 516 c 0
 182 513 182 510 182 507 c 4
 198 409 269 312 383 312 c 0
 485 312 565 402 565 505 c 0
EndSplineSet
EndChar

StartChar: ml_r
Encoding: 3339 3339 49
Width: 1672
GlyphClass: 2
Flags: HW
LayerCount: 2
Fore
SplineSet
100 704 m 0
 100 870 211 1032 389 1032 c 2
 393 1032 l 2
 528 1032 638 915 638 783 c 0
 638 745 629 706 609 668 c 0
 571 592 489 527 382 527 c 0
 293 527 223 569 179 625 c 1
 209 489 302 392 414 330 c 0
 507 279 619 250 751 243 c 0
 763 243 812 242 825 242 c 0
 1145 242 1393 355 1479 583 c 1
 1435 544 1372 518 1305 518 c 0
 1271 518 1235 524 1200 540 c 128
 1118 577 1046 662 1046 775 c 0
 1046 899 1127 989 1224 1019 c 0
 1250 1027 1276 1031 1300 1031 c 0
 1389 1031 1460 981 1502 926 c 0
 1547 867 1571 790 1571 708 c 0
 1571 647 1558 583 1529 522 c 0
 1464 385 1336 283 1180 228 c 1
 1367 195 1547 79 1547 -124 c 0
 1547 -313 1378 -435 1208 -472 c 128
 1126 -489 1036 -493 929 -493 c 2
 858 -493 l 2
 823 -493 785 -494 747 -494 c 0
 680 -494 614 -492 563 -484 c 128
 374 -453 227 -371 172 -210 c 128
 160 -175 154 -141 154 -109 c 0
 154 64 319 192 481 223 c 1
 357 268 252 344 185 441 c 0
 131 518 100 612 100 704 c 0
566 781 m 0
 566 880 490 962 392 962 c 2
 386 962 l 2
 294 962 232 900 199 834 c 1
 199 818 193 800 193 784 c 0
 193 683 276 596 377 596 c 0
 480 596 566 677 566 781 c 0
1305 587 m 0
 1412 587 1489 667 1497 765 c 1
 1497 766 l 130
 1497 767 1496 770 1496 771 c 0
 1476 869 1410 960 1298 960 c 128
 1192 960 1116 875 1116 778 c 0
 1116 673 1199 587 1305 587 c 0
699 173 m 2
 513 173 392 144 303 56 c 0
 256 10 226 -50 226 -116 c 0
 226 -149 234 -183 251 -218 c 128
 304 -325 417 -391 558 -410 c 128
 645 -421 755 -423 858 -423 c 0
 893 -423 933 -424 972 -424 c 0
 1084 -424 1176 -413 1258 -385 c 0
 1368 -345 1477 -255 1477 -123 c 0
 1477 65 1280 158 1091 168 c 128
 1029 171 952 171 882 171 c 2
 850 171 l 2
 843 171 834 171 824 172 c 0
 800 172 777 172 754 173 c 1
 699 173 l 2
EndSplineSet
EndChar

StartChar: ml_l
Encoding: 3340 3340 50
Width: 2176
GlyphClass: 2
Flags: HW
LayerCount: 2
Fore
SplineSet
1541 945 m 0
 1312 945 1112 760 1112 528 c 2
 1111 36 l 2
 1110 13 1099 2 1076 1 c 0
 1058 1 1041 18 1041 36 c 2
 1042 525 l 1
 1039 646 1019 727 959 805 c 0
 888 896 789 942 660 942 c 0
 530 942 417 895 323 804 c 0
 227 711 176 600 171 471 c 1
 171 467 l 1
 218 567 329 661 474 661 c 0
 649 661 780 540 808 385 c 128
 812 364 813 344 813 324 c 0
 813 219 763 134 702 80 c 128
 648 32 571 -2 485 -2 c 0
 446 -2 406 4 365 20 c 0
 283 51 218 106 171 183 c 0
 170 184 169 185 168 186 c 0
 122 261 100 346 100 440 c 0
 100 756 350 1012 661 1012 c 0
 883 1012 1027 887 1084 716 c 1
 1121 802 1179 872 1256 925 c 0
 1344 986 1437 1016 1534 1016 c 0
 1586 1016 1639 1007 1694 990 c 0
 1917 919 2077 707 2077 449 c 0
 2077 247 1971 83 1812 20 c 128
 1769 3 1727 -5 1687 -5 c 0
 1540 -5 1421 98 1381 216 c 128
 1368 254 1362 291 1362 327 c 0
 1362 496 1497 628 1644 652 c 128
 1664 655 1682 656 1701 656 c 0
 1848 656 1961 559 2007 454 c 1
 2006 607 1936 736 1854 815 c 128
 1783 883 1670 945 1541 945 c 0
742 326 m 0
 742 479 614 592 474 592 c 0
 328 592 208 472 208 325 c 0
 208 292 215 256 230 220 c 1
 285 130 364 69 488 69 c 0
 628 69 742 176 742 326 c 0
1688 67 m 0
 1807 67 1891 135 1942 215 c 1
 1942 216 l 1
 1958 252 1964 288 1964 322 c 0
 1964 468 1845 587 1700 587 c 0
 1561 587 1433 475 1433 323 c 0
 1433 240 1474 171 1521 129 c 128
 1563 92 1623 67 1688 67 c 0
EndSplineSet
EndChar

StartChar: ml_e
Encoding: 3342 3342 51
Width: 2469
GlyphClass: 2
Flags: HW
LayerCount: 2
Fore
SplineSet
445 595 m 0
 289 595 169 464 169 320 c 0
 169 195 256 98 352 63 c 0
 368 58 376 48 376 35 c 128
 376 14 363 -5 345 -5 c 128
 338 -5 333 -4 329 -3 c 0
 208 40 100 162 100 319 c 0
 100 514 253 664 446 664 c 0
 634 664 787 515 787 324 c 0
 787 221 740 128 680 71 c 1
 1036 68 l 1
 1033 103 1032 137 1032 170 c 0
 1032 583 1290 989 1716 989 c 0
 2105 989 2369 645 2369 257 c 0
 2369 -48 2225 -280 2040 -424 c 0
 2033 -429 2026 -432 2019 -432 c 0
 2000 -432 1983 -415 1983 -395 c 128
 1983 -384 1988 -375 1997 -368 c 0
 2162 -239 2302 -24 2302 249 c 0
 2302 616 2050 921 1720 921 c 0
 1334 921 1101 546 1101 170 c 0
 1101 137 1103 103 1106 68 c 1
 1746 62 l 1
 1747 69 1749 75 1753 80 c 1
 1758 631 l 1
 1758 632 l 2
 1758 650 1777 668 1795 668 c 0
 1810 668 1828 648 1828 638 c 2
 1828 631 l 1
 1823 26 l 2
 1823 19 1821 13 1818 8 c 1
 1815 -226 1663 -435 1436 -435 c 0
 1198 -435 1078 -223 1044 -2 c 1
 567 3 l 2
 550 3 532 18 532 35 c 0
 532 52 539 63 553 70 c 0
 639 108 718 201 718 319 c 0
 718 474 597 595 445 595 c 0
1115 -3 m 1
 1146 -189 1241 -364 1434 -364 c 0
 1624 -364 1736 -193 1747 -8 c 1
 1115 -3 l 1
EndSplineSet
EndChar

StartChar: ml_ee
Encoding: 3343 3343 52
Width: 2494
GlyphClass: 2
Flags: HW
LayerCount: 2
Fore
SplineSet
448 601 m 0
 291 601 169 471 169 326 c 0
 169 204 251 107 344 70 c 4
 359 64 367 55 367 42 c 132
 367 21 354 2 336 2 c 132
 329 2 323 3 319 5 c 4
 203 51 100 170 100 324 c 0
 100 521 252 671 449 671 c 0
 636 671 792 513 792 328 c 0
 792 226 739 127 678 71 c 5
 1032 70 l 5
 1030 99 1029 127 1029 155 c 0
 1029 359 1086 540 1202 698 c 4
 1317 854 1514 991 1770 991 c 0
 1974 991 2140 886 2222 740 c 132
 2256 680 2275 617 2275 550 c 0
 2275 422 2220 328 2140 270 c 5
 2280 228 2394 91 2394 -73 c 0
 2394 -262 2245 -422 2050 -422 c 0
 1996 -422 1935 -409 1908 -394 c 132
 1878 -378 1864 -374 1864 -346 c 132
 1864 -330 1880 -314 1896 -314 c 132
 1904 -314 1916 -318 1934 -328 c 132
 1960 -342 2005 -351 2049 -351 c 0
 2073 -351 2096 -348 2117 -343 c 4
 2230 -314 2324 -216 2324 -70 c 0
 2324 50 2255 137 2181 176 c 132
 2133 202 2085 215 2035 215 c 0
 2016 215 1996 211 1979 211 c 0
 1958 211 1941 218 1941 243 c 4
 1941 276 1969 281 2001 283 c 5
 2054 294 2096 316 2127 349 c 4
 2178 406 2204 475 2204 547 c 0
 2204 601 2189 656 2160 708 c 132
 2090 834 1947 921 1770 921 c 0
 1540 921 1361 796 1257 655 c 4
 1151 511 1099 345 1099 156 c 0
 1099 128 1100 99 1102 70 c 5
 1739 69 l 5
 1739 71 1740 73 1741 75 c 6
 1745 637 l 6
 1745 657 1760 672 1780 672 c 132
 1796 672 1815 658 1815 644 c 6
 1815 637 l 5
 1810 52 l 5
 1811 42 1811 31 1811 21 c 0
 1811 -138 1739 -275 1639 -352 c 4
 1575 -401 1500 -426 1427 -426 c 0
 1364 -426 1301 -408 1245 -370 c 4
 1133 -294 1065 -171 1040 0 c 5
 557 1 l 6
 540 1 522 17 522 34 c 4
 522 51 530 63 545 69 c 4
 638 105 721 200 721 323 c 0
 721 344 719 366 714 388 c 132
 688 500 581 601 448 601 c 0
1111 0 m 5
 1134 -145 1191 -248 1281 -309 c 4
 1328 -341 1378 -355 1427 -355 c 0
 1489 -355 1549 -333 1596 -297 c 4
 1675 -235 1733 -133 1741 -1 c 5
 1111 0 l 5
EndSplineSet
EndChar

StartChar: ml_n
Encoding: 3346 3346 54
Width: 1346
GlyphClass: 2
Flags: HW
LayerCount: 2
Fore
SplineSet
980 57 m 0
 1092 57 1175 136 1175 243 c 0
 1175 263 1171 283 1164 304 c 4
 1136 383 1080 424 995 428 c 4
 972 429 962 424 944 424 c 132
 930 424 915 443 915 458 c 4
 915 477 925 489 946 494 c 4
 1017 511 1089 588 1089 676 c 0
 1089 843 886 952 715 952 c 0
 425 952 171 693 171 411 c 0
 171 398 171 386 172 373 c 5
 210 448 296 517 405 517 c 0
 556 517 670 400 670 255 c 0
 670 141 597 53 512 17 c 132
 479 3 446 -3 414 -3 c 0
 335 -3 264 35 218 84 c 132
 149 158 101 280 101 412 c 0
 101 452 106 492 115 533 c 132
 170 768 365 956 596 1008 c 132
 637 1017 678 1021 718 1021 c 0
 932 1021 1157 882 1157 679 c 0
 1157 600 1120 530 1070 485 c 5
 1162 455 1244 365 1244 244 c 0
 1244 101 1133 -12 989 -12 c 0
 947 -12 905 -2 867 19 c 4
 855 26 849 37 849 49 c 0
 849 67 862 84 881 84 c 132
 889 84 902 79 919 70 c 132
 936 61 958 57 980 57 c 0
415 67 m 0
 521 67 601 153 601 255 c 0
 601 358 511 447 406 447 c 0
 299 447 213 363 213 255 c 0
 213 193 227 178 270 132 c 132
 303 96 357 67 415 67 c 0
EndSplineSet
EndChar

StartChar: k1
Encoding: 3349 3349 57
Width: 1859
GlyphClass: 2
Flags: HW
LayerCount: 2
Fore
SplineSet
1464 -3 m 0
 1431 -3 1401 1 1401 34 c 4
 1401 53 1417 69 1436 69 c 6
 1450 69 l 2
 1477 69 1502 70 1530 79 c 132
 1617 108 1689 186 1689 300 c 0
 1689 434 1587 516 1466 536 c 4
 1441 540 1409 543 1371 544 c 5
 1372 537 1372 532 1372 527 c 4
 1373 513 1373 499 1373 486 c 0
 1373 287 1286 125 1150 46 c 4
 1094 13 1033 -3 972 -3 c 0
 828 -3 718 83 655 179 c 4
 655 180 653 183 649 189 c 5
 612 89 517 2 383 2 c 0
 228 2 100 116 100 280 c 0
 100 412 192 510 289 558 c 4
 373 599 460 610 582 611 c 5
 610 763 687 884 802 949 c 4
 856 979 914 995 972 995 c 0
 1028 995 1083 981 1136 952 c 4
 1254 889 1333 766 1362 614 c 5
 1544 614 1662 555 1725 436 c 4
 1748 393 1759 345 1759 298 c 0
 1759 253 1750 209 1730 168 c 132
 1687 79 1593 -3 1464 -3 c 0
1103 891 m 4
 1060 914 1016 925 972 925 c 0
 926 925 880 913 837 888 c 4
 742 834 678 736 653 611 c 5
 1290 614 l 5
 1264 738 1199 839 1103 891 c 4
1301 544 m 5
 643 541 l 5
 642 535 642 529 642 523 c 4
 641 510 641 498 641 485 c 0
 641 432 648 382 661 335 c 4
 663 331 664 327 665 322 c 4
 694 229 750 154 824 109 c 4
 870 81 918 67 968 67 c 6
 972 67 l 2
 1088 67 1177 138 1228 214 c 4
 1278 288 1303 378 1303 482 c 0
 1303 495 1303 509 1302 523 c 4
 1302 530 1302 537 1301 544 c 5
170 278 m 0
 170 166 266 72 379 72 c 0
 404 72 431 77 458 87 c 132
 533 116 597 186 597 287 c 0
 597 294 597 301 596 308 c 5
 579 363 571 422 571 484 c 0
 571 498 571 513 572 527 c 4
 572 530 572 534 573 541 c 5
 393 538 286 504 214 409 c 4
 185 369 170 323 170 278 c 0
EndSplineSet
EndChar

StartChar: k2
Encoding: 3350 3350 58
Width: 1740
GlyphClass: 2
Flags: HW
LayerCount: 2
Fore
SplineSet
756 263 m 0
 756 104 626 -25 467 -25 c 0
 292 -25 178 121 130 260 c 132
 109 320 100 380 100 439 c 0
 100 565 142 684 204 772 c 132
 294 899 454 1006 656 1006 c 0
 920 1006 1119 819 1176 602 c 132
 1188 556 1194 510 1194 466 c 0
 1194 298 1114 152 1018 65 c 5
 1567 64 l 5
 1570 993 l 6
 1570 1013 1587 1029 1606 1029 c 132
 1621 1029 1640 1013 1640 1000 c 6
 1640 993 l 5
 1637 29 l 6
 1637 6 1625 -6 1602 -6 c 6
 913 -5 l 6
 893 -5 878 11 878 32 c 132
 878 43 884 53 895 60 c 4
 1016 133 1125 277 1125 460 c 0
 1125 499 1120 541 1109 584 c 132
 1082 686 1028 769 946 834 c 132
 859 903 772 935 667 935 c 0
 484 935 344 850 267 740 c 4
 202 649 170 551 170 447 c 0
 170 416 173 384 179 351 c 5
 215 462 316 557 461 557 c 0
 625 557 756 425 756 263 c 0
468 46 m 0
 589 46 686 142 686 263 c 0
 686 387 584 487 463 487 c 0
 335 487 234 384 234 260 c 0
 234 230 240 199 254 168 c 5
 312 87 384 46 468 46 c 0
EndSplineSet
EndChar

StartChar: k3
Encoding: 3351 3351 59
Width: 1838
GlyphClass: 2
Flags: HW
LayerCount: 2
Fore
SplineSet
566 -12 m 4
 301 -12 100 223 100 490 c 4
 100 743 263 935 452 1012 c 4
 456 1014 462 1015 466 1015 c 4
 485 1015 501 999 501 980 c 4
 501 967 490 953 478 948 c 4
 313 881 170 713 170 491 c 4
 170 262 340 58 566 58 c 4
 789 58 870 222 870 448 c 6
 870 552 l 6
 870 824 991 1013 1260 1013 c 4
 1529 1013 1738 777 1738 512 c 4
 1738 243 1543 36 1317 -15 c 4
 1315 -16 1311 -16 1309 -16 c 4
 1290 -16 1274 0 1274 19 c 4
 1274 35 1286 50 1301 53 c 4
 1497 98 1668 278 1668 512 c 4
 1668 740 1491 943 1260 943 c 4
 1031 943 940 784 940 551 c 6
 940 447 l 6
 940 183 828 -12 566 -12 c 4
EndSplineSet
EndChar

StartChar: k4
Encoding: 3352 3352 60
Width: 2423
GlyphClass: 2
Flags: HW
LayerCount: 2
Fore
SplineSet
453 935 m 0
 297 935 170 809 170 652 c 0
 170 529 249 435 339 396 c 4
 353 390 360 381 360 368 c 132
 360 347 347 329 328 329 c 132
 320 329 315 330 311 332 c 4
 199 382 100 499 100 652 c 0
 100 854 269 1007 454 1007 c 0
 623 1007 756 882 792 744 c 132
 800 715 803 685 803 657 c 0
 803 548 750 450 684 390 c 5
 1074 393 l 5
 1074 505 l 6
 1074 678 1096 775 1179 871 c 4
 1260 964 1370 1011 1510 1011 c 0
 1669 1011 1785 958 1864 857 c 4
 1931 772 1952 688 1952 551 c 0
 1952 537 1951 523 1951 508 c 6
 1948 363 l 6
 1948 344 1931 329 1913 329 c 6
 1144 324 l 5
 1143 72 l 5
 2253 72 l 5
 2253 969 l 6
 2253 989 2269 1004 2288 1004 c 132
 2307 1004 2323 989 2323 969 c 6
 2322 37 l 6
 2322 18 2306 2 2287 2 c 6
 1108 2 l 6
 1090 2 1073 19 1073 37 c 6
 1074 323 l 5
 555 319 l 6
 537 319 520 335 520 352 c 4
 520 370 528 382 544 387 c 4
 643 421 734 522 734 651 c 0
 734 765 679 843 602 892 c 132
 554 923 503 935 453 935 c 0
1870 685 m 132
 1839 844 1695 940 1510 940 c 0
 1336 940 1197 844 1161 692 c 132
 1150 644 1144 581 1144 505 c 6
 1144 394 l 5
 1879 399 l 5
 1881 509 l 6
 1881 518 1881 527 1881 536 c 0
 1881 595 1878 645 1870 685 c 132
EndSplineSet
EndChar

StartChar: ng
Encoding: 3353 3353 61
Width: 2108
GlyphClass: 2
Flags: HW
LayerCount: 2
Fore
SplineSet
1926 691 m 0
 1926 864 1751 957 1578 957 c 0
 1365 957 1202 841 1161 654 c 128
 1149 599 1143 529 1143 445 c 2
 1143 434 l 1
 1145 27 l 2
 1145 8 1129 -8 1110 -8 c 128
 1091 -8 1075 7 1075 26 c 2
 1072 435 l 2
 1071 611 1055 706 977 806 c 128
 913 887 804 950 669 950 c 0
 392 950 177 726 170 460 c 1
 216 565 329 663 476 663 c 0
 648 663 776 544 806 393 c 128
 810 371 813 348 813 327 c 0
 813 222 762 135 701 82 c 128
 646 34 570 1 485 1 c 0
 445 1 404 9 362 25 c 128
 205 87 100 250 100 446 c 0
 100 763 352 1020 666 1020 c 0
 734 1020 799 1007 860 981 c 0
 979 931 1061 841 1106 713 c 1
 1173 905 1343 1028 1570 1028 c 0
 1737 1028 1857 972 1936 866 c 0
 1977 811 1996 751 1996 694 c 0
 1996 598 1944 511 1858 468 c 1
 1939 432 2009 355 2009 245 c 0
 2009 101 1877 -6 1734 -6 c 0
 1659 -6 1605 16 1554 51 c 0
 1544 58 1539 67 1539 78 c 128
 1539 98 1553 115 1572 115 c 128
 1581 115 1595 109 1613 96 c 128
 1632 83 1690 62 1741 62 c 0
 1779 62 1816 74 1853 98 c 0
 1907 133 1936 190 1936 248 c 0
 1936 299 1913 350 1863 385 c 0
 1811 422 1760 427 1670 428 c 1
 1606 428 l 2
 1586 428 1571 443 1571 467 c 128
 1571 483 1588 497 1604 498 c 2
 1679 502 l 2
 1805 508 1888 538 1918 637 c 128
 1923 655 1926 672 1926 691 c 0
488 72 m 0
 628 72 744 182 744 331 c 0
 744 402 712 462 670 511 c 128
 628 561 563 593 475 593 c 0
 349 593 256 505 220 390 c 128
 214 370 211 350 211 329 c 0
 211 295 219 260 235 223 c 0
 236 220 237 216 237 213 c 0
 291 132 371 72 488 72 c 0
EndSplineSet
EndChar

StartChar: ch1
Encoding: 3354 3354 62
Width: 1503
GlyphClass: 2
Flags: HW
LayerCount: 2
Fore
SplineSet
647 653 m 0
 507 653 401 538 401 410 c 0
 401 377 408 343 424 309 c 0
 426 304 427 298 427 291 c 128
 427 276 410 259 395 259 c 0
 378 259 367 266 360 280 c 0
 342 320 333 366 333 412 c 0
 333 594 481 723 648 723 c 0
 828 722 981 562 981 384 c 0
 981 245 924 142 826 71 c 1
 1333 71 l 1
 1333 977 l 2
 1333 1000 1351 1012 1369 1012 c 0
 1386 1012 1403 1001 1403 978 c 2
 1403 36 l 2
 1403 18 1386 1 1368 1 c 2
 36 -1 l 1
 28 -1 l 2
 15 -1 0 19 0 34 c 128
 0 53 16 69 35 69 c 2
 638 71 l 1
 786 87 910 211 910 373 c 0
 910 518 803 653 647 653 c 0
EndSplineSet
EndChar

StartChar: ch2
Encoding: 3355 3355 63
Width: 2525
GlyphClass: 2
Flags: HW
LayerCount: 2
Fore
SplineSet
1663 404 m 0
 1663 651 1832 842 2052 885 c 1
 1979 918 1907 945 1834 945 c 0
 1548 945 1317 719 1317 434 c 0
 1317 273 1400 136 1494 57 c 0
 1503 50 1507 41 1507 32 c 0
 1507 13 1490 -5 1471 -5 c 2
 35 2 l 2
 15 2 0 17 0 36 c 128
 0 51 15 72 28 72 c 130
 36 72 l 1
 237 71 437 70 638 69 c 1
 786 85 911 211 911 373 c 0
 911 519 805 653 647 653 c 0
 510 653 403 548 403 408 c 0
 403 374 410 340 424 309 c 0
 426 304 427 299 427 294 c 0
 427 276 414 259 395 259 c 0
 378 259 367 266 360 280 c 0
 341 321 332 365 332 409 c 0
 332 585 471 724 642 724 c 0
 840 724 982 558 982 383 c 0
 982 244 924 140 824 68 c 1
 1386 66 l 1
 1311 153 1248 281 1248 431 c 0
 1248 751 1513 1013 1832 1013 c 0
 2159 1013 2426 755 2426 427 c 0
 2426 197 2267 -6 2037 -6 c 0
 1819 -6 1663 198 1663 404 c 0
1733 404 m 0
 1733 223 1865 65 2038 65 c 0
 2228 65 2358 238 2358 423 c 0
 2358 605 2267 737 2154 824 c 1
 2144 824 l 2
 1904 824 1733 646 1733 404 c 0
EndSplineSet
EndChar

StartChar: ch3
Encoding: 3356 3356 64
Width: 1534
GlyphClass: 2
Flags: HW
LayerCount: 2
Fore
SplineSet
113 187 m 0
 113 325 257 387 411 387 c 0
 569 387 721 356 883 356 c 0
 1125 356 1359 450 1359 673 c 0
 1359 834 1232 944 1069 944 c 0
 881 944 829 783 826 641 c 2
 823 484 l 2
 822 466 807 450 788 450 c 128
 769 450 753 465 753 484 c 2
 753 485 l 1
 755 640 l 2
 757 801 622 942 440 942 c 0
 377 942 320 921 269 881 c 1
 284 884 298 886 312 886 c 0
 436 886 537 800 537 673 c 0
 537 540 431 442 323 442 c 0
 193 442 100 542 100 673 c 0
 100 861 254 1012 443 1012 c 0
 608 1012 718 928 781 808 c 1
 823 924 927 1012 1073 1012 c 0
 1258 1012 1430 871 1430 688 c 0
 1430 548 1366 464 1251 386 c 1
 1356 367 1434 295 1434 182 c 0
 1434 76 1350 -16 1238 -16 c 0
 1121 -16 1038 78 1038 182 c 0
 1038 218 1048 260 1071 294 c 1
 853 208 627 -15 363 -15 c 0
 234 -15 113 54 113 187 c 0
466 673 m 0
 466 759 398 816 312 816 c 0
 235 816 171 755 171 673 c 0
 171 576 237 512 324 512 c 0
 402 512 466 590 466 673 c 0
1240 54 m 0
 1309 54 1366 113 1366 182 c 0
 1366 267 1302 313 1237 313 c 0
 1172 313 1108 273 1108 182 c 0
 1108 111 1176 54 1240 54 c 0
183 187 m 0
 183 105 264 55 358 55 c 0
 540 55 733 188 900 286 c 1
 870 286 l 2
 770 286 481 316 406 316 c 0
 298 316 183 281 183 187 c 0
EndSplineSet
EndChar

StartChar: ch4
Encoding: 3357 3357 65
Width: 3183
GlyphClass: 2
Flags: HW
LayerCount: 2
Fore
SplineSet
965 912 m 1
 1109 812 1224 635 1224 399 c 0
 1224 194 1087 -10 873 -10 c 0
 656 -10 528 189 528 401 c 0
 528 636 652 816 807 915 c 1
 750 936 693 946 638 946 c 0
 376 946 170 741 170 478 c 128
 170 284 286 135 422 65 c 0
 435 58 440 47 440 36 c 0
 440 17 426 -2 406 -2 c 0
 401 -2 395 0 389 3 c 0
 233 84 100 255 100 478 c 128
 100 782 335 1015 639 1015 c 0
 724 1015 809 995 887 958 c 1
 965 991 1042 1013 1116 1013 c 0
 1420 1013 1579 808 1597 499 c 1
 1597 418 l 1
 1607 243 1654 58 1833 58 c 0
 2015 58 2070 269 2068 476 c 2
 2063 978 l 2
 2063 1001 2081 1012 2098 1012 c 0
 2115 1012 2133 1002 2133 979 c 2
 2139 521 l 2
 2143 262 2308 59 2570 59 c 0
 2822 59 3012 248 3012 501 c 0
 3012 755 2801 942 2576 942 c 4
 2551 942 2526 936 2500 936 c 4
 2478 936 2466 955 2466 973 c 4
 2466 1014 2533 1011 2573 1011 c 4
 2857 1011 3083 787 3083 501 c 0
 3083 200 2838 -11 2576 -11 c 0
 2357 -11 2193 122 2118 277 c 1
 2086 135 1999 -11 1831 -11 c 0
 1611 -11 1541 194 1527 414 c 1
 1527 495 l 1
 1510 770 1395 942 1114 942 c 0
 1064 942 1014 927 965 912 c 1
885 879 m 1
 728 799 597 631 597 395 c 0
 597 231 704 58 871 58 c 0
 1053 58 1152 234 1152 417 c 0
 1152 622 1033 794 885 879 c 1
EndSplineSet
EndChar

StartChar: nj
Encoding: 3358 3358 66
Width: 2556
GlyphClass: 2
Flags: HW
LayerCount: 2
Fore
SplineSet
99 443 m 0
 99 759 316 1012 632 1012 c 0
 836 1012 992 884 1050 734 c 1
 1107 897 1243 1013 1455 1013 c 0
 1540 1013 1624 994 1698 957 c 1
 1776 997 1854 1013 1933 1013 c 0
 2247 1013 2456 750 2456 464 c 0
 2456 261 2345 85 2219 -10 c 0
 2212 -15 2205 -18 2198 -18 c 0
 2179 -18 2163 -1 2163 19 c 128
 2163 30 2168 38 2177 45 c 0
 2284 126 2387 281 2387 453 c 4
 2387 720 2198 943 1940 943 c 0
 1886 943 1830 936 1771 914 c 1
 1922 810 2040 636 2040 388 c 0
 2040 179 1919 -15 1706 -15 c 0
 1489 -15 1371 173 1371 388 c 0
 1371 617 1474 802 1626 913 c 1
 1567 936 1510 945 1455 945 c 0
 1186 945 1088 760 1088 481 c 2
 1088 14 l 2
 1088 -5 1073 -20 1054 -20 c 128
 1036 -20 1019 -5 1019 14 c 2
 1017 477 l 1
 1014 763 896 942 626 942 c 0
 360 942 168 718 168 449 c 0
 168 431 169 412 171 393 c 1
 209 506 320 604 468 604 c 0
 643 604 773 469 773 294 c 0
 773 123 639 -11 468 -11 c 0
 225 -11 99 207 99 443 c 0
1698 878 m 1
 1549 788 1439 626 1439 388 c 0
 1439 224 1537 54 1706 54 c 0
 1879 54 1971 218 1971 388 c 0
 1971 615 1854 787 1698 878 c 1
703 294 m 0
 703 418 595 536 468 536 c 0
 328 536 222 434 222 294 c 0
 222 160 350 59 468 59 c 0
 588 59 703 167 703 294 c 0
EndSplineSet
EndChar

StartChar: t1
Encoding: 3359 3359 67
Width: 1084
GlyphClass: 2
Flags: HW
LayerCount: 2
Fore
SplineSet
517 1009 m 0
 698 1009 847 936 932 825 c 0
 936 820 940 810 940 803 c 0
 940 784 924 768 905 768 c 0
 895 768 883 774 877 782 c 0
 803 879 677 939 517 939 c 0
 369 939 183 885 183 734 c 0
 183 646 262 589 334 567 c 0
 498 516 685 573 835 497 c 0
 909 459 985 386 985 277 c 0
 985 70 766 -12 566 -12 c 0
 376 -12 211 61 110 168 c 0
 105 174 100 184 100 192 c 0
 100 211 116 227 135 227 c 0
 144 227 155 222 161 216 c 0
 251 120 394 58 566 58 c 0
 727 58 915 114 915 277 c 0
 915 354 859 407 804 435 c 0
 660 508 483 448 313 501 c 0
 217 531 113 611 113 734 c 0
 113 929 331 1009 517 1009 c 0
EndSplineSet
EndChar

StartChar: t2
Encoding: 3360 3360 68
Width: 1236
GlyphClass: 2
Flags: HW
LayerCount: 2
Fore
SplineSet
100 493 m 4
 100 793 322 1014 620 1014 c 128
 902 1014 1136 772 1136 493 c 4
 1136 185 902 -12 620 -14 c 0
 325 -14 100 198 100 493 c 4
620 944 m 0
 376 944 170 739 170 493 c 4
 170 236 364 56 620 56 c 0
 867 56 1066 246 1066 493 c 132
 1066 733 877 944 620 944 c 0
EndSplineSet
EndChar

StartChar: t4
Encoding: 3362 3362 70
Width: 2674
GlyphClass: 2
Flags: HW
LayerCount: 2
Fore
SplineSet
100 498 m 0
 100 771 322 1010 602 1010 c 0
 847 1010 1035 835 1035 578 c 0
 1035 520 1030 461 1030 402 c 0
 1030 234 1105 57 1266 57 c 0
 1498 57 1534 349 1537 577 c 2
 1543 980 l 2
 1544 999 1559 1014 1578 1014 c 0
 1597 1014 1613 998 1613 979 c 2
 1606 536 l 2
 1602 260 1729 58 2000 58 c 0
 2273 58 2471 276 2502 526 c 1
 2452 421 2336 338 2204 338 c 0
 2023 338 1873 488 1873 669 c 0
 1873 849 2018 1012 2204 1012 c 0
 2433 1012 2574 804 2574 579 c 0
 2574 255 2320 -12 2001 -12 c 0
 1788 -12 1639 117 1576 276 c 1
 1537 142 1435 -13 1266 -13 c 0
 1069 -13 961 187 961 387 c 0
 961 448 967 509 967 568 c 0
 967 789 821 941 602 941 c 0
 361 941 170 733 170 500 c 0
 170 255 373 57 614 57 c 0
 633 57 649 41 649 22 c 0
 649 3 634 -13 615 -13 c 2
 601 -13 l 2
 330 -13 100 224 100 498 c 0
2464 669 m 0
 2464 808 2356 942 2204 942 c 0
 2059 942 1942 802 1942 665 c 0
 1942 526 2066 409 2204 409 c 0
 2345 409 2464 530 2464 669 c 0
EndSplineSet
EndChar

StartChar: nh
Encoding: 3363 3363 71
Width: 2865
GlyphClass: 2
Flags: HW
LayerCount: 2
Fore
SplineSet
2253 58 m 0
 2501 58 2695 256 2695 505 c 0
 2695 749 2497 945 2254 945 c 0
 1973 945 1877 725 1877 439 c 1
 1879 24 l 2
 1879 6 1863 -11 1846 -11 c 128
 1823 -11 1809 5 1809 24 c 2
 1805 434 l 2
 1803 700 1731 945 1472 945 c 0
 1211 945 1141 704 1143 429 c 2
 1146 24 l 2
 1146 5 1130 -10 1111 -10 c 128
 1092 -10 1076 5 1076 24 c 2
 1073 427 l 2
 1071 728 962 946 668 946 c 0
 387 946 170 720 170 433 c 0
 170 418 171 403 172 388 c 1
 212 501 315 597 465 597 c 0
 641 597 778 459 778 291 c 0
 778 125 647 -10 478 -10 c 0
 248 -10 100 199 100 428 c 0
 100 745 345 1017 662 1017 c 0
 886 1017 1039 885 1103 714 c 1
 1152 872 1279 1014 1474 1014 c 0
 1667 1014 1792 871 1841 718 c 1
 1900 885 2040 1014 2257 1014 c 0
 2549 1014 2765 791 2765 498 c 0
 2765 209 2530 -12 2254 -12 c 0
 2221 -12 2190 -9 2190 24 c 128
 2190 39 2205 59 2219 59 c 128
 2233 59 2240 58 2253 58 c 0
708 291 m 0
 708 420 602 527 468 527 c 0
 330 527 224 420 224 284 c 0
 224 140 349 62 477 62 c 0
 608 62 708 161 708 291 c 0
EndSplineSet
EndChar

StartChar: th1
Encoding: 3364 3364 72
Width: 1816
GlyphClass: 2
Flags: HW
LayerCount: 2
Fore
SplineSet
492 18 m 128
 492 -3 480 -22 461 -22 c 128
 454 -22 448 -21 444 -19 c 0
 255 53 100 224 100 478 c 0
 100 784 344 1011 648 1011 c 0
 734 1011 822 993 905 952 c 1
 988 994 1077 1013 1164 1013 c 0
 1469 1013 1717 784 1717 478 c 0
 1717 227 1567 58 1384 -18 c 0
 1379 -20 1373 -21 1366 -21 c 128
 1351 -21 1335 -3 1335 12 c 0
 1335 29 1342 41 1357 47 c 0
 1516 114 1647 259 1647 478 c 0
 1647 744 1432 944 1165 944 c 0
 1104 944 1041 933 979 909 c 1
 1127 807 1253 627 1253 388 c 0
 1253 178 1123 -13 907 -13 c 0
 691 -13 561 178 561 388 c 0
 561 623 669 796 831 908 c 1
 770 931 707 942 647 942 c 0
 382 942 170 743 170 478 c 0
 170 258 305 109 469 46 c 0
 484 41 492 31 492 18 c 128
905 873 m 1
 761 788 632 622 632 391 c 0
 632 219 732 57 908 57 c 0
 1083 57 1182 217 1182 388 c 0
 1182 621 1051 789 905 873 c 1
EndSplineSet
EndChar

StartChar: th2
Encoding: 3365 3365 73
Width: 1626
GlyphClass: 2
Flags: HW
LayerCount: 2
Fore
SplineSet
135 1011 m 128
 154 1011 170 995 170 976 c 2
 175 72 l 1
 608 71 l 1
 608 72 l 1
 605 439 l 2
 602 762 743 1010 1062 1010 c 0
 1383 1010 1528 783 1526 445 c 2
 1524 35 l 2
 1524 16 1508 1 1489 1 c 2
 141 2 l 2
 122 2 106 17 106 36 c 2
 100 975 l 1
 100 983 l 130
 100 996 120 1011 135 1011 c 128
678 71 m 1
 1455 71 l 1
 1456 451 l 2
 1456 746 1340 940 1061 940 c 0
 772 940 672 715 675 416 c 2
 678 71 l 1
EndSplineSet
EndChar

StartChar: th3
Encoding: 3366 3366 74
Width: 1207
GlyphClass: 2
Flags: HW
LayerCount: 2
Fore
SplineSet
946 475 m 1
 1037 439 1107 355 1107 246 c 0
 1107 99 973 -12 825 -12 c 0
 771 -12 720 4 671 36 c 0
 660 43 655 50 655 60 c 128
 655 88 668 99 684 99 c 0
 697 99 712 93 726 84 c 128
 749 69 785 61 822 61 c 0
 933 61 1035 133 1035 241 c 0
 1035 378 935 428 782 429 c 1
 746 430 l 2
 728 430 712 446 712 464 c 128
 712 483 727 497 743 500 c 1
 773 502 l 1
 898 513 1004 559 1004 685 c 0
 1004 857 846 943 670 943 c 0
 399 943 169 726 169 446 c 0
 169 273 244 149 348 62 c 0
 357 55 361 46 361 36 c 128
 361 17 346 0 327 0 c 128
 318 0 310 3 303 9 c 0
 193 101 100 253 100 438 c 0
 100 763 353 1013 672 1013 c 0
 876 1013 1073 897 1073 692 c 0
 1073 603 1028 519 946 475 c 1
EndSplineSet
EndChar

StartChar: n1
Encoding: 3368 3368 76
Width: 2042
GlyphClass: 2
Flags: HW
LayerCount: 2
Fore
SplineSet
605 59 m 0
 636 59 667 68 699 68 c 128
 713 68 729 49 729 34 c 0
 729 13 719 1 700 -2 c 0
 666 -9 633 -12 601 -12 c 0
 313 -12 100 224 100 499 c 0
 100 769 296 1011 577 1011 c 0
 797 1011 947 861 1011 701 c 1
 1078 863 1233 1013 1454 1013 c 0
 1729 1013 1943 782 1943 501 c 0
 1943 212 1726 -10 1436 -10 c 0
 1401 -10 1366 -6 1329 2 c 0
 1310 6 1301 18 1301 37 c 0
 1301 53 1317 72 1331 72 c 128
 1337 72 1341 72 1344 71 c 0
 1375 64 1406 61 1435 61 c 0
 1686 61 1872 251 1872 500 c 0
 1872 752 1673 943 1456 943 c 0
 1199 943 1045 730 1045 486 c 2
 1046 21 l 2
 1046 2 1029 -13 1010 -13 c 128
 991 -13 976 2 976 21 c 2
 973 483 l 2
 971 737 833 941 576 941 c 128
 341 941 169 738 169 502 c 0
 169 255 356 59 605 59 c 0
EndSplineSet
EndChar

StartChar: p1
Encoding: 3370 3370 77
Width: 1700
GlyphClass: 2
Flags: HW
LayerCount: 2
Fore
SplineSet
444 592 m 0
 292 592 170 463 170 318 c 0
 170 193 255 97 351 62 c 0
 367 57 375 47 375 34 c 128
 375 13 362 -6 344 -6 c 128
 337 -6 323 -3 302 5 c 128
 196 44 100 182 100 318 c 0
 100 501 254 662 443 662 c 0
 632 662 790 506 790 321 c 0
 790 223 740 126 682 71 c 1
 1530 67 l 1
 1528 974 l 1
 1528 981 l 130
 1528 994 1548 1009 1563 1009 c 128
 1582 1009 1598 993 1598 974 c 2
 1600 32 l 2
 1600 13 1584 -3 1565 -3 c 2
 569 2 l 2
 551 2 534 17 534 34 c 0
 534 51 541 63 555 69 c 0
 641 107 718 199 718 317 c 0
 718 473 597 592 444 592 c 0
EndSplineSet
EndChar

StartChar: p2
Encoding: 3371 3371 78
Width: 2219
GlyphClass: 2
Flags: HW
LayerCount: 2
Fore
SplineSet
100 309 m 0
 100 490 252 651 439 651 c 0
 628 651 782 504 782 313 c 0
 782 214 737 124 680 68 c 1
 1116 66 l 1
 1116 416 l 2
 1116 771 1263 1011 1611 1011 c 0
 1959 1011 2122 776 2119 408 c 2
 2116 31 l 2
 2116 15 2101 -4 2087 -4 c 2
 569 -2 l 2
 546 -2 534 12 534 41 c 0
 534 51 541 59 555 65 c 0
 638 103 712 193 712 308 c 0
 712 463 592 581 440 581 c 0
 289 581 171 453 171 310 c 0
 171 185 257 87 355 55 c 0
 371 50 379 40 379 27 c 128
 379 6 367 -14 349 -14 c 128
 342 -14 328 -10 307 -3 c 128
 200 36 100 171 100 309 c 0
1186 416 m 2
 1186 65 l 1
 2047 65 l 1
 2049 409 l 1
 2049 730 1921 941 1620 941 c 128
 1314 941 1186 740 1186 416 c 2
EndSplineSet
EndChar

StartChar: p3
Encoding: 3372 3372 79
Width: 2641
GlyphClass: 2
Flags: HW
LayerCount: 2
Fore
SplineSet
1146 714 m 1
 1200 874 1356 1016 1565 1016 c 0
 1854 1016 2065 811 2065 523 c 0
 2065 326 1950 155 1804 70 c 1
 2470 68 l 1
 2470 367 2471 666 2471 965 c 4
 2471 984 2487 1000 2506 1000 c 128
 2525 1000 2541 984 2541 965 c 2
 2540 32 l 2
 2540 14 2523 -3 2505 -3 c 2
 1602 0 l 2
 1584 0 1567 15 1567 33 c 128
 1567 51 1581 68 1597 69 c 0
 1814 98 1994 284 1994 527 c 0
 1994 770 1811 945 1569 945 c 0
 1284 945 1182 725 1182 431 c 2
 1182 26 l 2
 1182 8 1165 -9 1147 -9 c 128
 1129 -9 1112 6 1112 25 c 2
 1111 431 l 2
 1111 742 996 947 692 947 c 0
 398 947 178 719 171 425 c 1
 215 527 330 621 473 621 c 0
 657 621 794 487 794 296 c 0
 794 120 650 -16 473 -16 c 0
 243 -16 100 200 100 417 c 0
 100 752 359 1017 688 1017 c 0
 928 1017 1084 897 1146 714 c 1
724 296 m 0
 724 444 607 552 473 552 c 0
 333 552 214 436 214 296 c 0
 214 157 336 53 473 53 c 0
 607 53 724 160 724 296 c 0
EndSplineSet
EndChar

StartChar: p4
Encoding: 3373 3373 80
Width: 1316
GlyphClass: 2
Flags: HW
LayerCount: 2
Fore
SplineSet
771 350 m 0
 826 350 919 360 948 360 c 0
 1084 360 1213 299 1213 168 c 0
 1213 22 1064 -20 881 -20 c 0
 796 -20 690 -13 563 0 c 0
 546 1 531 18 531 36 c 128
 531 51 546 70 560 70 c 128
 641 70 759 52 880 52 c 128
 1028 52 1141 69 1141 172 c 0
 1141 247 1041 291 955 291 c 0
 904 291 841 282 786 282 c 0
 629 282 500 330 500 473 c 0
 500 597 610 665 733 665 c 0
 819 665 910 617 1005 617 c 0
 1078 617 1146 655 1146 732 c 0
 1146 883 939 946 750 946 c 0
 440 946 170 732 170 417 c 0
 170 263 252 124 345 45 c 0
 354 38 358 31 358 22 c 0
 358 -4 348 -17 327 -17 c 0
 316 -17 307 -14 300 -8 c 0
 176 96 100 233 100 426 c 0
 100 784 400 1015 760 1015 c 0
 981 1015 1216 937 1216 730 c 0
 1216 617 1117 547 1006 547 c 0
 920 547 814 596 719 596 c 0
 638 596 567 538 567 476 c 0
 567 385 666 350 771 350 c 0
EndSplineSet
EndChar

StartChar: m1
Encoding: 3374 3374 81
Width: 1390
GlyphClass: 2
Flags: HW
LayerCount: 2
Fore
SplineSet
100 446 m 2
 100 757 379 1011 692 1011 c 0
 1028 1011 1293 735 1291 407 c 2
 1289 35 l 2
 1289 16 1273 0 1254 0 c 2
 135 1 l 2
 117 1 100 18 100 36 c 2
 100 446 l 2
860 693 m 0
 860 831 771 935 642 935 c 0
 390 935 170 694 170 442 c 2
 170 71 l 1
 235 71 l 2
 531 71 860 370 860 693 c 0
847 918 m 1
 905 855 929 778 929 696 c 0
 929 402 690 169 482 71 c 1
 1219 70 l 1
 1219 443 l 2
 1219 675 1039 858 847 918 c 1
EndSplineSet
EndChar

StartChar: y1
Encoding: 3375 3375 82
Width: 1948
GlyphClass: 2
Flags: HW
LayerCount: 2
Fore
SplineSet
412 1016 m 0
 571 1016 669 895 710 774 c 1
 763 897 875 1014 1045 1014 c 0
 1258 1014 1389 829 1389 615 c 0
 1389 377 1266 198 1094 88 c 1
 1155 67 1212 57 1268 57 c 0
 1557 57 1778 283 1778 565 c 0
 1778 714 1717 852 1603 954 c 0
 1595 961 1591 970 1591 979 c 0
 1591 998 1608 1016 1627 1016 c 0
 1635 1016 1643 1013 1650 1006 c 0
 1779 891 1848 734 1848 565 c 0
 1848 241 1589 -12 1263 -12 c 0
 1182 -12 1097 5 1013 44 c 1
 927 5 841 -11 757 -11 c 0
 394 -11 100 282 100 650 c 0
 100 845 215 1016 412 1016 c 0
412 945 m 0
 256 945 170 805 170 649 c 0
 170 322 427 59 753 59 c 0
 814 59 877 69 935 89 c 1
 768 201 672 376 669 592 c 0
 667 765 592 945 412 945 c 0
1044 944 m 0
 850 944 740 759 740 578 c 0
 740 380 854 210 1014 123 c 1
 1186 212 1319 388 1319 614 c 0
 1319 791 1218 944 1044 944 c 0
EndSplineSet
EndChar

StartChar: r3
Encoding: 3376 3376 83
Width: 1427
GlyphClass: 2
Flags: HW
LayerCount: 2
Fore
SplineSet
519 384 m 0
 519 610 701 792 927 792 c 0
 1015 792 1103 763 1173 711 c 1
 1083 842 910 943 713 943 c 0
 425 943 170 736 170 448 c 0
 170 259 279 118 408 49 c 0
 418 44 427 30 427 18 c 0
 427 -1 411 -17 392 -17 c 0
 387 -17 379 -15 375 -13 c 0
 226 67 100 230 100 448 c 0
 100 777 387 1013 714 1013 c 0
 1043 1013 1328 778 1328 444 c 0
 1328 193 1157 -10 905 -10 c 0
 686 -10 519 165 519 384 c 0
589 385 m 0
 589 205 725 60 905 60 c 0
 1116 60 1258 233 1258 444 c 0
 1258 598 1084 722 927 722 c 0
 741 722 589 572 589 385 c 0
EndSplineSet
EndChar

StartChar: rh
Encoding: 3377 3377 84
Width: 1344
GlyphClass: 2
Flags: HW
LayerCount: 2
Fore
SplineSet
100 469 m 0
 100 788 363 1015 681 1015 c 0
 987 1015 1245 791 1245 468 c 0
 1245 227 1072 44 861 -12 c 0
 858 -13 854 -13 849 -13 c 128
 832 -13 817 3 817 15 c 128
 817 39 827 52 843 56 c 0
 1021 104 1175 255 1175 472 c 0
 1175 743 945 943 673 943 c 0
 400 943 170 742 170 468 c 0
 170 251 323 106 496 56 c 0
 513 51 522 42 522 28 c 0
 522 1 510 -13 487 -13 c 0
 484 -13 480 -13 476 -12 c 0
 277 45 100 218 100 469 c 0
EndSplineSet
EndChar

StartChar: l3
Encoding: 3378 3378 85
Width: 1646
GlyphClass: 2
Flags: HW
LayerCount: 2
Fore
SplineSet
1474 978 m 2
 1474 997 1490 1013 1509 1013 c 0
 1528 1013 1544 997 1544 978 c 2
 1546 35 l 2
 1546 16 1530 0 1511 0 c 2
 135 1 l 2
 116 1 100 17 100 36 c 2
 100 378 l 2
 100 582 118 694 205 818 c 128
 277 921 412 1010 575 1010 c 0
 851 1010 1057 800 1057 525 c 0
 1057 490 1053 455 1045 421 c 0
 1040 403 1029 394 1011 394 c 2
 171 392 l 1
 170 392 l 1
 170 71 l 1
 1476 70 l 1
 1474 978 l 2
584 938 m 128
 437 938 327 870 261 776 c 128
 197 685 175 593 171 462 c 1
 981 464 l 1
 985 486 986 509 986 530 c 0
 986 745 812 938 584 938 c 128
EndSplineSet
EndChar

StartChar: lh
Encoding: 3379 3379 86
Width: 1262
GlyphClass: 2
Flags: HW
LayerCount: 2
Fore
SplineSet
371 230 m 0
 207 230 102 389 102 540 c 4
 102 837 388 1013 682 1013 c 0
 911 1013 1129 894 1129 666 c 0
 1129 583 1095 520 1026 479 c 1
 1105 440 1165 360 1165 268 c 0
 1165 69 989 0 781 0 c 2
 376 0 l 2
 254 0 170 -36 170 -129 c 0
 170 -230 249 -260 361 -260 c 2
 1113 -260 l 2
 1136 -260 1148 -272 1148 -295 c 0
 1148 -313 1131 -330 1113 -330 c 2
 361 -330 l 2
 204 -330 100 -267 100 -130 c 0
 100 20 222 68 376 70 c 1
 781 70 l 2
 947 70 1094 109 1094 268 c 0
 1094 385 991 438 864 445 c 1
 828 445 l 1
 811 446 795 461 795 478 c 128
 795 496 809 514 820 514 c 2
 888 515 l 1
 986 515 1059 571 1059 665 c 0
 1059 845 880 943 682 943 c 0
 455 943 271 836 200 672 c 1
 247 706 300 722 353 722 c 0
 487 722 612 618 612 471 c 0
 612 333 509 230 371 230 c 0
354 653 m 0
 262 653 196 592 172 521 c 1
 172 520 l 1
 174 409 262 301 378 301 c 0
 479 301 541 382 541 473 c 0
 541 574 456 653 354 653 c 0
EndSplineSet
EndChar

StartChar: zh
Encoding: 3380 3380 87
Width: 1128
GlyphClass: 2
Flags: HW
LayerCount: 2
Fore
SplineSet
824 248 m 0
 824 94 675 -12 518 -12 c 0
 406 -12 320 37 255 95 c 0
 247 102 244 111 244 120 c 0
 244 138 257 156 275 156 c 128
 286 156 296 153 303 147 c 0
 352 102 429 59 518 59 c 0
 636 59 755 133 755 246 c 0
 755 292 736 338 699 384 c 1
 657 376 615 372 575 372 c 0
 335 372 100 506 100 756 c 0
 100 866 143 943 207 1003 c 0
 215 1011 224 1014 232 1014 c 0
 250 1014 266 998 266 978 c 128
 266 968 262 959 254 952 c 0
 209 910 168 836 168 756 c 0
 168 549 376 443 578 443 c 0
 598 443 618 444 639 446 c 1
 517 549 446 669 446 750 c 0
 446 907 575 1011 735 1011 c 0
 897 1011 1028 875 1028 718 c 0
 1028 554 901 447 772 403 c 0
 772 402 773 401 774 400 c 0
 808 353 824 300 824 248 c 0
958 721 m 0
 958 844 850 941 726 941 c 0
 619 941 516 853 516 746 c 0
 516 619 656 529 724 461 c 1
 845 494 958 578 958 721 c 0
EndSplineSet
EndChar

StartChar: v1
Encoding: 3381 3381 88
Width: 1748
GlyphClass: 2
Flags: HW
LayerCount: 2
Fore
SplineSet
645 1010 m 0
 944 1010 1202 769 1202 471 c 0
 1202 299 1109 151 992 70 c 1
 1576 68 l 1
 1578 977 l 2
 1578 996 1593 1012 1612 1012 c 128
 1627 1012 1648 997 1648 984 c 130
 1648 976 l 1
 1646 33 l 2
 1646 15 1629 -2 1611 -2 c 2
 839 0 l 2
 821 0 804 16 804 34 c 0
 804 53 813 64 830 69 c 0
 991 115 1132 269 1132 468 c 0
 1132 728 910 940 645 940 c 0
 387 940 171 737 171 479 c 0
 171 247 340 80 556 65 c 0
 574 64 589 48 589 29 c 128
 589 14 575 -5 561 -5 c 0
 302 -5 100 217 100 479 c 0
 100 776 350 1010 645 1010 c 0
EndSplineSet
EndChar

StartChar: z1
Encoding: 3382 3382 89
Width: 1917
GlyphClass: 2
Flags: HW
LayerCount: 2
Fore
SplineSet
486 1012 m 128
 504 1012 517 992 517 972 c 128
 517 959 510 950 495 944 c 0
 325 875 172 680 172 447 c 0
 172 249 307 56 501 56 c 0
 711 56 772 216 778 444 c 0
 784 769 977 1011 1294 1011 c 0
 1593 1011 1817 766 1817 469 c 0
 1817 230 1670 -11 1427 -11 c 0
 1211 -11 1069 164 1069 379 c 0
 1069 650 1295 834 1561 834 c 1
 1504 894 1400 940 1291 940 c 0
 1028 940 865 735 850 483 c 0
 833 197 783 -12 504 -12 c 0
 262 -12 102 208 102 450 c 0
 102 720 278 930 469 1009 c 0
 474 1011 479 1012 486 1012 c 128
1643 774 m 1
 1624 776 1605 776 1586 776 c 0
 1314 776 1139 608 1139 381 c 0
 1139 218 1255 58 1412 58 c 0
 1632 58 1740 263 1740 469 c 0
 1740 582 1707 695 1643 774 c 1
EndSplineSet
EndChar

StartChar: sh
Encoding: 3383 3383 90
Width: 1932
GlyphClass: 2
Flags: HW
LayerCount: 2
Fore
SplineSet
718 287 m 0
 718 204 677 119 628 70 c 1
 1283 70 l 1
 1286 413 l 1
 1250 406 1214 402 1177 402 c 0
 977 402 792 528 792 729 c 0
 792 883 924 1013 1090 1013 c 0
 1274 1013 1360 896 1358 709 c 2
 1356 504 l 1
 1561 576 1724 760 1763 983 c 0
 1766 999 1781 1012 1797 1012 c 0
 1816 1012 1832 996 1832 977 c 2
 1832 35 l 2
 1832 16 1816 0 1797 0 c 2
 517 0 l 2
 498 0 482 16 482 35 c 0
 482 48 491 62 503 67 c 0
 578 100 647 181 647 284 c 0
 647 418 540 523 409 523 c 0
 277 523 169 414 169 286 c 0
 169 182 237 100 314 67 c 0
 326 62 336 47 336 34 c 0
 336 15 320 -1 301 -1 c 0
 297 -1 290 0 286 2 c 0
 188 44 100 149 100 283 c 0
 100 457 236 593 409 593 c 0
 577 593 718 453 718 287 c 0
1092 942 m 0
 962 942 863 848 863 728 c 0
 863 566 1018 472 1180 472 c 0
 1215 472 1251 476 1286 484 c 1
 1288 710 l 1
 1288 854 1232 942 1092 942 c 0
1762 768 m 1
 1679 611 1533 485 1356 430 c 1
 1353 70 l 1
 1762 70 l 1
 1762 768 l 1
EndSplineSet
EndChar

StartChar: s1
Encoding: 3384 3384 91
Width: 2513
GlyphClass: 2
Flags: HW
LayerCount: 2
Fore
SplineSet
2413 480 m 0
 2413 218 2214 -8 1939 -8 c 0
 1663 -8 1510 191 1510 480 c 2
 1510 526 l 2
 1510 743 1469 943 1272 943 c 0
 1083 943 1021 720 1021 527 c 130
 1021 28 l 2
 1021 9 1005 -6 986 -6 c 128
 967 -6 951 9 951 28 c 2
 951 456 l 2
 951 733 861 942 591 942 c 0
 353 942 169 748 169 512 c 0
 169 256 362 64 622 64 c 0
 651 64 679 68 708 68 c 128
 728 68 737 51 737 36 c 128
 737 -4 681 -7 638 -7 c 0
 331 -7 100 206 100 509 c 0
 100 787 311 1012 590 1012 c 0
 787 1012 918 899 979 751 c 1
 1016 879 1115 1012 1260 1012 c 0
 1500 1012 1580 788 1580 527 c 2
 1580 504 l 2
 1580 239 1690 60 1935 60 c 0
 2180 60 2341 269 2341 489 c 0
 2341 744 2151 941 1864 941 c 128
 1851 941 1835 961 1835 976 c 128
 1835 995 1850 1011 1870 1011 c 0
 2175 1011 2413 784 2413 480 c 0
EndSplineSet
EndChar

StartChar: h1
Encoding: 3385 3385 92
Width: 2333
GlyphClass: 2
Flags: HW
LayerCount: 2
Fore
SplineSet
1715 942 m 0
 1468 942 1274 743 1274 495 c 0
 1274 275 1439 106 1624 68 c 0
 1643 64 1652 53 1652 34 c 0
 1652 16 1635 -1 1617 -1 c 2
 574 0 l 6
 553 0 539 16 539 38 c 132
 539 50 546 60 560 67 c 4
 649 106 726 201 726 322 c 0
 726 482 606 599 448 599 c 0
 291 599 170 480 170 322 c 0
 170 192 257 97 354 62 c 0
 370 57 378 47 378 34 c 128
 378 13 365 -6 347 -6 c 128
 340 -6 335 -5 331 -4 c 0
 209 40 100 157 100 320 c 0
 100 517 249 671 446 671 c 0
 641 671 796 517 796 318 c 0
 796 222 760 138 688 69 c 5
 1440 69 l 1
 1299 159 1206 299 1206 504 c 0
 1206 784 1428 1011 1719 1011 c 0
 2001 1011 2233 772 2233 488 c 0
 2233 249 2082 70 1905 -3 c 0
 1900 -5 1895 -6 1890 -6 c 128
 1871 -6 1856 7 1856 30 c 128
 1856 45 1863 55 1878 61 c 0
 2031 125 2163 280 2163 487 c 0
 2163 731 1974 942 1715 942 c 0
EndSplineSet
EndChar

StartChar: avagraha
Encoding: 3389 3389 93
Width: 1421
GlyphClass: 2
Flags: HW
LayerCount: 2
Fore
SplineSet
129 -115 m 0
 129 -135 120 -158 120 -179 c 0
 120 -304 219 -398 340 -398 c 0
 536 -398 587 -199 613 -25 c 2
 700 552 l 1
 438 552 l 2
 419 552 403 568 403 587 c 0
 403 606 419 622 438 622 c 2
 711 622 l 1
 764 973 l 2
 797 1186 876 1435 1123 1435 c 0
 1295 1435 1422 1309 1422 1135 c 0
 1422 1099 1412 1069 1382 1069 c 0
 1363 1069 1347 1085 1347 1104 c 0
 1347 1105 1348 1109 1348 1110 c 0
 1350 1122 1351 1134 1351 1145 c 0
 1351 1270 1251 1364 1124 1364 c 0
 917 1364 861 1144 833 962 c 2
 782 622 l 1
 1039 622 l 2
 1058 622 1074 606 1074 587 c 0
 1074 568 1058 552 1039 552 c 2
 771 552 l 1
 682 -35 l 2
 651 -241 580 -467 340 -467 c 0
 181 -467 50 -345 50 -181 c 0
 50 -145 53 -80 94 -80 c 0
 113 -80 129 -96 129 -115 c 0
EndSplineSet
EndChar

StartChar: a2
Encoding: 3390 3390 94
Width: 977
GlyphClass: 2
Flags: HW
LayerCount: 2
Fore
SplineSet
448 61 m 0
 667 61 808 293 808 523 c 0
 808 737 681 943 461 943 c 0
 313 943 194 826 180 689 c 0
 179 672 162 657 144 657 c 128
 129 657 110 673 110 686 c 128
 110 865 282 1012 449 1012 c 0
 700 1012 878 790 878 523 c 0
 878 257 721 -11 450 -11 c 0
 272 -11 100 136 100 322 c 128
 100 335 120 351 135 351 c 128
 154 351 169 336 170 318 c 0
 181 176 298 61 448 61 c 0
EndSplineSet
EndChar

StartChar: i1
Encoding: 3391 3391 95
Width: 340
GlyphClass: 2
Flags: HW
LayerCount: 2
Fore
SplineSet
-463 1026 m 0
 -498 1026 -501 1054 -501 1088 c 0
 -501 1276 -339 1431 -153 1431 c 0
 -87 1431 -20 1412 39 1373 c 0
 143 1304 206 1198 228 1055 c 0
 234 1014 237 954 238 876 c 2
 240 23 l 2
 240 5 224 -12 207 -12 c 128
 183 -12 170 2 170 23 c 2
 168 876 l 2
 168 1026 161 1105 107 1201 c 128
 60 1284 -37 1361 -153 1361 c 0
 -312 1361 -431 1232 -431 1085 c 0
 -431 1082 -431 1079 -431 1076 c 0
 -431 1047 -432 1026 -463 1026 c 0
EndSplineSet
EndChar

StartChar: i2
Encoding: 3392 3392 96
Width: 398
GlyphClass: 2
Flags: HW
LayerCount: 2
Fore
SplineSet
262 -11 m 128
 244 -11 225 2 225 14 c 2
 225 25 l 1
 227 1046 l 2
 227 1215 161 1307 -3 1307 c 0
 -18 1307 -34 1306 -50 1304 c 1
 -5 1275 29 1220 29 1160 c 0
 29 1066 -47 992 -140 992 c 0
 -236 992 -307 1064 -307 1160 c 0
 -307 1290 -168 1375 -10 1375 c 0
 194 1375 297 1264 297 1059 c 2
 297 1046 l 1
 295 25 l 1
 295 24 l 2
 295 7 279 -11 262 -11 c 128
-41 1162 m 0
 -41 1216 -88 1261 -142 1261 c 0
 -201 1261 -235 1204 -235 1157 c 0
 -235 1107 -200 1061 -140 1061 c 0
 -85 1061 -41 1107 -41 1162 c 0
EndSplineSet
EndChar

StartChar: u1
Encoding: 3393 3393 97
Width: 733
GlyphClass: 2
Flags: HW
LayerCount: 2
Fore
SplineSet
367 -545 m 4
 213 -545 102 -421 102 -280 c 4
 102 -183 156 -92 240 -46 c 5
 322 104 465 372 465 584 c 4
 465 796 366 911 182 946 c 4
 163 950 154 964 154 979 c 4
 154 997 166 1015 187 1015 c 4
 403 1015 535 808 535 592 c 4
 535 436 468 237 336 -16 c 5
 347 -15 356 -14 367 -14 c 4
 511 -14 633 -127 633 -281 c 4
 633 -432 514 -545 367 -545 c 4
563 -281 m 4
 563 -173 473 -81 367 -81 c 4
 253 -81 171 -174 171 -279 c 4
 171 -385 256 -476 368 -476 c 4
 472 -476 563 -390 563 -281 c 4
EndSplineSet
EndChar

StartChar: u2
Encoding: 3394 3394 98
Width: 1029
GlyphClass: 2
Flags: HW
LayerCount: 2
Fore
SplineSet
443 -857 m 4
 679 -857 859 -681 859 -439 c 4
 859 -243 710 -69 522 -51 c 5
 608 -93 684 -193 684 -311 c 4
 684 -472 556 -601 393 -601 c 4
 232 -601 100 -469 100 -312 c 4
 100 -185 169 -97 256 -50 c 5
 336 129 475 385 475 592 c 4
 475 777 376 911 226 942 c 4
 207 945 197 957 197 977 c 4
 197 994 213 1011 232 1011 c 4
 234 1011 237 1011 239 1010 c 4
 422 973 546 809 546 589 c 4
 546 408 432 163 355 -1 c 5
 401 15 445 22 490 22 c 4
 735 22 929 -188 929 -441 c 4
 929 -720 719 -927 447 -927 c 4
 328 -927 236 -890 160 -836 c 4
 150 -829 145 -821 145 -810 c 132
 145 -790 160 -772 179 -772 c 132
 188 -772 195 -774 201 -779 c 4
 262 -822 346 -857 443 -857 c 4
269 -130 m 5
 221 -173 168 -237 168 -318 c 4
 168 -439 278 -531 392 -531 c 4
 519 -531 614 -433 614 -309 c 4
 614 -186 509 -90 393 -90 c 4
 352 -90 309 -102 269 -130 c 5
EndSplineSet
EndChar

StartChar: r1
Encoding: 3395 3395 99
Width: 430
GlyphClass: 2
Flags: HW
LayerCount: 2
Fore
SplineSet
33 962 m 4
 29 968 28 974 28 980 c 4
 28 1000 46 1015 65 1015 c 4
 76 1015 87 1009 94 997 c 4
 241 742 331 473 331 142 c 4
 331 -273 113 -610 -312 -610 c 4
 -501 -610 -683 -555 -683 -372 c 4
 -683 -198 -499 -128 -336 -128 c 4
 -167 -128 30 -195 30 -376 c 4
 30 -393 27 -411 22 -429 c 5
 181 -313 261 -111 261 143 c 4
 261 459 174 719 33 962 c 4
-333 -198 m 4
 -461 -198 -614 -241 -614 -372 c 4
 -614 -495 -472 -539 -345 -539 c 4
 -207 -539 -41 -510 -41 -375 c 4
 -41 -241 -202 -198 -333 -198 c 4
EndSplineSet
EndChar

StartChar: e1
Encoding: 3398 3398 100
Width: 1419
GlyphClass: 2
Flags: HW
LayerCount: 2
Fore
SplineSet
178 520 m 1
 236 615 345 692 478 692 c 128
 690 692 843 531 843 341 c 0
 843 131 677 -13 494 -13 c 0
 255 -13 100 199 100 440 c 0
 100 770 375 1014 700 1014 c 0
 1048 1014 1320 766 1320 418 c 0
 1320 260 1257 111 1161 4 c 0
 1154 -4 1146 -8 1136 -8 c 128
 1117 -8 1100 8 1100 27 c 128
 1100 36 1103 44 1109 51 c 0
 1195 146 1249 277 1249 417 c 0
 1249 721 1012 944 710 944 c 0
 435 944 219 760 179 524 c 0
 178 522 178 521 178 520 c 1
480 622 m 128
 319 622 195 494 195 330 c 0
 195 187 342 56 494 56 c 0
 652 56 772 180 772 339 c 0
 772 505 647 622 480 622 c 128
EndSplineSet
EndChar

StartChar: e2
Encoding: 3399 3399 101
Width: 1010
GlyphClass: 2
Flags: HW
LayerCount: 2
Fore
SplineSet
910 229 m 0
 910 79 773 -12 623 -12 c 0
 329 -12 100 225 100 521 c 0
 100 798 305 1013 584 1013 c 0
 746 1013 894 924 894 764 c 4
 894 655 806 570 692 570 c 0
 577 570 487 665 487 781 c 0
 487 849 521 907 561 942 c 1
 336 929 170 757 170 522 c 0
 170 275 343 109 550 66 c 1
 513 103 486 159 486 221 c 0
 486 343 578 436 701 436 c 0
 824 436 910 338 910 229 c 0
824 765 m 0
 824 848 761 899 697 923 c 1
 620 922 557 862 557 783 c 0
 557 707 614 640 693 640 c 0
 767 640 824 694 824 765 c 0
702 73 m 0
 780 73 840 171 840 234 c 0
 840 302 778 365 699 365 c 0
 618 365 555 301 555 221 c 0
 555 138 620 73 702 73 c 0
EndSplineSet
EndChar

StartChar: xx
Encoding: 3405 3405 106
Width: 142
GlyphClass: 4
Flags: HW
LayerCount: 2
Fore
SplineSet
-273 1333 m 0
 -273 1369 -270 1430 -230 1430 c 0
 -211 1430 -195 1414 -195 1395 c 0
 -195 1373 -203 1350 -203 1330 c 0
 -203 1243 -150 1177 -90 1144 c 128
 -58 1127 -23 1117 13 1117 c 0
 41 1117 70 1123 98 1135 c 128
 165 1164 230 1233 230 1329 c 0
 230 1348 223 1370 223 1391 c 0
 223 1410 239 1426 258 1426 c 0
 291 1426 300 1387 300 1345 c 0
 300 1203 225 1112 126 1070 c 128
 89 1054 52 1048 16 1048 c 0
 -84 1048 -172 1101 -218 1164 c 128
 -249 1207 -273 1266 -273 1333 c 0
EndSplineSet
EndChar

StartChar: dotreph
Encoding: 3406 3406 107
Width: 0
GlyphClass: 4
Flags: HW
LayerCount: 2
Fore
SplineSet
0 1284 m 4
 0 1322 32 1354 70 1354 c 4
 108 1354 139 1322 139 1284 c 4
 139 1246 108 1215 70 1215 c 4
 32 1215 0 1246 0 1284 c 4
EndSplineSet
EndChar

StartChar: au2
Encoding: 3415 3415 108
Width: 1584
GlyphClass: 2
Flags: HW
LayerCount: 2
Fore
SplineSet
455 1014 m 0
 617 1014 722 915 763 787 c 5
 811 882 884 948 983 983 c 4
 1025 998 1065 1004 1104 1004 c 0
 1244 1004 1360 918 1418 826 c 4
 1464 753 1484 675 1484 597 c 0
 1484 463 1425 332 1342 242 c 132
 1215 105 1010 0 759 0 c 0
 631 0 518 25 408 75 c 4
 394 81 387 90 387 103 c 132
 387 124 399 142 418 142 c 132
 426 142 432 141 437 139 c 4
 542 91 652 69 759 69 c 0
 1076 69 1363 261 1408 527 c 4
 1412 549 1413 571 1413 592 c 0
 1413 719 1351 826 1264 884 c 132
 1218 915 1165 934 1106 934 c 0
 1074 934 1041 928 1006 916 c 132
 878 871 794 757 787 603 c 5
 787 595 l 134
 787 566 783 535 754 535 c 132
 720 535 715 558 715 590 c 0
 715 604 716 621 716 638 c 0
 716 815 616 943 457 943 c 0
 342 943 252 877 208 801 c 132
 184 759 171 708 171 655 c 0
 171 616 178 577 194 541 c 4
 196 536 197 531 197 526 c 0
 197 508 183 491 165 491 c 4
 148 491 136 498 131 513 c 4
 110 559 100 608 100 657 c 0
 100 721 117 784 148 836 c 132
 203 931 320 1014 455 1014 c 0
EndSplineSet
EndChar

StartChar: datemark
Encoding: 3449 3449 109
Width: 2465
GlyphClass: 2
Flags: HW
LayerCount: 2
Fore
SplineSet
776 46 m 132
 776 3 654 1 617 1 c 0
 503 1 401 39 324 91 c 132
 203 174 100 330 100 514 c 0
 100 568 108 624 128 681 c 132
 178 827 281 932 419 991 c 132
 480 1017 542 1030 607 1030 c 0
 830 1030 991 908 1054 719 c 5
 1118 894 1285 1026 1519 1026 c 0
 1790 1026 1979 846 2048 638 c 5
 2330 633 l 6
 2349 633 2365 617 2365 598 c 132
 2365 583 2351 563 2338 563 c 134
 2329 563 l 5
 2067 567 l 5
 2074 530 2078 495 2078 460 c 0
 2078 320 2023 195 1948 116 c 132
 1891 56 1797 0 1687 -0 c 0
 1536 0 1429 90 1386 201 c 132
 1372 237 1365 274 1365 312 c 0
 1365 451 1438 538 1556 591 c 4
 1630 624 1739 641 1883 641 c 0
 1912 641 1941 640 1973 639 c 5
 1915 790 1795 901 1634 942 c 132
 1591 953 1549 958 1510 958 c 0
 1481 958 1454 955 1427 949 c 4
 1240 907 1131 795 1098 614 c 4
 1091 575 1088 519 1087 444 c 6
 1084 34 l 5
 1084 33 l 6
 1084 14 1067 -1 1048 -1 c 132
 1029 -1 1014 14 1014 33 c 6
 1016 443 l 6
 1016 451 1016 459 1016 467 c 0
 1016 618 1002 702 938 796 c 132
 873 891 751 959 613 959 c 0
 561 959 506 950 452 928 c 132
 330 879 238 785 194 658 c 132
 177 609 170 561 170 515 c 0
 170 356 260 219 363 148 c 132
 428 103 519 71 617 71 c 0
 654 71 692 75 731 86 c 4
 734 87 740 87 746 87 c 132
 764 87 776 68 776 46 c 132
1974 569 m 6
 1947 569 1922 570 1898 570 c 0
 1812 570 1749 567 1711 561 c 4
 1558 539 1435 470 1435 309 c 0
 1435 230 1476 165 1523 127 c 132
 1565 93 1621 71 1684 71 c 0
 1714 71 1744 76 1776 87 c 132
 1916 137 2007 282 2007 456 c 0
 2007 493 2003 531 1995 569 c 5
 1974 569 l 6
EndSplineSet
EndChar

StartChar: ZWNJ
Encoding: 8204 8204 110
Width: 270
GlyphClass: 2
Flags: HW
LayerCount: 2
Fore
SplineSet
100 1032 m 1
 170 1032 l 1
 170 43 l 1
 100 43 l 1
 100 1032 l 1
EndSplineSet
EndChar

StartChar: ZWJ
Encoding: 8205 8205 111
Width: 281
GlyphClass: 2
Flags: HW
LayerCount: 2
Fore
SplineSet
140 1157 m 1
 61 1003 l 1
 0 1003 l 1
 110 1204 l 1
 8 1387 l 1
 73 1387 l 1
 119 1298 l 2
 123 1291 129 1276 139 1254 c 1
 212 1387 l 1
 276 1387 l 1
 171 1207 l 1
 281 1003 l 1
 220 1003 l 1
 140 1157 l 1
106 930 m 1
 166 930 l 1
 166 -12 l 1
 106 -12 l 1
 106 930 l 1
EndSplineSet
EndChar

StartChar: rupee
Encoding: 8377 8377 112
Width: 1231
GlyphClass: 2
Flags: HW
LayerCount: 2
Fore
SplineSet
135 1246 m 0
 135 1261 150 1276 165 1276 c 2
 1059 1273 l 2
 1074 1273 1089 1258 1089 1242 c 0
 1089 1227 1075 1213 1061 1213 c 2
 1059 1213 l 1
 663 1215 l 1
 734 1152 774 1084 774 980 c 0
 774 956 772 930 767 901 c 1
 832 901 l 2
 910 901 988 901 1067 900 c 0
 1083 900 1097 885 1097 870 c 0
 1097 855 1082 840 1067 840 c 0
 973 841 879 841 784 841 c 2
 746 841 l 1
 662 666 526 559 329 484 c 1
 869 55 l 2
 879 46 880 42 880 35 c 0
 880 18 862 0 849 0 c 0
 845 0 840 2 832 8 c 2
 240 477 l 2
 233 483 230 490 230 499 c 0
 230 516 241 528 254 530 c 0
 459 565 586 695 684 842 c 1
 514 843 343 843 173 843 c 0
 158 843 143 858 143 874 c 0
 143 889 156 903 171 903 c 2
 173 903 l 1
 704 902 l 1
 710 930 713 957 713 983 c 0
 713 1105 646 1197 526 1214 c 1
 165 1216 l 2
 149 1216 135 1231 135 1246 c 0
EndSplineSet
EndChar

StartChar: uni25CC
Encoding: 9676 9676 113
Width: 1131
GlyphClass: 2
Flags: HW
LayerCount: 2
Fore
SplineSet
940 759 m 1
 911 801 881 834 847 856 c 1
 876 896 l 1
 919 867 941 849 959 831 c 1
 961 830 l 1
 973 815 983 803 990 793 c 1
 940 759 l 1
646 990 m 1
 637 937 l 1
 608 941 587 942 568 942 c 0
 549 942 526 941 499 937 c 1
 490 990 l 1
 521 996 548 998 570 998 c 0
 592 998 617 996 646 990 c 1
1071 590 m 1
 1076 564 1077 542 1077 518 c 0
 1077 494 1074 470 1070 445 c 1
 1011 455 l 1
 1014 480 1016 498 1016 514 c 0
 1016 530 1014 553 1011 580 c 1
 1071 590 l 1
988 242 m 1
 962 207 949 188 930 169 c 1
 923 165 903 152 877 137 c 1
 844 182 l 1
 878 204 903 220 917 240 c 0
 926 254 935 266 941 275 c 1
 988 242 l 1
296 853 m 1
 259 830 235 813 222 789 c 1
 202 759 l 1
 153 793 l 1
 178 827 196 849 209 861 c 1
 216 866 235 879 262 897 c 1
 296 853 l 1
127 454 m 1
 70 445 l 1
 66 470 65 493 65 517 c 0
 65 541 66 566 70 590 c 1
 127 581 l 1
 124 561 123 541 123 518 c 0
 123 495 124 472 127 454 c 1
646 45 m 1
 623 41 600 39 571 39 c 0
 541 39 514 41 490 45 c 1
 499 98 l 1
 529 94 549 93 568 93 c 0
 586 93 609 94 637 98 c 1
 646 45 l 1
262 138 m 1
 203 177 194 186 175 210 c 1
 174 210 l 1
 153 241 l 1
 202 276 l 1
 238 221 253 209 296 183 c 1
 262 138 l 1
EndSplineSet
EndChar

StartChar: r4
Encoding: 65539 -1 114
Width: 623
GlyphClass: 2
LigCaretCntFixed: 1
Flags: HW
LayerCount: 2
Fore
SplineSet
490 -265 m 4
 512 -265 523 -282 523 -299 c 0
 523 -317 512 -335 490 -335 c 0
 375 -335 226 -293 175 -231 c 4
 125 -171 100 -73 100 61 c 0
 100 141 109 235 127 342 c 4
 153 495 213 803 239 934 c 4
 242 953 254 962 275 963 c 4
 297 963 307 948 307 925 c 0
 307 919 305 911 304 904 c 132
 281 788 220 473 196 329 c 132
 178 220 169 122 169 36 c 0
 169 -62 187 -137 229 -186 c 4
 271 -237 396 -262 490 -265 c 4
EndSplineSet
LCarets2: 1 0
EndChar

StartChar: y2
Encoding: 65540 -1 115
Width: 618
GlyphClass: 2
LigCaretCntFixed: 1
Flags: HW
LayerCount: 2
Fore
SplineSet
70 21 m 132
 89 21 103 3 103 -17 c 132
 103 -29 96 -39 82 -47 c 132
 21 -84 -28 -160 -28 -245 c 0
 -28 -281 -19 -317 0 -354 c 4
 36 -422 116 -484 216 -484 c 0
 321 -484 396 -429 440 -360 c 4
 471 -312 487 -261 487 -205 c 0
 487 -85 427 6 367 98 c 132
 294 209 280 226 218 339 c 132
 158 448 110 566 110 743 c 0
 110 820 120 893 142 966 c 4
 147 983 156 992 170 992 c 4
 197 992 211 980 211 957 c 4
 211 953 210 950 209 947 c 4
 188 877 178 808 178 740 c 0
 178 416 420 185 518 -27 c 132
 544 -83 557 -142 557 -201 c 0
 557 -270 539 -338 499 -399 c 132
 448 -478 345 -554 220 -554 c 0
 184 -554 145 -548 105 -533 c 4
 0 -494 -98 -386 -98 -247 c 0
 -98 -122 -36 -36 49 16 c 4
 55 20 62 21 70 21 c 132
EndSplineSet
LCarets2: 1 3
EndChar

StartChar: v2
Encoding: 65543 -1 118
Width: 399
GlyphClass: 3
LigCaretCntFixed: 1
Flags: HW
LayerCount: 2
Fore
SplineSet
225 1014 m 4
 225 1033 239 1049 259 1049 c 6
 260 1049 l 6
 279 1049 295 1033 295 1014 c 6
 299 -251 l 6
 299 -271 285 -286 264 -286 c 6
 -268 -286 l 6
 -287 -286 -303 -270 -303 -251 c 4
 -303 -231 -287 -216 -268 -216 c 6
 229 -221 l 5
 225 1008 l 6
 225 1010 225 1012 225 1014 c 4
EndSplineSet
LCarets2: 1 0
EndChar

StartChar: k1cil
Encoding: 3455 3455 119
Width: 1998
GlyphClass: 3
Flags: HW
LayerCount: 2
Fore
SplineSet
1374 248 m 5
 1310 118 1186 2 1006 2 c 0
 851 2 733 95 667 198 c 5
 630 90 531 -2 389 -2 c 0
 234 -2 101 120 101 275 c 0
 101 352 134 427 187 480 c 132
 284 576 406 614 596 620 c 5
 613 713 644 788 689 845 c 4
 779 958 884 1015 1007 1015 c 0
 1065 1015 1121 1002 1173 975 c 4
 1283 919 1359 826 1400 696 c 5
 1420 752 1494 889 1519 932 c 4
 1573 1033 1600 1118 1600 1187 c 0
 1600 1286 1551 1369 1493 1417 c 4
 1485 1424 1481 1433 1481 1443 c 0
 1481 1461 1494 1479 1515 1479 c 4
 1539 1479 1570 1450 1608 1392 c 4
 1650 1328 1672 1260 1672 1188 c 0
 1672 1143 1663 1097 1647 1049 c 4
 1597 902 1488 768 1450 620 c 5
 1609 607 1728 556 1809 469 c 4
 1863 410 1898 332 1898 251 c 0
 1898 197 1883 142 1848 92 c 132
 1801 25 1743 -8 1655 -8 c 0
 1604 -8 1558 5 1517 33 c 4
 1445 82 1397 153 1374 248 c 5
1347 625 m 5
 1317 760 1245 861 1144 912 c 4
 1098 935 1052 947 1007 947 c 0
 960 947 913 934 866 909 c 4
 768 856 695 756 667 622 c 5
 703 622 l 5
 1272 625 l 5
 1347 625 l 5
1358 554 m 5
 1335 555 1307 555 1272 555 c 6
 704 552 l 5
 657 552 l 5
 656 535 655 518 655 501 c 0
 655 328 731 188 848 116 c 132
 896 87 950 72 1005 72 c 0
 1054 72 1104 84 1150 108 c 132
 1279 176 1360 325 1360 503 c 0
 1360 520 1359 537 1358 554 c 5
1437 551 m 5
 1430 499 1426 450 1426 406 c 0
 1426 255 1468 151 1551 95 c 4
 1586 71 1621 61 1654 61 c 0
 1752 61 1828 153 1828 253 c 0
 1828 322 1801 374 1760 419 c 4
 1689 496 1582 540 1437 551 c 5
613 296 m 2
 613 314 l 5
 594 372 585 434 585 499 c 0
 585 516 586 533 587 550 c 5
 428 543 315 507 248 441 c 132
 197 390 171 336 171 279 c 0
 171 160 265 69 386 69 c 0
 494 69 562 126 596 209 c 4
 612 248 613 268 613 296 c 2
EndSplineSet
EndChar

StartChar: nhcil
Encoding: 3450 3450 120
Width: 2861
GlyphClass: 2
Flags: HW
LayerCount: 2
Fore
SplineSet
643 1012 m 0
 859 1012 1007 876 1070 711 c 1
 1117.88964844 862.150390625 1240.11035156 1013 1427 1013 c 128
 1614.58203125 1013 1734.56347656 859.776367188 1783 713 c 1
 1838 860 1977 1013 2184 1013 c 0
 2226 1013 2271 1007 2318 995 c 1
 2319 1006 2319 1017 2319 1028 c 0
 2319 1166 2240 1255 2152 1308 c 0
 2141 1315 2135 1323 2135 1332 c 0
 2135 1359 2145 1372 2164 1373 c 0
 2174 1373 2182 1371 2188 1368 c 0
 2293 1305 2390 1195 2390 1029 c 0
 2390 1011 2388 992 2386 973 c 1
 2594.02050781 889.3515625 2761 664.387695312 2761 386 c 0
 2761 182.157226562 2641.35058594 -12 2434 -12 c 0
 2242.17675781 -12 2115 161.041015625 2115 347 c 0
 2115 575.7109375 2258.95019531 733.987304688 2306 926 c 1
 2265 937 2226 943 2188 943 c 0
 1910.71484375 943 1818 722.884765625 1818 433 c 1
 1820 22 l 2
 1820 4 1803 -13 1785 -13 c 128
 1766.37304688 -13 1750 2.294921875 1750 22 c 2
 1747 429 l 2
 1745.328125 688.150390625 1679.51074219 943 1427 943 c 128
 1171.96679688 943 1109 691.614257812 1109 424 c 1
 1112 22 l 2
 1112 4 1095 -13 1077 -13 c 128
 1059 -13 1042 2 1042 21 c 2
 1039 422 l 2
 1037.31640625 713.181640625 935.010742188 940 651 940 c 0
 377.787109375 940 169 694.934570312 169 433 c 0
 169 419 170 405 171 390 c 1
 211 497 310 587 453 587 c 0
 623 587 756 454 756 290 c 0
 756 127.635742188 630.432617188 1 465 1 c 0
 239.317382812 1 100 199.297851562 100 428 c 0
 100 734 335 1012 643 1012 c 0
2188 344 m 0
 2188 189 2297 57 2433 57 c 0
 2599.44140625 57 2691 219.083984375 2691 385 c 0
 2691 625.576171875 2550.38574219 825.021484375 2373 902 c 1
 2323.12109375 703.731445312 2188 574.422851562 2188 344 c 0
458 518 m 0
 324 518 221 412 221 284 c 0
 221 146.470703125 341.840820312 71 464 71 c 0
 590 71 686 166 686 291 c 0
 686 412 585 518 458 518 c 0
EndSplineSet
LCarets2: 2 0 0
EndChar

StartChar: n1cil
Encoding: 3451 3451 121
Width: 2199
GlyphClass: 2
Flags: HW
LayerCount: 2
Fore
SplineSet
602 60 m 4
 628 60 654 67 679 67 c 4
 697 67 713 48 713 32 c 4
 713 11 703 -1 683 -4 c 4
 655 -9 628 -11 601 -11 c 4
 314 -11 100 225 100 509 c 4
 100 796 320 1010 607 1010 c 4
 821 1010 993 865 1052 699 c 5
 1120 854 1302 1016 1540 1016 c 4
 1564 1016 1587 1014 1612 1011 c 5
 1615 1032 1616 1054 1616 1074 c 4
 1616 1195 1566 1292 1497 1362 c 4
 1490 1369 1487 1377 1487 1387 c 132
 1487 1406 1502 1422 1522 1422 c 132
 1532 1422 1540 1418 1547 1411 c 4
 1627 1330 1687 1216 1687 1075 c 4
 1687 1050 1685 1024 1681 998 c 5
 1909 940 2099 740 2099 456 c 4
 2099 227 1953 -11 1716 -11 c 4
 1514 -11 1358 173 1358 375 c 4
 1358 585 1539 762 1596 943 c 5
 1580 945 1564 946 1549 946 c 4
 1252 946 1087 740 1085 447 c 6
 1082 28 l 6
 1082 9 1065 -6 1047 -6 c 132
 1029 -6 1012 9 1012 28 c 6
 1013 464 l 6
 1013 739 873 940 609 940 c 4
 353 940 171 753 171 508 c 4
 171 263 355 60 602 60 c 4
1428 371 m 4
 1428 218 1557 58 1708 58 c 4
 1908 58 2029 261 2029 454 c 4
 2029 680 1876 874 1666 930 c 5
 1618 771 1428 565 1428 371 c 4
EndSplineSet
LCarets2: 2 0 0
EndChar

StartChar: l3cil
Encoding: 3453 3453 122
Width: 2082
GlyphClass: 3
Flags: HW
LayerCount: 2
Fore
SplineSet
556 386 m 0
 556 620 689 791 835 891 c 1
 766 921 698 941 634 941 c 0
 382.608398438 941 170 730.99944238 170 465 c 0
 170 280 280 127 405 55 c 4
 417 48 423 39 423 27 c 132
 423 7 410 -10 391 -10 c 132
 383 -10 376 -9 370 -6 c 4
 226 77 100 252 100 464 c 0
 100 775.138973663 352.704101562 1011 639 1011 c 0
 726 1011 817 983 907 934 c 1
 1014 990 1137 1013 1261 1013 c 0
 1374 1013 1487 995 1591 946 c 1
 1602 987 1607 1024 1607 1060 c 0
 1607 1196 1511 1310 1385 1334 c 0
 1366 1337 1356 1349 1356 1370 c 0
 1356 1389 1376 1408 1398 1403 c 0
 1556 1373 1678 1232 1678 1063 c 0
 1678 1016 1670 966 1654 912 c 1
 1828.27659644 807.656050539 1982 620.090543586 1982 363 c 0
 1982 172.972040622 1868.88183594 -9 1675 -9 c 0
 1489.94335938 -9 1372 162.549607283 1372 347 c 0
 1372 531.759664173 1513.7367638 738.078747681 1569 879 c 1
 1472 926 1366 943 1261 943 c 0
 1163 943 1065 929 977 890 c 1
 1114.3916974 786.956226948 1220 614.714834473 1220 387 c 0
 1220 188.818415333 1091.5390625 -9 886 -9 c 0
 677.596679688 -9 556 183.558251026 556 386 c 0
906 853 m 1
 755.158183823 763.562816957 627 609.896202077 627 384 c 0
 627 222.415112021 723.375 58 887 58 c 0
 1049.53515625 58 1150 231.241473911 1150 392 c 0
 1150 601.927764409 1052.36388002 758.765721086 906 853 c 1
1630 845 m 1
 1570 697 1443 511 1443 349 c 0
 1443 203.839644658 1527.99902344 61 1676 61 c 0
 1826.5390625 61 1914 215.661785754 1914 362 c 0
 1914 582.002650855 1784.73318697 747.002314919 1630 845 c 1
EndSplineSet
LCarets2: 2 0 0
EndChar

StartChar: lhcil
Encoding: 3454 3454 123
Width: 1957
GlyphClass: 3
Flags: HW
LayerCount: 2
Fore
SplineSet
1244 1392 m 128
 1244 1410 1261 1426 1279 1426 c 0
 1290 1426 1299 1422 1306 1413 c 0
 1380 1325 1417 1226 1417 1117 c 0
 1417 1076 1411 1033 1401 989 c 1
 1656 953 1857 723 1857 430 c 0
 1857 207 1722 -10 1493 -10 c 0
 1272 -10 1134 190 1134 413 c 0
 1134 611 1251 769 1308 923 c 1
 742 922 1054 -8 512 -10 c 0
 265.001681605 -10.9114329092 99 219 99 466 c 0
 99 744 303 954 534 1008 c 0
 537 1009 542 1009 548 1009 c 128
 562 1009 578 991 578 976 c 0
 578 956 569 944 550 940 c 0
 344 893 172 710 172 467 c 0
 172 262 303 58 506 58 c 0
 992.44653263 58 677.954775471 993.305281882 1330 994 c 1
 1341 1036 1346 1076 1346 1115 c 0
 1346 1208 1315 1293 1252 1368 c 0
 1247 1375 1244 1383 1244 1392 c 128
1382 921 m 1
 1329 764 1205 605 1205 410 c 0
 1205 228 1307 60 1492 60 c 0
 1680 60 1787 246 1787 430 c 0
 1787 687 1610 893 1382 921 c 1
EndSplineSet
LCarets2: 2 0 0
EndChar

StartChar: r3cil
Encoding: 3452 3452 124
Width: 1423
GlyphClass: 3
Flags: HW
LayerCount: 2
Fore
SplineSet
840 1387 m 0
 836 1393 834 1399 834 1405 c 0
 834 1423 851 1440 872 1440 c 128
 883 1440 893 1435 900 1424 c 0
 945 1352 967 1276 967 1197 c 0
 967 1126 949 1053 913 977 c 1
 1123 908 1323 680 1323 412 c 0
 1323 186 1174 -14 935 -14 c 0
 714 -14 557 160 557 380 c 0
 557 606 720 789 808 931 c 1
 774 937 740 940 705 940 c 0
 418 940 170 733 170 438 c 0
 170 253 289 109 425 50 c 0
 439 44 446 31 446 17 c 0
 446 0 435 -18 415 -18 c 128
 408 -18 402 -17 397 -14 c 0
 239 55 100 221 100 436 c 0
 100 761 379 1011 702 1011 c 0
 750 1011 797 1005 844 995 c 1
 879 1065 897 1132 897 1196 c 0
 897 1263 878 1326 840 1387 c 0
880 914 m 1
 800 777 627 588 627 384 c 0
 627 200 755 54 937 54 c 0
 1124 54 1254 222 1254 410 c 0
 1254 656 1084 850 880 914 c 1
EndSplineSet
LCarets2: 2 0 0
EndChar

StartChar: k1u1
Encoding: 65544 -1 125
Width: 1907
GlyphClass: 3
LigCaretCntFixed: 1
Flags: HW
LayerCount: 2
Fore
SplineSet
1578 236 m 0
 1546 236 1518 243 1518 274 c 128
 1518 299 1538 310 1566 310 c 0
 1651 310 1737 338 1737 412 c 0
 1737 530 1591 550 1460 550 c 1
 1394 548 l 1
 1396 529 1396 511 1396 493 c 0
 1396 242 1243 -13 982 -13 c 0
 830 -13 715 98 653 195 c 1
 616 89 520 2 381 2 c 0
 226 2 100 117 100 272 c 0
 100 511 338 601 582 609 c 1
 620 814 758 1012 983 1012 c 0
 1205 1012 1345 818 1384 618 c 1
 1469 620 l 1
 1639 620 1806 564 1806 416 c 0
 1806 347 1773 306 1724 275 c 1
 1770 249 1807 206 1807 142 c 0
 1807 35 1694 -15 1587 -15 c 0
 1553 -15 1463 -11 1463 28 c 128
 1463 49 1475 69 1493 69 c 128
 1500 69 1505 68 1509 67 c 0
 1538 57 1566 54 1591 54 c 0
 1670 54 1738 99 1738 145 c 0
 1738 215 1648 236 1578 236 c 0
1313 616 m 1
 1277 778 1167 941 983 941 c 0
 799 941 689 775 654 611 c 1
 1313 616 l 1
1324 546 m 1
 643 540 l 1
 642 523 641 507 641 491 c 0
 641 279 765 57 982 57 c 0
 1201 57 1326 282 1326 493 c 0
 1326 510 1326 528 1324 546 c 1
599 310 m 1
 581 367 571 427 571 490 c 0
 571 506 572 522 573 539 c 1
 370 530 168 457 168 278 c 0
 168 157 263 71 381 71 c 0
 513 71 599 177 599 310 c 1
EndSplineSet
LCarets2: 1 0
EndChar

StartChar: k1u2
Encoding: 65545 -1 126
Width: 1951
GlyphClass: 3
LigCaretCntFixed: 1
Flags: HW
LayerCount: 2
Fore
SplineSet
176 -364 m 0
 176 -475 273 -523 431 -524 c 5
 503 -524 l 5
 1816 -504 l 6
 1835 -504 1852 -517 1852 -538 c 132
 1852 -557 1836 -573 1817 -573 c 6
 504 -594 l 5
 425 -594 l 2
 259 -594 106 -524 106 -363 c 0
 106 -327 117 -292 139 -260 c 4
 209 -157 321 -130 498 -128 c 6
 1523 -119 l 6
 1597 -118 1648 -109 1677 -91 c 4
 1735 -54 1765 -11 1765 54 c 0
 1765 153 1691 226 1600 237 c 4
 1592 237 1586 236 1579 236 c 0
 1542 236 1522 244 1522 273 c 4
 1522 297 1541 308 1578 308 c 0
 1585 308 1593 308 1601 307 c 5
 1672 312 1740 345 1740 415 c 0
 1740 495 1646 538 1570 546 c 132
 1535 550 1496 552 1452 552 c 0
 1434 552 1416 552 1397 551 c 5
 1399 531 1400 512 1400 493 c 0
 1400 288 1304 123 1158 44 c 132
 1103 14 1044 1 986 1 c 0
 838 1 717 91 657 189 c 4
 656 190 656 191 655 191 c 4
 617 80 508 -3 382 -3 c 0
 228 -3 102 116 102 270 c 0
 102 346 133 419 185 471 c 4
 272 558 405 604 584 611 c 5
 601 702 631 776 675 832 c 4
 763 944 866 1001 989 1001 c 0
 1106 1001 1208 946 1295 837 c 4
 1340 782 1371 710 1388 621 c 5
 1414 622 1441 623 1466 623 c 0
 1570 623 1662 612 1722 567 c 4
 1781 522 1811 471 1811 416 c 0
 1811 345 1775 300 1718 268 c 5
 1785 225 1834 146 1834 50 c 0
 1834 -111 1706 -188 1524 -189 c 6
 498 -198 l 6
 396 -199 325 -208 286 -227 c 132
 233 -252 176 -297 176 -364 c 0
1317 618 m 5
 1289 750 1218 847 1120 898 c 4
 1076 921 1031 932 987 932 c 0
 941 932 894 920 848 895 c 4
 752 844 683 744 656 613 c 5
 690 613 l 5
 1245 616 l 6
 1264 616 1288 617 1317 618 c 5
1327 548 m 5
 1294 547 1267 546 1245 546 c 6
 690 543 l 5
 646 543 l 5
 644 525 644 508 644 491 c 0
 644 322 715 184 830 114 c 132
 877 85 932 70 986 70 c 0
 1033 70 1081 82 1126 106 c 132
 1251 174 1329 320 1329 494 c 0
 1329 512 1329 530 1327 548 c 5
603 274 m 0
 603 288 601 306 601 306 c 133
 601 308 l 5
 582 365 573 427 573 491 c 0
 573 508 574 524 575 541 c 5
 420 534 311 499 246 434 c 132
 197 385 171 326 171 269 c 0
 171 156 270 66 388 66 c 0
 475 66 556 130 586 206 c 132
 597 235 603 257 603 274 c 0
EndSplineSet
LCarets2: 1 0
EndChar

StartChar: k1r1
Encoding: 65546 -1 127
Width: 1912
GlyphClass: 3
LigCaretCntFixed: 1
Flags: HW
LayerCount: 2
Fore
SplineSet
995 -7 m 0
 838 -7 724 86 659 187 c 1
 643 141 616 98 579 65 c 0
 523 14 453 -9 385 -9 c 0
 295 -9 207 31 154 102 c 0
 116 152 100 208 100 262 c 0
 100 341 135 418 189 472 c 0
 280 563 426 601 588 606 c 1
 615 754 701 887 823 952 c 0
 877 981 936 995 995 995 c 0
 1052 995 1109 982 1162 955 c 0
 1288 891 1375 757 1403 606 c 1
 1545 597 1646 542 1716 452 c 0
 1781 368 1812 264 1812 159 c 0
 1812 137 1811 115 1808 94 c 0
 1793 -30 1737 -146 1660 -242 c 0
 1563 -364 1433 -457 1287 -511 c 0
 1196 -545 1096 -565 998 -565 c 0
 979 -565 963 -549 963 -530 c 0
 963 -511 979 -495 998 -495 c 0
 1088 -493 1178 -476 1263 -445 c 0
 1397 -395 1516 -309 1605 -198 c 0
 1683 -101 1742 33 1742 166 c 0
 1742 250 1718 335 1660 409 c 0
 1603 482 1526 526 1412 535 c 1
 1413 519 1414 504 1414 488 c 0
 1414 373 1384 260 1316 166 c 0
 1251 77 1139 -7 995 -7 c 0
997 926 m 0
 885 926 800 866 746 798 c 0
 703 744 675 677 660 607 c 1
 695 607 l 1
 1328 608 l 2
 1329 608 1330 608 1331 608 c 1
 1305 732 1233 840 1130 893 c 0
 1089 914 1042 926 997 926 c 0
1328 538 m 1
 695 537 l 1
 649 537 l 1
 648 520 647 502 647 485 c 0
 647 388 671 293 723 216 c 0
 777 135 870 63 995 63 c 0
 1113 63 1205 133 1259 207 c 0
 1317 286 1344 387 1344 489 c 0
 1344 505 1343 522 1342 538 c 1
 1328 538 l 1
169 263 m 0
 169 146 274 61 385 61 c 0
 437 61 489 79 532 117 c 0
 585 165 605 231 605 301 c 2
 605 303 l 1
 586 362 577 424 577 486 c 0
 577 503 578 520 579 536 c 1
 439 530 315 499 238 423 c 0
 196 381 169 323 169 263 c 0
963 -146 m 0
 1038 -146 1113 -151 1182 -191 c 0
 1235 -222 1291 -282 1291 -362 c 0
 1291 -455 1224 -514 1156 -541 c 0
 1102 -562 1047 -566 994 -566 c 0
 921 -566 855 -566 786 -536 c 0
 722 -508 657 -450 657 -360 c 0
 657 -280 714 -218 768 -188 c 0
 830 -153 899 -146 963 -146 c 0
1204 -307 m 0
 1164 -240 1071 -216 970 -216 c 0
 873 -216 783 -238 744 -303 c 0
 732 -322 727 -341 727 -359 c 0
 727 -412 772 -454 814 -472 c 0
 864 -493 925 -496 989 -496 c 0
 1073 -496 1147 -483 1190 -437 c 0
 1209 -417 1220 -391 1220 -364 c 0
 1220 -346 1215 -326 1204 -307 c 0
EndSplineSet
LCarets2: 1 0
EndChar

StartChar: k1k1
Encoding: 65548 -1 129
Width: 2517
GlyphClass: 3
LigCaretCntFixed: 1
Flags: HW
LayerCount: 2
Fore
SplineSet
384 -11 m 0
 232 -11 100 117 100 266 c 0
 100 515 337 604 588 612 c 1
 626 819 766 1014 992 1014 c 0
 1211 1014 1349 830 1393 639 c 1
 1477 824 1651 1013 1906 1013 c 0
 2196 1013 2417 762 2417 475 c 0
 2417 248 2267 72 2096 4 c 0
 2092 2 2086 1 2079 1 c 128
 2060 1 2048 19 2048 40 c 128
 2048 53 2055 63 2070 69 c 0
 2218 127 2347 279 2347 475 c 0
 2347 723 2156 942 1908 942 c 0
 1680 942 1534 781 1457 609 c 1
 1690 589 1910 484 1910 254 c 0
 1910 114 1785 -7 1647 -7 c 0
 1492 -7 1389 116 1353 240 c 1
 1291 115 1168 -7 994 -7 c 0
 841 -7 724 90 661 189 c 0
 660 191 659 192 659 193 c 1
 620 81 511 -11 384 -11 c 0
1327 614 m 1
 1292 781 1179 943 993 943 c 0
 808 943 694 779 660 613 c 1
 1327 614 l 1
1338 544 m 1
 649 543 l 1
 635 301 753 63 992 63 c 0
 1231 63 1353 305 1338 544 c 1
171 269 m 0
 171 153 271 58 392 58 c 0
 504 58 606 173 606 285 c 0
 606 292 605 300 605 309 c 1
 586 366 577 427 577 491 c 0
 577 507 578 524 579 541 c 1
 361 533 171 459 171 269 c 0
1431 540 m 1
 1413 482 1405 426 1405 374 c 0
 1405 223 1485 64 1644 64 c 0
 1748 64 1841 149 1841 256 c 0
 1841 453 1635 528 1431 540 c 1
EndSplineSet
LCarets2: 2 0 0
EndChar

StartChar: k1k1u1
Encoding: 65549 -1 130
Width: 2561
GlyphClass: 3
LigCaretCntFixed: 1
Flags: HW
LayerCount: 2
Fore
SplineSet
384 -13 m 0
 232 -13 100 118 100 268 c 0
 100 517 338 605 588 613 c 1
 628 826 795 1012 994 1012 c 0
 1189 1012 1356 830 1398 623 c 1
 1495 829 1696 1018 1978 1018 c 0
 2201 1018 2425 901 2425 673 c 0
 2425 577 2366 490 2289 444 c 1
 2390 407 2461 338 2461 220 c 0
 2461 74 2334 -25 2195 -25 c 0
 2150 -25 2107 -13 2064 11 c 0
 2052 18 2046 30 2046 42 c 0
 2046 60 2058 77 2078 77 c 128
 2086 77 2098 72 2115 62 c 128
 2135 51 2161 46 2188 46 c 0
 2292 46 2393 112 2393 218 c 0
 2393 353 2271 390 2132 403 c 2
 2111 405 l 2
 2090 407 2079 419 2079 440 c 0
 2079 457 2093 473 2109 474 c 1
 2137 478 l 2
 2260 496 2354 561 2354 675 c 0
 2354 854 2170 947 1987 947 c 0
 1727 947 1558 787 1469 610 c 1
 1696 590 1910 483 1910 257 c 0
 1910 113 1784 -11 1646 -11 c 0
 1495 -11 1387 109 1350 235 c 1
 1288 114 1166 -11 996 -11 c 0
 842 -11 724 91 661 191 c 0
 660 192 660 193 659 194 c 1
 620 83 511 -13 384 -13 c 0
1328 615 m 1
 1293 782 1180 943 994 943 c 0
 808 943 694 782 660 614 c 1
 1328 615 l 1
649 544 m 1
 648 527 647 510 647 493 c 0
 647 278 772 59 992 59 c 0
 1215 59 1340 283 1340 497 c 0
 1340 513 1339 529 1338 545 c 1
 649 544 l 1
171 271 m 0
 171 154 270 55 392 55 c 0
 505 55 606 176 606 288 c 0
 606 294 605 299 605 305 c 2
 605 310 l 1
 586 368 577 428 577 492 c 0
 577 508 578 525 579 542 c 1
 362 534 171 459 171 271 c 0
1403 359 m 0
 1403 213 1491 59 1644 59 c 0
 1748 59 1841 151 1841 259 c 0
 1841 451 1638 527 1439 541 c 1
 1415 477 1403 416 1403 359 c 0
EndSplineSet
LCarets2: 1 0
EndChar

StartChar: k1k1u2
Encoding: 65550 -1 131
Width: 2610
GlyphClass: 3
LigCaretCntFixed: 1
Flags: HW
LayerCount: 2
Fore
SplineSet
2409 701 m 0
 2409 592 2375 496 2290 447 c 1
 2407 412 2512 310 2512 171 c 0
 2512 -118 2235 -199 1939 -202 c 1
 602 -211 l 1
 499 -211 l 2
 324 -211 170 -239 170 -359 c 0
 170 -465 304 -477 438 -477 c 2
 2462 -481 l 2
 2481 -481 2497 -497 2497 -516 c 128
 2497 -531 2482 -551 2469 -551 c 2
 2461 -551 l 1
 437 -547 l 1
 402 -547 l 1
 366 -546 l 1
 217 -546 100 -480 100 -356 c 0
 100 -200 265 -144 453 -140 c 1
 602 -141 l 1
 1939 -132 l 2
 2215 -130 2440 -64 2440 169 c 0
 2440 330 2305 386 2148 400 c 2
 2127 402 l 2
 2110 403 2095 418 2095 436 c 0
 2095 469 2123 472 2154 475 c 0
 2270 486 2339 583 2339 706 c 0
 2339 893 2114 940 1992 940 c 0
 1764 940 1542 823 1465 608 c 1
 1700 590 1926 482 1926 259 c 0
 1926 97 1801 -12 1662 -12 c 0
 1509 -12 1402 105 1366 237 c 1
 1304 111 1180 -12 1005 -12 c 0
 855 -12 733 88 671 188 c 0
 670 189 670 190 669 191 c 1
 632 84 535 -11 394 -11 c 0
 241 -11 110 115 110 268 c 0
 110 511 350 602 598 610 c 1
 638 826 799 1011 1006 1011 c 0
 1201 1011 1358 839 1404 646 c 1
 1493 881 1733 1011 1990 1011 c 0
 2161 1011 2409 932 2409 701 c 0
1340 612 m 1
 1305 779 1191 942 1005 942 c 0
 818 942 704 779 670 611 c 1
 1340 612 l 1
1351 542 m 1
 659 541 l 1
 658 524 657 507 657 490 c 0
 657 275 782 58 1003 58 c 0
 1226 58 1353 279 1353 493 c 0
 1353 509 1352 526 1351 542 c 1
615 302 m 2
 615 307 l 1
 596 365 587 425 587 489 c 0
 587 505 588 522 589 539 c 1
 389 531 177 458 177 277 c 0
 177 152 270 59 393 59 c 0
 516 59 616 167 616 288 c 0
 616 293 615 297 615 302 c 2
1653 59 m 0
 1766 59 1855 142 1855 251 c 0
 1855 449 1649 527 1443 539 c 1
 1427 478 1419 421 1419 369 c 0
 1419 216 1500 59 1653 59 c 0
EndSplineSet
LCarets2: 1 3
EndChar

StartChar: k1k1r1
Encoding: 65551 -1 132
Width: 2482
GlyphClass: 3
LigCaretCntFixed: 1
Flags: HW
LayerCount: 2
Fore
SplineSet
381 -11 m 0
 236 -11 100 110 100 264 c 0
 100 504 342 595 577 602 c 1
 609 801 745 1012 979 1012 c 0
 1202 1012 1336 818 1375 634 c 1
 1453 815 1621 1011 1863 1011 c 0
 2187 1011 2382 709 2382 387 c 0
 2382 -135 2020 -574 1492 -574 c 0
 1335 -574 1161 -532 1161 -368 c 0
 1161 -214 1324 -153 1469 -153 c 0
 1625 -153 1798 -210 1798 -373 c 0
 1798 -398 1793 -424 1779 -450 c 1
 2074 -329 2311 -16 2311 388 c 0
 2311 670 2146 941 1865 941 c 0
 1652 941 1504 762 1436 600 c 1
 1655 583 1882 481 1882 250 c 0
 1882 108 1758 -7 1622 -7 c 0
 1472 -7 1367 112 1331 233 c 1
 1271 113 1151 -12 979 -12 c 0
 824 -12 712 89 649 189 c 1
 612 84 506 -11 381 -11 c 0
978 943 m 0
 787 943 677 764 648 603 c 1
 1309 604 l 1
 1280 766 1170 943 978 943 c 0
1318 534 m 1
 640 533 l 1
 639 520 639 507 639 494 c 0
 639 282 757 59 978 59 c 0
 1200 59 1319 286 1319 497 c 0
 1319 509 1319 522 1318 534 c 1
169 265 m 0
 169 151 272 59 380 59 c 0
 497 59 596 168 596 284 c 0
 596 289 595 294 595 299 c 1
 598 299 l 1
 577 361 569 426 569 491 c 0
 569 505 569 518 570 532 c 1
 380 524 169 458 169 265 c 0
1622 62 m 0
 1727 62 1813 150 1813 255 c 0
 1813 452 1598 519 1411 531 c 1
 1394 475 1383 417 1383 360 c 0
 1383 206 1472 62 1622 62 c 0
1231 -367 m 0
 1231 -482 1368 -504 1490 -504 c 0
 1604 -504 1728 -482 1728 -371 c 0
 1728 -254 1589 -223 1474 -223 c 0
 1363 -223 1231 -255 1231 -367 c 0
EndSplineSet
LCarets2: 1 0
EndChar

StartChar: k1k1r3
Encoding: 65552 -1 133
Width: 2898
GlyphClass: 3
LigCaretCntFixed: 1
Flags: HW
LayerCount: 2
Fore
SplineSet
781 -11 m 0
 621 -11 491 110 491 265 c 0
 491 505 727 596 974 603 c 1
 1012 809 1151 1015 1376 1015 c 0
 1590 1015 1725 824 1772 643 c 1
 1849 824 2015 1011 2256 1011 c 0
 2594 1011 2798 676 2798 367 c 0
 2798 -177 2356 -380 1805 -392 c 2
 1203 -405 l 1
 613 -405 100 -176 100 393 c 0
 100 667 281 907 472 1009 c 0
 477 1012 483 1013 491 1013 c 128
 509 1013 524 994 524 974 c 128
 524 962 518 953 505 947 c 0
 332 855 170 639 170 389 c 0
 170 -135 659 -347 1199 -335 c 2
 1804 -322 l 2
 2318 -310 2728 -139 2728 373 c 0
 2728 654 2546 941 2254 941 c 0
 2053 941 1896 768 1831 601 c 1
 2067 583 2288 478 2288 248 c 0
 2288 108 2165 -11 2028 -11 c 0
 1873 -11 1771 112 1736 238 c 1
 1673 111 1552 -12 1376 -12 c 0
 1224 -12 1110 90 1045 187 c 1
 1007 83 898 -11 781 -11 c 0
1708 605 m 1
 1673 770 1561 945 1377 945 c 0
 1193 945 1080 770 1046 605 c 1
 1708 605 l 1
1719 535 m 1
 1035 535 l 1
 1034 518 1033 501 1033 485 c 0
 1033 273 1158 57 1376 57 c 0
 1596 57 1721 276 1721 487 c 0
 1721 503 1720 519 1719 535 c 1
991 284 m 2
 991 303 l 1
 972 360 963 421 963 484 c 0
 963 500 964 516 965 533 c 1
 766 525 558 453 558 273 c 0
 558 151 653 60 771 60 c 0
 892 60 991 164 991 284 c 2
2026 59 m 0
 2141 59 2218 140 2218 257 c 0
 2218 443 2013 520 1808 532 c 1
 1794 478 1787 425 1787 376 c 0
 1787 222 1867 59 2026 59 c 0
EndSplineSet
LCarets2: 1 0
EndChar

StartChar: k1th1
Encoding: 65558 -1 139
Width: 3330
GlyphClass: 3
LigCaretCntFixed: 1
Flags: HW
LayerCount: 2
Fore
SplineSet
391 -14 m 4
 230 -14 100 104 100 260 c 4
 100 500 339 591 584 599 c 5
 624 813 783 1012 988 1012 c 4
 1189 1012 1352 811 1391 598 c 5
 1491 588 1579 558 1654 508 c 5
 1682 778 1916 1008 2189 1008 c 4
 2266 1008 2346 992 2426 955 c 5
 2510 994 2593 1014 2676 1014 c 4
 2987 1014 3230 753 3230 466 c 4
 3230 232 3080 56 2900 -8 c 4
 2895 -10 2890 -10 2886 -10 c 4
 2866 -10 2852 7 2852 30 c 132
 2852 43 2860 52 2876 58 c 4
 3030 114 3160 264 3160 465 c 4
 3160 726 2939 941 2678 941 c 4
 2618 941 2560 931 2504 911 c 5
 2654 811 2770 619 2770 391 c 4
 2770 180 2642 -14 2426 -14 c 4
 2211 -14 2082 183 2082 392 c 4
 2082 619 2204 812 2348 910 c 5
 2292 929 2238 939 2185 939 c 4
 1922 939 1722 711 1722 439 c 4
 1722 261 1853 111 1975 52 c 4
 1989 46 1995 33 1995 20 c 4
 1995 2 1984 -15 1964 -15 c 132
 1956 -15 1950 -14 1945 -11 c 4
 1793 62 1664 214 1652 423 c 5
 1582 480 1498 515 1400 527 c 5
 1400 524 l 133
 1400 524 1403 489 1403 463 c 4
 1403 217 1236 -8 987 -8 c 4
 839 -8 718 81 657 179 c 4
 656 181 655 182 654 183 c 5
 616 78 509 -14 391 -14 c 4
1319 603 m 5
 1284 767 1160 942 989 942 c 4
 813 942 691 766 655 600 c 5
 1319 603 l 5
2427 876 m 5
 2281 796 2153 611 2153 391 c 4
 2153 220 2251 56 2426 56 c 4
 2600 56 2700 221 2700 392 c 4
 2700 605 2584 793 2427 876 c 5
1330 532 m 5
 645 530 l 5
 644 513 643 496 643 479 c 4
 643 265 767 61 986 61 c 4
 1207 61 1332 271 1332 482 c 4
 1332 498 1331 515 1330 532 c 5
389 56 m 4
 516 56 600 172 600 298 c 5
 582 354 573 412 573 474 c 4
 573 492 574 510 575 528 c 5
 360 518 169 447 169 259 c 4
 169 144 269 56 389 56 c 4
EndSplineSet
LCarets2: 1 3
EndChar

StartChar: k1th1u1
Encoding: 65559 -1 140
Width: 3411
GlyphClass: 3
LigCaretCntFixed: 1
Flags: HW
LayerCount: 2
Fore
SplineSet
1744 467 m 2
 1744 459 l 2
 1744 272 1874 115 2004 56 c 0
 2018 50 2025 41 2025 28 c 128
 2025 7 2012 -11 1993 -11 c 128
 1986 -11 1980 -10 1975 -8 c 0
 1823 62 1685 232 1675 442 c 1
 1604 501 1519 536 1418 549 c 1
 1418 546 l 1
 1419 531 1420 515 1420 500 c 0
 1420 235 1261 -12 999 -12 c 0
 846 -12 727 98 663 200 c 1
 624 88 512 -12 384 -12 c 0
 233 -12 100 125 100 274 c 0
 100 523 342 613 592 621 c 1
 630 830 772 1014 1000 1014 c 0
 1228 1014 1370 829 1409 620 c 1
 1511 610 1601 579 1678 527 c 1
 1711 794 1946 1006 2219 1006 c 0
 2296 1006 2377 985 2457 948 c 1
 2537 985 2621 1003 2709 1003 c 0
 3050 1003 3310 741 3310 400 c 0
 3310 -26 2986 -195 2548 -199 c 1
 2124 -206 l 1
 1946 -206 1738 -207 1738 -341 c 0
 1738 -412 1831 -439 1919 -439 c 0
 2373 -439 2824 -432 3282 -432 c 0
 3295 -432 3311 -451 3311 -466 c 128
 3311 -485 3295 -502 3276 -502 c 0
 2818 -503 2364 -509 1911 -509 c 0
 1790 -509 1667 -457 1667 -342 c 0
 1667 -141 1915 -139 2123 -136 c 2
 2547 -129 l 2
 2931 -122 3240 9 3240 387 c 0
 3240 693 3018 934 2711 934 c 0
 2653 934 2595 924 2537 904 c 1
 2689 806 2806 636 2806 408 c 0
 2806 196 2676 -11 2458 -11 c 0
 2240 -11 2109 198 2109 409 c 0
 2109 636 2233 807 2378 904 c 1
 2324 922 2270 936 2218 936 c 0
 1950 936 1744 731 1744 467 c 2
1337 624 m 1
 1300 791 1176 943 1002 943 c 0
 825 943 699 791 663 622 c 1
 1337 624 l 1
2457 870 m 1
 2301 787 2180 626 2180 406 c 0
 2180 228 2278 59 2458 59 c 0
 2636 59 2735 234 2735 409 c 0
 2735 624 2621 785 2457 870 c 1
1347 554 m 1
 653 552 l 1
 652 535 651 518 651 501 c 0
 651 284 777 58 999 58 c 0
 1223 58 1349 288 1349 503 c 0
 1349 520 1348 537 1347 554 c 1
394 55 m 0
 509 55 610 181 610 295 c 0
 610 366 581 427 581 500 c 0
 581 516 582 533 583 550 c 1
 364 540 171 467 171 276 c 0
 171 159 272 55 394 55 c 0
EndSplineSet
LCarets2: 1 0
EndChar

StartChar: k1th1u2
Encoding: 65560 -1 141
Width: 3526
GlyphClass: 3
LigCaretCntFixed: 1
Flags: HW
LayerCount: 2
Fore
SplineSet
2563 -4 m 0
 2351 -4 2205 185 2205 381 c 0
 2205 396 2206 410 2208 426 c 132
 2228 624 2348 779 2497 868 c 5
 2412 906 2327 923 2246 923 c 0
 2062 923 1899 836 1810 709 c 132
 1758 635 1732 555 1732 471 c 0
 1732 442 1736 413 1742 382 c 132
 1776 216 1906 77 2091 51 c 4
 2107 48 2121 35 2121 16 c 132
 2121 1 2106 -19 2092 -19 c 4
 2055 -19 2009 -7 1954 18 c 4
 1804 85 1687 225 1666 409 c 4
 1665 410 1663 411 1662 412 c 4
 1591 475 1503 513 1399 526 c 5
 1399 524 l 5
 1400 509 1401 494 1401 479 c 0
 1401 432 1395 383 1382 334 c 4
 1347 196 1273 97 1160 36 c 4
 1104 6 1045 -8 986 -8 c 0
 838 -8 718 82 657 179 c 4
 656 181 655 182 655 183 c 5
 617 76 506 -14 387 -14 c 0
 229 -14 102 107 102 260 c 0
 102 335 134 408 186 460 c 132
 280 553 400 592 584 598 c 5
 601 689 631 762 675 817 c 4
 763 928 867 984 989 984 c 0
 1105 984 1207 929 1296 821 c 4
 1341 765 1373 690 1390 597 c 5
 1495 586 1586 554 1664 500 c 5
 1676 679 1786 818 1900 893 c 4
 2001 960 2122 992 2243 992 c 0
 2358 992 2473 964 2573 908 c 5
 2684 959 2811 988 2962 988 c 0
 3134 988 3259 935 3339 830 c 4
 3381 775 3399 715 3399 657 c 0
 3399 563 3350 475 3269 427 c 5
 3355 382 3420 285 3420 176 c 0
 3420 127 3407 75 3376 25 c 4
 3283 -128 3079 -204 2779 -204 c 0
 2715 -204 2624 -203 2583 -203 c 6
 2025 -200 l 5
 1946 -200 l 134
 1858 -200 1785 -217 1744 -260 c 132
 1725 -279 1717 -298 1717 -318 c 0
 1717 -333 1722 -348 1732 -363 c 4
 1763 -409 1837 -432 1955 -432 c 4
 1978 -432 2046 -431 2068 -431 c 6
 3390 -428 l 5
 3398 -428 l 6
 3412 -428 3426 -447 3426 -462 c 132
 3426 -481 3411 -498 3391 -498 c 6
 2069 -501 l 6
 2042 -501 1985 -502 1945 -502 c 0
 1811 -502 1718 -470 1673 -402 c 4
 1656 -376 1647 -350 1647 -322 c 0
 1647 -303 1651 -284 1659 -265 c 4
 1695 -174 1795 -129 1959 -129 c 0
 1984 -129 2025 -130 2025 -130 c 5
 2584 -133 l 6
 2605 -133 2722 -135 2743 -135 c 4
 2982 -135 3143 -101 3228 -34 c 4
 3311 32 3352 101 3352 174 c 0
 3352 205 3345 237 3329 270 c 4
 3297 337 3235 389 3144 389 c 132
 3122 389 3105 403 3105 424 c 132
 3105 449 3124 459 3152 460 c 132
 3198 462 3252 495 3278 523 c 4
 3313 561 3330 603 3330 649 c 0
 3330 826 3155 917 2960 917 c 0
 2840 917 2733 895 2645 862 c 5
 2776 766 2906 586 2906 380 c 0
 2906 342 2902 303 2892 263 c 4
 2853 122 2736 -4 2563 -4 c 0
1318 602 m 5
 1281 764 1158 914 987 914 c 0
 814 914 691 764 656 599 c 5
 666 599 677 599 690 600 c 6
 1245 603 l 6
 1272 603 1297 603 1318 602 c 5
2570 829 m 5
 2475 780 2401 712 2347 627 c 4
 2299 550 2274 474 2274 398 c 0
 2274 365 2279 333 2288 300 c 132
 2318 192 2378 121 2468 84 c 4
 2502 70 2535 64 2566 64 c 0
 2694 64 2794 170 2823 281 c 4
 2833 317 2837 353 2837 387 c 0
 2837 585 2692 751 2570 829 c 5
1328 531 m 5
 1305 532 1278 532 1246 533 c 5
 690 530 l 6
 673 530 658 530 646 529 c 5
 645 512 644 495 644 478 c 0
 644 311 717 175 831 106 c 132
 878 78 931 62 985 62 c 0
 1032 62 1080 74 1125 98 c 132
 1251 165 1330 308 1330 482 c 0
 1330 498 1329 515 1328 531 c 5
601 279 m 2
 601 298 l 5
 583 356 573 417 573 481 c 0
 573 496 574 512 575 527 c 5
 420 520 307 482 236 412 c 132
 191 368 168 319 168 268 c 0
 168 146 261 58 381 58 c 0
 502 58 601 159 601 279 c 2
EndSplineSet
LCarets2: 1 0
EndChar

StartChar: k1th1r1
Encoding: 65561 -1 142
Width: 3355
GlyphClass: 3
LigCaretCntFixed: 1
Flags: HW
LayerCount: 2
Fore
SplineSet
994 -3 m 0
 837 -3 724 89 659 190 c 5
 643 144 615 102 578 69 c 4
 522 18 453 -5 385 -5 c 0
 295 -5 207 35 154 106 c 4
 116 156 100 212 100 266 c 0
 100 345 135 421 189 475 c 4
 280 565 426 604 587 609 c 5
 614 758 700 891 822 956 c 4
 876 985 935 999 994 999 c 0
 1051 999 1108 986 1161 959 c 4
 1287 895 1375 760 1402 609 c 5
 1510 598 1593 568 1669 517 c 5
 1692 792 1924 1007 2199 1007 c 0
 2276 1007 2358 990 2438 952 c 5
 2508 986 2586 1007 2668 1007 c 0
 2701 1007 2736 1003 2771 996 c 4
 2996 949 3153 756 3218 547 c 4
 3243 466 3256 381 3256 296 c 0
 3256 112 3197 -73 3085 -220 c 4
 2988 -347 2854 -443 2705 -499 c 4
 2619 -530 2504 -553 2399 -553 c 0
 2324 -553 2257 -552 2187 -522 c 4
 2122 -494 2057 -436 2057 -345 c 0
 2057 -264 2113 -203 2168 -173 c 4
 2230 -138 2300 -131 2364 -131 c 0
 2440 -131 2516 -136 2585 -176 c 4
 2638 -207 2694 -268 2694 -348 c 0
 2694 -385 2684 -411 2668 -438 c 5
 2796 -393 2922 -294 3030 -177 c 5
 3132 -43 3185 127 3185 296 c 0
 3185 374 3174 452 3151 526 c 4
 3093 713 2955 885 2756 927 c 4
 2728 933 2700 936 2671 936 c 0
 2618 936 2565 926 2515 908 c 5
 2656 814 2753 652 2779 481 c 4
 2783 452 2786 423 2786 393 c 0
 2786 313 2769 232 2728 161 c 4
 2677 73 2579 -12 2448 -12 c 4
 2318 -12 2220 71 2168 157 c 4
 2123 231 2105 315 2105 399 c 0
 2105 424 2107 449 2110 474 c 4
 2131 645 2223 811 2362 908 c 5
 2306 928 2251 937 2198 937 c 0
 1946 937 1737 734 1737 475 c 0
 1737 269 1866 116 2016 52 c 4
 2031 46 2037 34 2037 22 c 0
 2037 3 2023 -16 2003 -16 c 0
 1998 -16 1993 -15 1988 -13 c 4
 1824 57 1687 220 1669 429 c 5
 1598 489 1518 524 1411 537 c 5
 1412 522 1413 506 1413 491 c 0
 1413 377 1383 262 1315 169 c 4
 1250 80 1138 -3 994 -3 c 0
1241 805 m 4
 1187 870 1104 930 994 930 c 0
 884 930 797 868 745 802 c 4
 702 747 674 681 659 611 c 5
 694 611 l 5
 1256 614 l 6
 1280 614 1305 614 1330 613 c 5
 1315 684 1285 751 1241 805 c 4
2438 873 m 5
 2297 793 2200 635 2180 466 c 4
 2178 445 2176 423 2176 401 c 0
 2176 327 2192 254 2228 193 c 4
 2269 124 2346 58 2448 58 c 4
 2550 58 2627 126 2667 196 c 4
 2701 255 2716 325 2716 395 c 0
 2716 420 2714 446 2710 471 c 4
 2685 640 2581 794 2438 873 c 5
1340 543 m 5
 1312 544 1284 544 1256 544 c 6
 694 541 l 6
 679 541 664 541 649 541 c 5
 648 524 647 506 647 489 c 0
 647 392 671 297 723 220 c 4
 777 139 869 66 994 66 c 0
 1112 66 1204 137 1258 211 c 4
 1316 291 1342 390 1342 492 c 0
 1342 509 1341 526 1340 543 c 5
170 266 m 0
 170 149 275 64 385 64 c 0
 436 64 488 82 531 120 c 4
 576 162 605 225 605 286 c 0
 605 291 604 296 604 301 c 6
 604 306 l 5
 585 365 576 427 576 489 c 0
 576 506 577 523 578 539 c 5
 438 533 316 502 239 426 c 4
 197 384 170 326 170 266 c 0
2607 -292 m 4
 2567 -224 2476 -201 2373 -201 c 4
 2269 -201 2184 -222 2144 -288 c 4
 2132 -308 2127 -327 2127 -345 c 0
 2127 -398 2171 -440 2214 -458 c 4
 2264 -479 2325 -482 2390 -482 c 0
 2475 -482 2549 -469 2593 -423 c 4
 2612 -403 2623 -377 2623 -349 c 0
 2623 -330 2618 -311 2607 -292 c 4
EndSplineSet
LCarets2: 1 0
EndChar

StartChar: k1r3
Encoding: 65562 -1 143
Width: 2188
GlyphClass: 3
Flags: HW
LayerCount: 2
Fore
SplineSet
725 -9 m 0
 574 -9 451 116 451 266 c 0
 451 345 486 421 539 474 c 4
 624 558 753 603 925 610 c 5
 952 776 1033 898 1148 963 c 4
 1205 996 1262 1012 1320 1012 c 0
 1375 1012 1431 997 1486 967 c 4
 1604 903 1688 779 1716 611 c 5
 1936 588 2089 427 2089 174 c 0
 2089 5 2006 -132 1906 -212 c 132
 1767 -324 1636 -346 1395 -347 c 5
 1116 -347 l 6
 903 -347 769 -341 608 -288 c 132
 441 -233 296 -122 205 18 c 132
 144 113 100 244 100 384 c 0
 100 439 107 497 122 554 c 132
 172 742 304 897 464 980 c 4
 470 983 476 984 481 984 c 0
 500 984 515 968 515 946 c 132
 515 934 509 925 496 918 c 4
 354 844 234 703 190 536 c 132
 177 485 171 434 171 384 c 0
 171 258 209 141 264 56 c 4
 382 -127 580 -242 852 -268 c 132
 920 -274 1000 -277 1090 -277 c 2
 1395 -277 l 6
 1617 -277 1735 -258 1860 -158 c 132
 1941 -93 2022 32 2022 170 c 0
 2022 192 2020 215 2015 238 c 4
 1980 417 1883 518 1724 539 c 5
 1724 537 l 5
 1725 520 1726 503 1726 486 c 0
 1726 284 1633 116 1492 36 c 132
 1438 5 1378 -10 1319 -10 c 0
 1171 -10 1058 82 996 179 c 5
 959 76 863 -9 725 -9 c 0
1644 614 m 5
 1618 751 1550 852 1453 905 c 4
 1408 929 1363 942 1319 942 c 0
 1273 942 1228 929 1183 903 c 4
 1088 848 1022 748 996 612 c 5
 1030 612 l 5
 1600 615 l 6
 1615 615 1630 615 1644 614 c 5
1600 545 m 6
 1030 542 l 6
 1014 542 1000 542 987 541 c 5
 985 522 985 504 985 486 c 0
 985 426 996 372 1009 321 c 5
 1017 243 1102 145 1164 105 c 132
 1211 75 1264 59 1318 59 c 0
 1366 59 1413 71 1458 97 c 132
 1581 167 1655 311 1655 490 c 0
 1655 508 1654 526 1653 544 c 5
 1636 545 1618 545 1600 545 c 6
914 486 m 0
 914 503 917 523 917 539 c 5
 769 532 662 497 598 434 c 132
 546 383 520 329 520 273 c 0
 520 179 572 115 640 82 c 4
 670 68 700 62 729 62 c 0
 850 62 943 160 943 271 c 0
 943 281 942 291 941 301 c 5
 923 361 914 423 914 486 c 0
EndSplineSet
LCarets2: 1 0
EndChar

StartChar: k1sh
Encoding: 65568 -1 149
Width: 3172
GlyphClass: 3
LigCaretCntFixed: 1
Flags: HW
LayerCount: 2
Fore
SplineSet
2006 719 m 0
 2006 886 2142 1011 2311 1011 c 0
 2449 1011 2553 929 2576 809 c 132
 2581 781 2584 748 2584 710 c 2
 2584 697 l 5
 2583 483 l 5
 2672 514 2745 558 2803 614 c 4
 2912 720 2979 841 3003 978 c 4
 3006 997 3018 1007 3038 1007 c 4
 3056 1007 3072 991 3072 972 c 6
 3072 32 l 6
 3072 13 3056 -3 3037 -3 c 6
 1606 -2 l 6
 1586 -2 1571 15 1571 36 c 132
 1571 48 1578 57 1594 66 c 132
 1666 106 1705 185 1705 266 c 0
 1705 317 1690 369 1657 411 c 4
 1606 480 1527 521 1422 536 c 5
 1422 533 l 5
 1423 517 1424 502 1424 486 c 0
 1424 437 1418 389 1405 340 c 4
 1370 199 1294 98 1179 36 c 4
 1121 5 1061 -9 1001 -9 c 0
 851 -9 729 84 667 183 c 4
 666 184 666 185 665 186 c 5
 626 73 515 -12 387 -12 c 0
 235 -12 100 109 100 259 c 0
 100 427 224 524 352 569 c 132
 416 592 496 605 593 608 c 5
 610 701 641 775 686 832 c 4
 776 945 881 1003 1005 1003 c 0
 1123 1003 1227 947 1318 835 c 4
 1365 778 1396 702 1413 608 c 5
 1548 593 1648 542 1714 453 c 4
 1757 396 1777 330 1777 266 c 0
 1777 193 1751 123 1704 68 c 5
 2509 68 l 5
 2512 392 l 5
 2474 385 2437 381 2402 381 c 0
 2241 381 2112 455 2046 566 c 132
 2019 612 2006 663 2006 719 c 0
2308 940 m 0
 2182 940 2075 843 2075 720 c 0
 2075 611 2144 534 2221 493 c 4
 2274 465 2334 450 2400 450 c 0
 2436 450 2473 455 2513 463 c 5
 2514 697 l 5
 2514 704 l 2
 2514 774 2505 823 2486 850 c 4
 2446 908 2379 940 2308 940 c 0
1341 612 m 5
 1313 747 1240 848 1139 899 c 4
 1094 922 1048 934 1003 934 c 0
 956 934 909 921 862 896 c 4
 764 843 693 744 665 610 c 5
 700 610 l 5
 1266 613 l 6
 1296 613 1321 613 1341 612 c 5
3002 762 m 5
 2916 597 2766 466 2582 409 c 5
 2579 68 l 5
 3002 67 l 5
 3002 762 l 5
1267 543 m 6
 701 540 l 6
 683 540 668 540 655 539 c 5
 654 522 653 504 653 487 c 0
 653 316 727 175 844 104 c 132
 892 75 945 61 1000 61 c 0
 1049 61 1098 73 1144 97 c 132
 1272 165 1353 313 1353 489 c 0
 1353 507 1353 524 1351 542 c 5
 1330 543 1302 543 1267 543 c 6
171 262 m 0
 171 145 273 56 396 56 c 0
 446 56 493 76 537 116 c 132
 586 161 611 215 611 279 c 0
 611 285 610 291 610 298 c 6
 610 303 l 5
 591 361 582 422 582 487 c 0
 582 504 583 521 584 538 c 5
 425 531 313 495 247 429 c 132
 197 379 171 320 171 262 c 0
EndSplineSet
LCarets2: 2 0 0
EndChar

StartChar: k3u1
Encoding: 65574 -1 155
Width: 1833
GlyphClass: 3
Flags: HW
LayerCount: 2
Fore
SplineSet
170 -314 m 0
 170 -419 282 -441 412 -441 c 2
 423 -441 l 1
 1697 -442 l 2
 1716 -442 1732 -457 1732 -476 c 128
 1732 -495 1717 -512 1697 -512 c 2
 423 -511 l 2
 276 -511 207 -496 144 -428 c 128
 117 -398 101 -358 101 -317 c 0
 101 -284 111 -250 132 -222 c 0
 190 -144 276 -123 410 -123 c 2
 427 -123 l 1
 909 -130 l 1
 964 -130 l 2
 1187 -130 1316 -105 1452 0 c 128
 1566 88 1665 253 1665 438 c 0
 1665 678 1563 857 1398 934 c 128
 1348 957 1299 968 1251 968 c 0
 1106 968 982 870 956 726 c 128
 949 686 945 633 945 570 c 2
 945 472 l 2
 945 318 929 234 859 143 c 128
 799 65 698 6 569 6 c 0
 361 6 218 137 149 284 c 0
 115 358 99 435 99 512 c 0
 99 765 264 961 454 1038 c 0
 459 1040 465 1041 472 1041 c 128
 490 1041 502 1021 502 1001 c 128
 502 988 495 979 480 973 c 0
 308 903 169 735 169 500 c 0
 169 334 269 187 397 120 c 0
 455 90 512 74 568 74 c 0
 610 74 650 83 690 100 c 128
 829 160 875 271 875 472 c 2
 875 570 l 2
 875 714 887 793 946 882 c 128
 1006 972 1111 1038 1256 1038 c 0
 1399 1038 1521 956 1593 871 c 0
 1682 766 1733 614 1733 456 c 0
 1733 365 1716 273 1680 186 c 128
 1601 -2 1431 -139 1210 -182 c 0
 1148 -194 1064 -200 956 -200 c 2
 908 -200 l 1
 426 -193 l 2
 419 -193 412 -193 405 -193 c 0
 336 -193 287 -199 259 -211 c 0
 200 -237 170 -271 170 -314 c 0
EndSplineSet
LCarets2: 1 0
EndChar

StartChar: k3u2
Encoding: 65575 -1 156
Width: 1784
GlyphClass: 3
Flags: HW
LayerCount: 2
Fore
SplineSet
1402 355 m 0
 1387 355 1364 351 1352 351 c 128
 1337 351 1322 369 1322 385 c 0
 1322 422 1350 420 1388 426 c 128
 1487 442 1576 557 1576 662 c 0
 1576 809 1428 933 1276 933 c 0
 1112 933 991 846 961 703 c 128
 952 661 948 606 948 540 c 2
 948 443 l 2
 948 291 932 208 862 120 c 128
 802 44 704 -11 577 -11 c 0
 304 -11 104 224 104 477 c 0
 104 737 255 923 445 1002 c 0
 449 1004 455 1005 462 1005 c 128
 480 1005 494 987 494 966 c 128
 494 953 487 944 472 938 c 0
 306 869 174 705 174 479 c 0
 174 313 277 165 407 100 c 0
 465 71 520 57 575 57 c 0
 616 57 657 65 696 81 c 128
 833 138 878 247 878 443 c 2
 878 540 l 2
 878 692 893 776 962 865 c 128
 1029 952 1129 1003 1278 1003 c 0
 1470 1003 1643 850 1643 659 c 0
 1643 555 1581 455 1506 404 c 1
 1599 367 1685 272 1685 143 c 0
 1685 -27 1567 -122 1434 -168 c 128
 1375 -188 1268 -199 1113 -199 c 0
 1063 -199 972 -198 971 -198 c 2
 434 -198 l 2
 355 -198 300 -205 269 -219 c 0
 211 -245 168 -291 168 -345 c 0
 168 -366 175 -387 189 -410 c 0
 231 -479 306 -496 424 -496 c 2
 1646 -496 l 2
 1666 -496 1681 -512 1681 -531 c 128
 1681 -550 1665 -566 1646 -566 c 2
 424 -566 l 2
 331 -566 264 -554 222 -531 c 0
 140 -486 100 -426 100 -350 c 0
 100 -227 198 -157 302 -137 c 0
 336 -131 380 -128 434 -128 c 0
 704 -128 891 -129 1172 -129 c 0
 1279 -129 1359 -120 1410 -102 c 0
 1518 -65 1583 -3 1607 82 c 0
 1613 104 1616 126 1616 147 c 0
 1616 261 1508 355 1402 355 c 0
EndSplineSet
LCarets2: 1 0
EndChar

StartChar: k3r1
Encoding: 65576 -1 157
Width: 1844
GlyphClass: 3
Flags: HW
LayerCount: 2
Fore
SplineSet
169 500 m 0
 169 262 352 64 581 64 c 0
 740 64 844 162 873 296 c 0
 883 342 884 392 884 444 c 2
 884 541 l 2
 884 592 884 646 894 700 c 0
 926 873 1052 1011 1252 1011 c 0
 1499 1011 1662 802 1717 605 c 0
 1736 536 1745 464 1745 393 c 0
 1745 259 1714 125 1659 4 c 0
 1558 -219 1374 -407 1143 -495 c 0
 1050 -530 954 -550 837 -550 c 0
 768 -550 704 -548 637 -520 c 0
 572 -492 506 -434 506 -342 c 0
 506 -261 563 -199 618 -169 c 0
 681 -134 751 -127 816 -127 c 0
 892 -127 967 -133 1037 -173 c 0
 1092 -205 1146 -272 1146 -349 c 0
 1146 -374 1141 -400 1127 -426 c 1
 1334 -344 1502 -172 1595 33 c 0
 1646 146 1675 269 1675 392 c 0
 1675 458 1666 523 1649 586 c 0
 1601 757 1462 941 1255 941 c 0
 1089 941 989 829 963 687 c 0
 955 641 954 592 954 541 c 2
 954 444 l 2
 954 310 934 207 870 126 c 0
 809 49 708 -6 581 -6 c 0
 430 -6 295 67 206 180 c 0
 133 274 100 384 100 494 c 0
 100 741 262 938 456 1009 c 0
 461 1011 465 1011 469 1011 c 0
 489 1011 503 992 503 974 c 0
 503 961 496 949 480 943 c 0
 313 882 169 721 169 500 c 0
1060 -289 m 0
 1019 -221 923 -197 821 -197 c 0
 722 -197 633 -219 593 -285 c 0
 581 -305 576 -324 576 -342 c 0
 576 -395 621 -438 664 -456 c 0
 707 -475 763 -482 820 -482 c 0
 856 -482 893 -479 929 -475 c 0
 999 -464 1078 -417 1078 -348 c 0
 1078 -330 1073 -310 1060 -289 c 0
EndSplineSet
LCarets2: 1 0
EndChar

StartChar: k3k3
Encoding: 65577 -1 158
Width: 1838
GlyphClass: 3
LigCaretCntFixed: 1
Flags: HW
LayerCount: 2
Fore
SplineSet
1133 2 m 0
 1334 2 1485 -155 1485 -352 c 0
 1485 -429 1461 -499 1411 -562 c 0
 1351 -639 1273 -683 1176 -694 c 1
 1167 -694 l 2
 1155 -694 1142 -677 1142 -664 c 0
 1142 -639 1160 -635 1192 -631 c 0
 1255 -624 1329 -570 1364 -525 c 0
 1406 -472 1424 -413 1424 -354 c 0
 1424 -202 1300 -57 1144 -57 c 0
 1131 -57 1119 -58 1106 -60 c 0
 967 -81 915 -153 915 -309 c 2
 915 -376 l 2
 915 -481 904 -540 854 -600 c 0
 802 -665 726 -693 646 -693 c 0
 561 -693 472 -660 408 -603 c 0
 336 -537 293 -441 293 -342 c 0
 293 -169 422 -35 567 -2 c 0
 569 -1 573 -1 578 -1 c 0
 590 -1 604 -17 604 -30 c 0
 604 -47 596 -58 580 -61 c 0
 458 -88 354 -200 354 -344 c 0
 354 -506 484 -634 643 -634 c 0
 747 -634 824 -576 846 -485 c 0
 852 -457 855 -421 855 -376 c 2
 855 -309 l 2
 855 -168 886 -91 984 -36 c 0
 1029 -10 1081 2 1133 2 c 0
EndSplineSet
Refer: 59 3351 N 1 0 0 1 0 0 2
LCarets2: 2 0 0
EndChar

StartChar: k3k3u1
Encoding: 65578 -1 159
Width: 1838
GlyphClass: 3
LigCaretCntFixed: 1
Flags: HW
AnchorPoint: "Anchor-0" 1089 -359 basechar 0
LayerCount: 2
Fore
SplineSet
536 -853 m 0
 432 -853 378 -882 378 -946 c 0
 378 -1006 433 -1036 543 -1036 c 2
 1406 -1036 l 2
 1423 -1036 1437 -1049 1437 -1066 c 0
 1437 -1082 1423 -1096 1407 -1096 c 2
 543 -1096 l 2
 480 -1096 435 -1088 406 -1073 c 0
 348 -1042 318 -1001 318 -947 c 0
 318 -838 410 -793 537 -793 c 0
 540 -793 543 -793 546 -793 c 2
 873 -798 l 1
 910 -798 l 2
 1060 -798 1146 -781 1237 -711 c 0
 1323 -644 1377 -543 1377 -398 c 0
 1377 -239 1270 -66 1113 -66 c 0
 962 -66 903 -165 903 -330 c 2
 903 -396 l 2
 903 -502 893 -560 844 -623 c 0
 795 -686 729 -718 645 -718 c 0
 541 -718 463 -679 401 -604 c 0
 345 -536 317 -461 317 -380 c 0
 317 -194 426 -62 562 -7 c 0
 566 -5 570 -4 576 -4 c 0
 592 -4 603 -20 603 -38 c 0
 603 -49 597 -57 584 -62 c 0
 469 -109 377 -221 377 -378 c 0
 377 -523 494 -658 640 -658 c 0
 738 -658 815 -597 834 -506 c 0
 840 -478 843 -441 843 -396 c 2
 843 -330 l 2
 843 -231 852 -177 893 -115 c 0
 938 -47 1016 -6 1103 -6 c 0
 1143 -6 1185 -15 1226 -34 c 0
 1352 -92 1437 -229 1437 -395 c 0
 1437 -553 1382 -675 1272 -760 c 0
 1171 -838 1073 -858 908 -858 c 0
 896 -858 884 -858 872 -858 c 2
 545 -853 l 2
 542 -853 539 -853 536 -853 c 0
EndSplineSet
Refer: 59 3351 N 1 0 0 1 0 0 2
LCarets2: 1 0
EndChar

StartChar: k3k3u2
Encoding: 65579 -1 160
Width: 1838
GlyphClass: 3
LigCaretCntFixed: 1
Flags: HW
LayerCount: 2
Fore
SplineSet
1303 -420 m 5
 1367 -451 1424 -519 1424 -616 c 0
 1424 -666 1403 -713 1361 -758 c 4
 1302 -821 1208 -850 1078 -850 c 2
 933 -850 l 5
 568 -849 l 6
 455 -849 394 -880 394 -949 c 0
 394 -1011 450 -1041 561 -1041 c 6
 1392 -1042 l 6
 1409 -1042 1422 -1055 1422 -1072 c 4
 1422 -1088 1408 -1102 1392 -1102 c 6
 561 -1101 l 6
 496 -1101 449 -1093 420 -1077 c 4
 363 -1045 334 -1003 334 -951 c 0
 334 -841 419 -789 568 -789 c 6
 933 -790 l 5
 1079 -790 l 2
 1190 -790 1263 -775 1320 -714 c 4
 1349 -683 1362 -647 1362 -612 c 0
 1362 -537 1301 -458 1215 -458 c 0
 1208 -458 1200 -459 1190 -459 c 4
 1179 -459 1166 -442 1166 -429 c 4
 1166 -408 1181 -400 1204 -398 c 4
 1275 -391 1338 -315 1338 -242 c 0
 1338 -145 1241 -63 1140 -63 c 0
 1031 -63 952 -120 932 -215 c 4
 926 -243 923 -279 923 -324 c 6
 923 -390 l 6
 923 -495 912 -553 864 -614 c 4
 816 -675 750 -705 668 -705 c 0
 566 -705 488 -667 426 -595 c 4
 367 -527 337 -450 337 -367 c 0
 337 -187 442 -59 573 -4 c 4
 577 -2 582 -1 588 -1 c 4
 604 -1 615 -17 615 -35 c 4
 615 -46 609 -54 596 -59 c 4
 485 -105 397 -214 397 -365 c 0
 397 -511 516 -645 663 -645 c 0
 760 -645 835 -586 854 -498 c 4
 860 -470 863 -434 863 -390 c 6
 863 -324 l 6
 863 -219 874 -161 922 -99 c 4
 972 -35 1040 -2 1129 -2 c 0
 1262 -2 1366 -84 1392 -197 c 4
 1395 -212 1397 -227 1397 -241 c 0
 1397 -314 1356 -383 1303 -420 c 5
EndSplineSet
Refer: 59 3351 N 1 0 0 1 0 0 2
LCarets2: 1 0
EndChar

StartChar: k3k3r1
Encoding: 65580 -1 161
Width: 1838
GlyphClass: 3
LigCaretCntFixed: 1
Flags: HW
LayerCount: 2
Fore
SplineSet
461 -307 m 0
 461 -443 566 -559 699 -559 c 0
 790 -559 849 -504 866 -427 c 0
 872 -400 872 -371 872 -340 c 2
 872 -282 l 2
 872 -251 872 -218 878 -185 c 0
 898 -78 978 9 1103 9 c 0
 1256 9 1356 -120 1389 -242 c 0
 1400 -284 1406 -326 1406 -369 c 0
 1406 -451 1386 -532 1354 -607 c 0
 1294 -747 1184 -870 1040 -926 c 0
 990 -945 918 -960 849 -960 c 0
 749 -960 645 -928 645 -826 c 0
 645 -727 749 -688 841 -688 c 0
 937 -688 1047 -725 1047 -829 c 0
 1047 -839 1046 -849 1043 -859 c 1
 1157 -805 1248 -702 1299 -584 c 0
 1329 -515 1344 -440 1344 -369 c 0
 1344 -266 1312 -171 1246 -110 c 0
 1207 -74 1156 -50 1103 -50 c 0
 1076 -50 1048 -57 1022 -71 c 0
 954 -108 932 -177 932 -282 c 2
 932 -340 l 2
 932 -472 889 -561 794 -601 c 0
 761 -615 728 -621 696 -621 c 0
 532 -621 402 -474 402 -309 c 0
 402 -156 501 -37 621 7 c 0
 625 9 629 9 633 9 c 0
 650 9 661 -7 661 -23 c 0
 661 -34 656 -44 642 -49 c 0
 545 -84 461 -179 461 -307 c 0
842 -746 m 0
 780 -746 704 -768 704 -829 c 0
 704 -877 779 -904 852 -904 c 0
 925 -904 1021 -870 979 -799 c 0
 959 -765 900 -746 842 -746 c 0
1449 -363 m 1024
1030 -1015 m 1024
EndSplineSet
Refer: 59 3351 N 1 0 0 1 0 0 2
LCarets2: 1 0
EndChar

StartChar: k3th3
Encoding: 65581 -1 162
Width: 1740
GlyphClass: 3
LigCaretCntFixed: 1
Flags: HW
LayerCount: 2
Fore
SplineSet
1260 455 m 128
 1260 495 1307 497 1348 495 c 0
 1459 495 1540 578 1540 688 c 0
 1540 846 1378 940 1215 940 c 0
 985 940 890 787 886 548 c 2
 884 421 l 1
 879 175 776 -10 531 -10 c 0
 272 -10 100 232 100 458 c 0
 100 711 254 918 429 1004 c 0
 434 1007 440 1008 445 1008 c 0
 464 1008 480 990 480 969 c 128
 480 957 473 947 460 941 c 0
 306 867 170 678 170 458 c 0
 170 258 324 61 532 61 c 0
 739 61 809 212 814 422 c 1
 816 549 l 2
 821 822 945 1011 1210 1011 c 0
 1411 1011 1613 888 1613 691 c 0
 1613 586 1553 506 1490 466 c 1
 1575 432 1641 360 1641 248 c 0
 1641 82 1488 -25 1323 -25 c 0
 1271 -25 1220 -13 1170 12 c 0
 1157 18 1150 28 1150 40 c 128
 1150 60 1164 78 1182 78 c 128
 1189 78 1203 74 1223 64 c 128
 1245 54 1286 46 1329 46 c 0
 1447 46 1571 126 1571 251 c 0
 1571 370 1470 418 1329 420 c 1
 1294 421 l 2
 1276 421 1260 437 1260 455 c 128
1237 -417 m 1024
EndSplineSet
LCarets2: 2 0 0
EndChar

StartChar: k3th3r1
Encoding: 65584 -1 165
Width: 1825
GlyphClass: 3
LigCaretCntFixed: 1
Flags: HW
LayerCount: 2
Fore
SplineSet
1453 -337 m 1
 1565 -265 1655 -136 1655 26 c 0
 1655 110 1630 188 1578 262 c 128
 1521 344 1439 395 1333 414 c 1
 1290 417 1268 430 1268 453 c 0
 1268 470 1284 488 1300 488 c 128
 1307 488 1342 484 1362 484 c 0
 1416 484 1464 512 1494 542 c 128
 1523 571 1550 625 1550 683 c 0
 1550 841 1387 926 1230 926 c 0
 1065 926 946 850 910 714 c 128
 899 671 892 614 891 545 c 2
 889 418 l 2
 886 274 871 194 803 110 c 128
 747 40 655 -13 537 -13 c 0
 281 -13 100 214 100 455 c 0
 100 709 241 889 418 975 c 0
 423 978 429 979 434 979 c 0
 453 979 469 961 469 940 c 128
 469 928 462 918 449 912 c 0
 294 837 170 678 170 456 c 0
 170 303 259 166 373 102 c 0
 428 71 483 56 536 56 c 0
 572 56 607 63 642 77 c 128
 773 130 815 235 819 419 c 1
 821 547 l 2
 824 705 845 793 925 879 c 0
 998 958 1096 997 1218 997 c 0
 1378 997 1493 944 1566 844 c 0
 1604 792 1623 739 1623 685 c 0
 1623 661 1619 637 1612 612 c 128
 1588 532 1540 474 1471 441 c 1
 1540 406 1594 362 1631 309 c 0
 1694 219 1725 119 1725 21 c 0
 1725 -94 1684 -206 1606 -296 c 128
 1517 -399 1372 -482 1200 -482 c 0
 1079 -482 930 -431 878 -368 c 0
 839 -320 819 -274 819 -228 c 0
 819 -116 915 -54 1016 -54 c 0
 1060 -54 1107 -66 1152 -90 c 128
 1232 -133 1329 -207 1442 -314 c 0
 1449 -320 1452 -328 1453 -337 c 1
1012 -124 m 0
 942 -124 888 -162 888 -234 c 0
 888 -313 982 -366 1047 -387 c 0
 1099 -404 1151 -412 1201 -412 c 0
 1268 -412 1333 -397 1397 -368 c 1
 1347 -318 1297 -276 1210 -210 c 128
 1144 -160 1091 -132 1051 -127 c 0
 1037 -125 1024 -124 1012 -124 c 0
EndSplineSet
LCarets2: 1 0
EndChar

StartChar: k3th3th4
Encoding: 65585 -1 166
Width: 3125
GlyphClass: 3
LigCaretCntFixed: 1
Flags: HW
LayerCount: 2
Fore
SplineSet
2494 979 m 0
 2467 979 2438 972 2410 972 c 132
 2398 972 2381 991 2381 1003 c 4
 2381 1026 2391 1039 2411 1042 c 4
 2439 1046 2466 1048 2493 1048 c 0
 2621 1048 2732 1002 2811 943 c 132
 2925 858 3026 705 3026 520 c 0
 3026 474 3020 426 3006 376 c 132
 2965 231 2866 117 2740 54 c 132
 2668 18 2593 2 2519 2 c 0
 2399 2 2283 46 2193 125 c 4
 2130 180 2084 248 2054 328 c 5
 1973 151 1814 24 1604 -10 c 132
 1567 -16 1527 -19 1488 -19 c 0
 1354 -19 1221 16 1185 94 c 132
 1176 114 1172 134 1172 151 c 0
 1172 226 1250 276 1328 276 c 0
 1359 276 1424 269 1456 269 c 0
 1528 269 1603 322 1603 390 c 0
 1603 515 1479 548 1338 563 c 6
 1291 568 l 6
 1274 569 1259 585 1259 603 c 132
 1259 621 1274 636 1290 638 c 6
 1332 643 l 6
 1446 657 1522 697 1522 798 c 0
 1522 861 1494 909 1440 943 c 132
 1396 970 1348 982 1301 982 c 0
 1211 982 1123 941 1067 888 c 4
 1001 826 964 742 956 635 c 4
 949 495 926 357 890 276 c 4
 820 123 721 32 593 5 c 4
 567 -1 542 -3 518 -3 c 0
 401 -3 304 57 243 120 c 4
 150 218 101 359 101 507 c 0
 101 747 224 941 369 1052 c 4
 377 1058 385 1061 392 1061 c 0
 411 1061 425 1041 425 1023 c 132
 425 1012 420 1004 411 997 c 4
 284 900 168 717 168 508 c 0
 168 440 181 372 207 306 c 4
 251 193 324 119 426 84 c 4
 459 72 491 67 522 67 c 0
 601 67 669 101 719 148 c 4
 816 239 870 386 882 588 c 4
 892 762 922 847 1019 938 c 132
 1087 1002 1194 1053 1304 1053 c 0
 1361 1053 1418 1040 1471 1007 c 4
 1528 971 1593 895 1593 809 c 0
 1593 716 1548 649 1478 611 c 5
 1588 579 1673 509 1673 385 c 0
 1673 279 1562 198 1453 198 c 0
 1423 198 1373 205 1341 205 c 0
 1278 205 1242 189 1242 147 c 0
 1242 77 1380 53 1494 53 c 0
 1787 53 1975 236 2025 459 c 5
 2027 1015 l 6
 2027 1032 2043 1049 2060 1049 c 4
 2085 1049 2097 1038 2097 1015 c 4
 2097 828 2097 641 2097 454 c 5
 2108 343 2156 252 2240 178 c 132
 2318 110 2416 72 2518 72 c 0
 2582 72 2647 87 2710 118 c 132
 2820 173 2902 269 2938 395 c 132
 2950 438 2956 480 2956 520 c 0
 2956 680 2869 813 2770 887 c 132
 2701 938 2605 979 2494 979 c 0
EndSplineSet
LCarets2: 4 -225 -225 0 0
EndChar

StartChar: k3n1u1
Encoding: 65589 -1 170
Width: 2405
GlyphClass: 3
LigCaretCntFixed: 1
Flags: HW
LayerCount: 2
Fore
SplineSet
1150 1005 m 0
 1306 1005 1406 879 1444 755 c 5
 1499 890 1623 1011 1806 1011 c 0
 1831 1011 1858 1009 1885 1004 c 4
 2138 960 2306 704 2306 413 c 0
 2306 343 2295 271 2267 205 c 4
 2266 200 2262 193 2259 189 c 4
 2215 97 2118 -3 1985 -3 c 0
 1965 -3 1944 -1 1923 4 c 4
 1819 28 1721 130 1721 260 c 0
 1721 289 1726 320 1737 351 c 4
 1771 446 1870 535 1996 535 c 0
 2109 535 2191 476 2236 397 c 5
 2236 411 l 2
 2236 667 2092 897 1873 935 c 4
 1852 939 1832 940 1813 940 c 0
 1701 940 1612 883 1559 816 c 4
 1494 733 1475 630 1474 490 c 5
 1474 32 l 6
 1474 13 1458 -2 1439 -2 c 4
 1420 -2 1404 13 1404 32 c 6
 1404 489 l 6
 1404 586 1399 682 1366 765 c 4
 1334 846 1256 937 1154 937 c 0
 1018 937 934 808 934 680 c 4
 934 572 986 463 986 347 c 0
 986 137 811 -2 603 -2 c 0
 562 -2 520 3 477 15 c 4
 277 69 100 260 100 505 c 0
 100 649 156 770 249 862 c 4
 333 945 456 1006 576 1006 c 4
 595 1006 611 990 611 971 c 4
 611 952 597 937 578 936 c 4
 474 930 373 886 299 813 c 4
 217 732 171 618 171 502 c 0
 171 293 323 129 495 83 c 4
 532 73 567 68 602 68 c 0
 774 68 917 178 917 351 c 0
 917 460 864 568 864 680 c 4
 864 843 974 1005 1150 1005 c 0
1791 259 m 0
 1791 150 1879 68 1981 68 c 0
 2089 68 2163 147 2199 226 c 5
 2201 238 2202 250 2202 261 c 0
 2202 377 2106 466 1997 466 c 0
 1883 466 1791 372 1791 259 c 0
EndSplineSet
LCarets2: 1 0
EndChar

StartChar: k3n1u2
Encoding: 65590 -1 171
Width: 2619
GlyphClass: 3
LigCaretCntFixed: 1
Flags: HW
LayerCount: 2
Fore
SplineSet
983 345 m 0
 983 137 808 -1 601 -1 c 0
 560 -1 518 4 475 16 c 4
 276 70 100 259 100 503 c 0
 100 647 156 767 249 859 c 4
 332 941 455 1002 575 1002 c 4
 594 1002 610 986 610 967 c 4
 610 948 595 933 576 932 c 4
 473 926 372 881 298 809 c 4
 216 729 171 617 171 502 c 0
 171 293 323 129 494 83 c 4
 530 73 566 68 601 68 c 0
 771 68 914 178 914 349 c 0
 914 458 860 566 860 677 c 4
 860 839 969 1001 1145 1001 c 0
 1302 1001 1400 875 1438 752 c 5
 1493 887 1617 1007 1799 1007 c 0
 1824 1007 1850 1005 1877 1000 c 4
 2094 962 2244 765 2284 545 c 5
 2412 472 2520 336 2520 144 c 0
 2520 -82 2370 -240 2198 -294 c 4
 2154 -308 2108 -315 2062 -315 c 0
 1978 -315 1893 -292 1821 -248 c 4
 1811 -242 1804 -229 1804 -218 c 4
 1804 -199 1820 -183 1839 -183 c 4
 1845 -183 1852 -186 1857 -189 c 4
 1917 -226 1990 -245 2061 -245 c 0
 2101 -245 2140 -239 2177 -227 c 4
 2323 -181 2448 -48 2448 145 c 0
 2448 286 2380 389 2295 454 c 5
 2296 439 2296 425 2296 410 c 0
 2296 319 2277 225 2225 146 c 4
 2178 74 2087 -1 1973 -1 c 0
 1816 -1 1706 129 1706 276 c 0
 1706 324 1718 375 1746 425 c 4
 1802 525 1923 604 2068 604 c 0
 2112 604 2157 597 2204 581 c 5
 2160 751 2036 901 1865 931 c 4
 1845 935 1825 936 1806 936 c 0
 1695 936 1606 880 1553 813 c 4
 1489 731 1469 628 1468 489 c 5
 1468 33 l 6
 1468 14 1452 -2 1433 -2 c 4
 1414 -2 1398 14 1398 33 c 6
 1398 487 l 6
 1398 584 1394 679 1361 762 c 4
 1329 843 1251 933 1149 933 c 0
 1014 933 930 804 930 677 c 4
 930 569 983 460 983 345 c 0
1775 278 m 0
 1775 161 1863 68 1972 68 c 0
 2061 68 2129 125 2167 184 c 4
 2210 248 2226 327 2226 409 c 0
 2226 439 2224 469 2220 499 c 5
 2177 519 2120 532 2063 532 c 0
 2029 532 1995 528 1963 517 c 4
 1874 487 1775 396 1775 278 c 0
EndSplineSet
LCarets2: 1 0
EndChar

StartChar: k3m1
Encoding: 65591 -1 172
Width: 2027
GlyphClass: 3
LigCaretCntFixed: 1
Flags: HW
LayerCount: 2
Fore
SplineSet
170 493 m 0
 170 257 334 53 569 53 c 0
 668 53 748 93 808 171 c 4
 868 249 881 324 886 458 c 5
 889 513 l 5
 897 692 924 794 1020 890 c 4
 1101 970 1206 1011 1334 1011 c 0
 1635 1011 1882 825 1923 562 c 4
 1926 540 1928 518 1928 496 c 0
 1928 487 1928 477 1927 468 c 6
 1926 34 l 6
 1926 15 1910 -1 1891 -1 c 6
 984 -1 l 6
 965 -1 948 14 948 32 c 4
 948 51 958 64 978 69 c 4
 1178 132 1343 277 1436 466 c 132
 1470 535 1486 594 1486 648 c 0
 1486 786 1435 874 1334 912 c 4
 1301 924 1283 926 1262 926 c 2
 1230 926 l 134
 1225 926 1222 926 1219 925 c 4
 1109 895 1018 810 987 704 c 132
 972 654 963 589 959 509 c 6
 956 454 l 5
 949 303 933 218 862 126 c 132
 801 46 695 -17 563 -17 c 0
 293 -17 100 222 100 492 c 0
 100 733 241 917 408 1005 c 4
 414 1008 420 1009 425 1009 c 0
 444 1009 459 993 459 971 c 132
 459 959 453 950 440 943 c 4
 294 865 170 704 170 493 c 0
1442 931 m 5
 1521 867 1555 772 1555 671 c 0
 1555 592 1534 508 1496 431 c 4
 1417 274 1303 153 1152 69 c 5
 1856 69 l 5
 1857 468 l 5
 1857 498 l 2
 1857 578 1839 634 1799 699 c 4
 1724 825 1605 902 1442 931 c 5
EndSplineSet
LCarets2: 2 0 0
EndChar

StartChar: k3r3
Encoding: 65594 -1 175
Width: 2305
GlyphClass: 3
Flags: HW
LayerCount: 2
Fore
SplineSet
624 484 m 0
 624 258 805 59 1031 59 c 0
 1181 59 1301 149 1329 286 c 132
 1338 328 1342 381 1342 446 c 6
 1342 544 l 6
 1342 680 1353 754 1409 839 c 4
 1474 939 1573 997 1717 997 c 0
 1872 997 1996 912 2071 821 c 4
 2161 710 2205 576 2205 419 c 0
 2205 147 2072 -61 1902 -178 c 132
 1730 -298 1575 -326 1277 -326 c 2
 1258 -326 l 5
 1102 -325 l 6
 819 -324 670 -306 481 -202 c 132
 278 -90 100 157 100 453 c 0
 100 681 196 864 318 988 c 4
 325 995 333 999 343 999 c 132
 363 999 378 983 378 964 c 132
 378 954 375 946 368 939 c 4
 261 830 170 657 170 455 c 0
 170 423 172 389 177 356 c 132
 192 252 231 155 294 65 c 4
 409 -102 579 -202 804 -237 c 4
 873 -248 972 -254 1103 -255 c 6
 1258 -256 l 5
 1283 -256 l 2
 1550 -256 1697 -234 1862 -121 c 132
 2011 -19 2136 175 2136 408 c 0
 2136 556 2093 681 2027 763 c 4
 1939 873 1837 928 1721 928 c 0
 1562 928 1448 832 1422 690 c 132
 1415 652 1412 603 1412 544 c 6
 1412 447 l 6
 1412 295 1397 213 1328 124 c 132
 1266 45 1165 -12 1034 -12 c 0
 887 -12 768 58 692 139 c 4
 600 237 554 346 554 483 c 0
 554 739 716 929 914 998 c 4
 919 1000 924 1001 928 1001 c 0
 949 1001 961 981 961 960 c 132
 961 947 953 937 937 932 c 4
 765 872 624 707 624 484 c 0
EndSplineSet
LCarets2: 1 0
EndChar

StartChar: k4r3
Encoding: 65603 -1 184
Width: 2939
GlyphClass: 3
Flags: HW
LayerCount: 2
Fore
SplineSet
845 940 m 0
 1045 940 1201 791 1201 594 c 0
 1201 494 1158 397 1085 332 c 1
 1492 335 l 1
 1492 515 l 2
 1492 826 1631 1014 1931 1014 c 0
 2215 1014 2365 843 2360 542 c 2
 2356 305 l 2
 2356 286 2340 271 2321 271 c 2
 1562 266 l 1
 1561 70 l 1
 2769 70 l 1
 2770 980 l 6
 2770 1003 2782 1015 2807 1015 c 4
 2824 1015 2840 998 2840 980 c 6
 2839 -95 l 2
 2839 -416 2648 -460 2320 -460 c 2
 1309 -459 l 2
 602 -459 100 -146 100 523 c 0
 100 680 152 845 230 988 c 0
 237 1000 247 1006 260 1007 c 1
 261 1007 l 2
 278 1007 296 991 296 975 c 128
 296 967 294 960 291 955 c 0
 218 822 170 668 170 522 c 0
 170 -116 665 -388 1309 -389 c 2
 2320 -390 l 2
 2602 -390 2769 -377 2769 -95 c 2
 2769 -0 l 1
 1526 -0 l 2
 1507 0 1491 16 1491 35 c 2
 1492 265 l 1
 956 261 l 2
 935 261 921 279 921 302 c 128
 921 315 929 324 945 329 c 0
 1043 363 1132 463 1132 590 c 0
 1132 771 994 861 856 861 c 0
 717 861 577 770 577 590 c 0
 577 469 654 376 743 338 c 0
 757 331 764 323 764 312 c 0
 764 284 754 270 735 270 c 0
 726 270 719 271 714 274 c 0
 603 323 507 439 507 590 c 0
 507 784 665 940 845 940 c 0
1562 515 m 2
 1562 336 l 1
 2287 341 l 1
 2290 542 l 2
 2294 801 2116 940 1939 940 c 0
 1753 940 1562 798 1562 515 c 2
EndSplineSet
LCarets2: 1 0
EndChar

StartChar: ngk1
Encoding: 65608 -1 189
Width: 1903
GlyphClass: 3
LigCaretCntFixed: 1
Flags: HW
LayerCount: 2
Fore
SplineSet
1496 -10 m 0
 1464 -10 1436 -5 1436 27 c 128
 1436 42 1451 61 1465 61 c 130
 1498 61 l 2
 1633 61 1734 178 1734 300 c 0
 1734 473 1589 551 1404 552 c 1
 1406 531 1406 510 1406 490 c 0
 1406 235 1268 -13 1009 -13 c 0
 855 -13 743 88 683 196 c 1
 643 85 540 -11 392 -11 c 0
 242 -11 100 119 100 266 c 0
 100 415 192 510 297 560 c 1
 193 585 104 658 104 783 c 0
 104 930 235 1014 361 1014 c 0
 518 1014 639 934 685 805 c 1
 745 915 859 1012 1007 1012 c 0
 1228 1012 1359 826 1395 622 c 1
 1399 622 l 2
 1615 622 1803 522 1803 308 c 0
 1803 134 1669 -10 1496 -10 c 0
378 944 m 0
 269 944 174 890 174 782 c 0
 174 656 289 620 421 617 c 2
 623 612 l 1
 628 645 633 673 633 702 c 0
 633 849 506 944 378 944 c 0
1324 621 m 1
 1292 787 1190 942 1007 942 c 0
 823 942 724 785 694 613 c 1
 1324 621 l 1
1333 551 m 1
 686 543 l 1
 685 529 685 514 685 500 c 0
 685 274 785 57 1008 57 c 0
 1227 57 1336 274 1336 489 c 0
 1336 509 1335 530 1333 551 c 1
632 299 m 0
 632 393 616 452 616 522 c 2
 616 542 l 1
 612 542 l 1
 362 538 170 472 170 277 c 0
 170 157 272 60 392 60 c 0
 525 60 632 164 632 299 c 0
EndSplineSet
LCarets2: 2 0 0
EndChar

StartChar: ngk1u1
Encoding: 65609 -1 190
Width: 1947
GlyphClass: 3
LigCaretCntFixed: 1
Flags: HW
LayerCount: 2
Fore
SplineSet
1847 421 m 0
 1847 356 1812 302 1765 279 c 1
 1820 248 1847 205 1847 149 c 0
 1847 42 1735 -10 1628 -10 c 1
 1529 7 l 1
 1513 12 1505 22 1505 35 c 128
 1505 56 1517 75 1536 75 c 128
 1543 75 1549 74 1552 73 c 0
 1581 63 1608 58 1633 58 c 0
 1712 58 1777 104 1777 151 c 0
 1777 204 1710 238 1658 240 c 128
 1627 241 1607 242 1599 242 c 0
 1574 244 1561 256 1561 278 c 0
 1561 302 1579 314 1616 314 c 0
 1621 314 1627 313 1632 313 c 0
 1707 313 1775 355 1775 416 c 0
 1775 428 1773 441 1767 454 c 128
 1732 535 1623 551 1486 551 c 0
 1459 551 1429 550 1396 549 c 1
 1398 529 1398 509 1398 490 c 0
 1398 282 1312 117 1169 36 c 128
 1116 6 1058 -8 1002 -8 c 0
 855 -8 739 89 683 190 c 0
 682 191 682 192 682 193 c 1
 649 104 588 43 499 10 c 0
 462 -4 426 -10 392 -10 c 0
 241 -10 100 116 100 264 c 0
 100 410 185 502 283 553 c 1
 187 578 103 653 103 773 c 0
 103 810 112 844 131 875 c 0
 180 957 256 998 356 998 c 0
 505 998 625 911 673 786 c 1
 729 899 842 1010 990 1010 c 0
 1208 1010 1352 830 1387 619 c 1
 1422 621 1455 622 1485 622 c 0
 1625 622 1719 601 1769 558 c 128
 1821 513 1847 467 1847 421 c 0
1316 617 m 1
 1289 758 1225 855 1123 909 c 0
 1082 931 1041 942 1000 942 c 0
 953 942 906 927 860 898 c 128
 771 841 711 746 692 612 c 1
 1316 617 l 1
620 611 m 1
 623 631 624 649 624 667 c 0
 624 730 607 783 563 835 c 0
 525 881 451 927 370 927 c 0
 286 927 227 898 194 843 c 0
 179 818 173 793 173 770 c 0
 173 697 235 635 299 620 c 128
 330 613 370 610 420 610 c 2
 538 610 l 1
 557 611 585 611 620 611 c 1
683 542 m 1
 683 524 680 503 680 484 c 0
 680 319 744 183 850 110 c 128
 895 79 948 62 1002 62 c 0
 1047 62 1093 74 1136 98 c 128
 1258 167 1328 310 1328 490 c 0
 1328 509 1328 528 1326 547 c 1
 683 542 l 1
171 276 m 0
 171 155 272 62 390 62 c 0
 510 62 589 131 619 226 c 128
 627 250 631 274 631 298 c 0
 631 309 630 320 628 331 c 0
 616 381 610 433 610 486 c 0
 610 504 611 522 612 540 c 1
 543 540 l 1
 450 536 379 522 330 498 c 0
 226 447 171 375 171 276 c 0
EndSplineSet
LCarets2: 1 0
EndChar

StartChar: ngk1u2
Encoding: 65610 -1 191
Width: 1964
GlyphClass: 3
LigCaretCntFixed: 1
Flags: HW
LayerCount: 2
Fore
SplineSet
1731 225 m 5
 1808 184 1848 123 1848 41 c 0
 1848 -80 1746 -153 1644 -175 c 4
 1610 -182 1565 -186 1512 -186 c 2
 1499 -186 l 5
 531 -187 l 6
 433 -187 366 -193 330 -205 c 132
 275 -223 216 -262 216 -325 c 0
 216 -398 296 -447 372 -454 c 132
 421 -459 475 -461 536 -461 c 6
 1829 -459 l 6
 1849 -459 1865 -475 1865 -494 c 132
 1865 -513 1849 -529 1830 -529 c 6
 536 -531 l 5
 510 -531 l 134
 444 -531 373 -529 310 -511 c 132
 229 -488 146 -426 146 -325 c 0
 146 -181 303 -117 457 -117 c 134
 531 -117 l 5
 1499 -116 l 6
 1586 -116 1646 -108 1679 -91 c 4
 1745 -58 1778 -13 1778 43 c 0
 1778 126 1699 179 1618 187 c 5
 1611 186 1605 186 1599 186 c 0
 1559 186 1539 198 1539 222 c 132
 1539 246 1558 258 1597 258 c 0
 1604 258 1610 258 1618 257 c 5
 1686 263 1754 315 1754 385 c 0
 1754 426 1735 457 1703 488 c 132
 1649 540 1568 549 1454 549 c 0
 1434 549 1414 548 1392 548 c 5
 1394 527 1395 505 1395 485 c 0
 1395 278 1308 115 1166 34 c 132
 1113 4 1057 -11 1001 -11 c 0
 856 -11 732 85 681 188 c 5
 647 97 584 37 493 6 c 4
 458 -6 424 -11 391 -11 c 0
 242 -11 100 113 100 260 c 0
 100 409 192 505 297 555 c 5
 201 582 111 658 111 783 c 0
 111 918 236 1004 366 1004 c 0
 504 1004 632 906 674 787 c 5
 731 899 844 1004 992 1004 c 132
 1136 1004 1226 932 1296 839 c 132
 1338 782 1367 709 1383 618 c 5
 1442 618 l 2
 1605 618 1686 603 1764 526 c 132
 1802 489 1823 439 1823 388 c 0
 1823 322 1783 257 1731 225 c 5
1312 617 m 5
 1285 755 1221 850 1120 903 c 4
 1080 924 1039 935 999 935 c 0
 951 935 904 920 856 890 c 132
 768 834 713 740 690 608 c 5
 1312 617 l 5
625 669 m 0
 625 824 505 931 365 931 c 2
 363 931 l 6
 284 931 221 892 194 838 c 132
 185 820 181 801 181 782 c 0
 181 770 183 758 186 746 c 4
 212 643 308 611 450 607 c 6
 541 605 l 5
 558 606 584 606 617 607 c 5
 622 627 625 648 625 669 c 0
1322 547 m 5
 681 538 l 5
 681 531 l 5
 680 514 679 497 679 480 c 0
 679 315 742 179 848 107 c 132
 894 76 947 59 1001 59 c 0
 1046 59 1091 71 1134 95 c 132
 1255 164 1325 308 1325 485 c 0
 1325 505 1324 526 1322 547 c 5
404 57 m 0
 523 57 631 170 631 291 c 0
 631 298 630 304 630 311 c 6
 630 314 l 5
 616 368 609 423 609 479 c 0
 609 497 610 515 611 533 c 5
 544 535 l 5
 451 531 379 517 330 493 c 4
 225 442 171 370 171 270 c 0
 171 147 275 57 404 57 c 0
EndSplineSet
LCarets2: 1 0
EndChar

StartChar: ngk1r1
Encoding: 65611 -1 192
Width: 1852
GlyphClass: 3
LigCaretCntFixed: 1
Flags: HW
LayerCount: 2
Fore
SplineSet
353 967 m 0
 492 967 609 873 652 758 c 5
 706 863 815 968 955 968 c 0
 1165 968 1301 796 1337 595 c 5
 1447 593 1522 575 1596 521 c 4
 1696 448 1752 336 1752 176 c 0
 1752 -24 1647 -186 1531 -285 c 4
 1380 -414 1195 -480 972 -480 c 0
 880 -480 811 -464 767 -433 c 132
 719 -399 664 -338 664 -267 c 0
 664 -245 670 -222 682 -199 c 4
 717 -135 773 -102 848 -102 c 0
 898 -102 957 -117 1025 -145 c 4
 1139 -193 1249 -248 1356 -311 c 4
 1359 -312 1361 -314 1363 -316 c 4
 1493 -246 1585 -149 1639 -24 c 4
 1667 41 1681 109 1681 180 c 0
 1681 393 1563 520 1346 525 c 5
 1347 506 1348 487 1348 469 c 0
 1348 269 1265 110 1128 32 c 132
 1077 3 1022 -10 968 -10 c 0
 828 -10 713 82 661 178 c 4
 660 179 660 179 660 180 c 5
 629 97 571 40 488 9 c 4
 452 -5 415 -11 381 -11 c 0
 236 -11 100 108 100 251 c 0
 100 397 190 490 294 538 c 5
 206 566 149 618 124 694 c 4
 116 717 113 739 113 760 c 0
 113 888 230 967 353 967 c 0
1266 595 m 5
 1240 727 1181 816 1090 864 c 132
 1047 886 1005 898 964 898 c 0
 918 898 872 884 828 856 c 132
 744 803 692 713 670 587 c 5
 1266 595 l 5
365 896 m 0
 278 896 220 865 195 810 c 4
 187 793 184 776 184 758 c 0
 184 745 186 731 190 717 c 4
 222 619 319 589 463 587 c 5
 539 585 l 5
 553 586 572 586 596 586 c 5
 601 608 603 629 603 649 c 0
 603 739 556 809 501 847 c 132
 453 880 408 896 365 896 c 0
658 449 m 0
 658 422 674 349 674 336 c 4
 694 209 813 58 966 58 c 0
 1007 58 1049 69 1094 94 c 132
 1211 160 1278 297 1278 469 c 0
 1278 487 1278 506 1276 525 c 5
 662 517 l 5
 662 517 658 468 658 449 c 0
377 58 m 0
 513 58 609 164 609 283 c 0
 609 295 608 306 606 318 c 4
 595 367 589 416 589 466 c 0
 589 482 590 498 591 514 c 5
 541 515 l 5
 445 512 373 498 325 475 c 4
 224 426 171 357 171 261 c 0
 171 149 273 58 377 58 c 0
1286 -352 m 5
 1193 -299 1106 -255 1026 -222 c 132
 946 -189 892 -172 863 -172 c 4
 797 -172 736 -202 736 -263 c 0
 736 -274 738 -287 743 -300 c 4
 768 -373 845 -410 972 -410 c 0
 1086 -410 1188 -391 1286 -352 c 5
EndSplineSet
LCarets2: 1 0
EndChar

StartChar: ngng
Encoding: 65612 -1 193
Width: 2751
GlyphClass: 3
LigCaretCntFixed: 1
Flags: HW
LayerCount: 2
Fore
SplineSet
1073 939 m 5
 1156 987 1237 1011 1322 1011 c 0
 1541 1011 1703 886 1766 693 c 5
 1823 872 1974 1019 2210 1019 c 0
 2350 1019 2440 981 2526 898 c 132
 2584 842 2614 777 2614 705 c 0
 2614 595 2565 520 2489 475 c 5
 2582 440 2655 362 2655 250 c 0
 2655 122 2552 42 2450 9 c 132
 2409 -4 2367 -11 2327 -11 c 0
 2250 -11 2178 11 2119 45 c 4
 2107 52 2101 60 2101 70 c 132
 2101 96 2116 112 2134 112 c 0
 2140 112 2147 109 2154 105 c 4
 2208 73 2264 58 2322 58 c 0
 2451 58 2585 127 2585 253 c 0
 2585 383 2461 430 2301 431 c 5
 2236 432 l 6
 2219 432 2201 447 2201 464 c 4
 2201 488 2212 501 2235 502 c 6
 2295 503 l 6
 2369 505 2421 514 2450 532 c 4
 2507 568 2544 624 2544 702 c 0
 2544 834 2399 929 2277 945 c 4
 2252 948 2228 950 2205 950 c 0
 2081 950 1981 903 1905 809 c 4
 1820 705 1804 602 1804 414 c 6
 1804 33 l 6
 1804 15 1788 -2 1771 -2 c 4
 1746 -2 1734 10 1734 33 c 6
 1729 421 l 6
 1727 592 1714 684 1642 786 c 132
 1581 871 1468 943 1333 943 c 0
 1271 943 1208 927 1143 896 c 5
 1279 802 1388 645 1417 474 c 132
 1423 439 1426 406 1426 374 c 0
 1426 219 1360 97 1255 32 c 132
 1209 3 1157 -11 1106 -11 c 0
 1051 -11 996 6 949 37 c 132
 844 107 779 234 779 397 c 0
 779 616 862 777 1007 893 c 5
 922 932 836 949 754 949 c 0
 479 949 259 777 193 552 c 4
 180 507 174 462 174 416 c 0
 174 391 176 365 180 339 c 5
 214 430 304 510 425 510 c 0
 548 510 645 414 672 323 c 132
 679 298 683 272 683 248 c 0
 683 120 590 28 488 2 c 4
 465 -4 442 -7 420 -7 c 0
 284 -7 179 112 136 230 c 4
 113 293 103 355 103 415 c 0
 103 597 197 757 301 848 c 132
 410 943 561 1021 745 1021 c 0
 867 1021 986 985 1073 939 c 5
1072 857 m 1
 943 767 846 608 846 396 c 0
 846 260 896 154 983 96 c 128
 1019 72 1061 59 1103 59 c 0
 1142 59 1180 70 1216 92 c 128
 1302 145 1353 245 1353 373 c 0
 1353 402 1350 432 1345 464 c 128
 1317 627 1206 774 1072 857 c 1
418 63 m 0
 522 63 609 142 609 249 c 0
 609 333 565 387 501 421 c 128
 475 435 450 440 424 440 c 0
 354 440 290 396 261 351 c 128
 242 321 231 283 231 246 c 0
 231 203 245 160 274 131 c 0
 319 85 367 63 418 63 c 0
EndSplineSet
LCarets2: 2 0 0
EndChar

StartChar: ch1ch1
Encoding: 65617 -1 198
Width: 1609
GlyphClass: 3
LigCaretCntFixed: 1
Flags: HW
LayerCount: 2
Fore
SplineSet
983 381 m 0
 983 244 926 140 828 69 c 1
 1440 69 l 1
 1440 971 l 2
 1440 991 1455 1006 1475 1006 c 0
 1494 1006 1510 990 1510 971 c 2
 1510 34 l 2
 1510 33 1510 31 1509 30 c 1
 1509 -421 l 2
 1509 -443 1493 -456 1474 -456 c 2
 633 -463 l 2
 613 -463 598 -446 598 -426 c 128
 598 -416 602 -408 610 -401 c 2
 1080 -1 l 1
 35 -1 l 2
 16 -1 0 15 0 34 c 128
 0 53 16 69 35 69 c 2
 643 69 l 2
 786 69 913 213 913 365 c 0
 913 533 790 652 647 652 c 0
 512 652 404 546 404 406 c 0
 404 371 411 338 425 308 c 0
 427 303 428 298 428 290 c 128
 428 271 410 258 389 258 c 128
 376 258 367 265 361 279 c 0
 341 323 332 368 332 410 c 0
 332 566 469 722 635 722 c 0
 825 721 983 571 983 381 c 0
1439 -1 m 1
 1188 -1 l 1
 729 -392 l 1
 1439 -387 l 1
 1439 -1 l 1
EndSplineSet
LCarets2: 2 0 0
EndChar

StartChar: ch1ch2
Encoding: 65620 -1 201
Width: 1690
GlyphClass: 3
LigCaretCntFixed: 1
Flags: HW
LayerCount: 2
Fore
SplineSet
1023 389 m 0
 1023 248 969 150 859 73 c 1
 1520 75 l 1
 1520 1007 l 2
 1520 1026 1536 1043 1555 1043 c 0
 1573 1043 1590 1026 1590 1008 c 2
 1590 40 l 2
 1590 21 1574 5 1555 5 c 2
 36 0 l 1
 28 0 l 2
 15 0 0 21 0 36 c 128
 0 55 16 70 35 70 c 2
 668 72 l 2
 818 72 956 227 956 380 c 0
 956 558 841 684 673 684 c 0
 528 684 418 565 418 429 c 0
 418 394 425 358 441 323 c 0
 443 318 444 312 444 305 c 128
 444 286 426 273 405 273 c 128
 392 273 383 280 377 294 c 0
 356 340 347 387 347 431 c 0
 347 595 488 756 662 756 c 0
 865 753 1023 600 1023 389 c 0
381 -243 m 0
 292 -243 217 -312 217 -404 c 0
 217 -423 221 -443 229 -463 c 0
 230 -466 231 -471 231 -477 c 128
 231 -493 214 -504 196 -504 c 128
 165 -504 158 -433 158 -406 c 0
 158 -279 262 -185 376 -185 c 0
 504 -185 614 -287 614 -421 c 0
 614 -505 583 -568 523 -618 c 1
 846 -619 l 1
 788 -550 761 -471 761 -392 c 0
 761 -177 949 -4 1171 -4 c 0
 1392 -4 1587 -153 1587 -382 c 0
 1587 -539 1473 -680 1313 -680 c 0
 1166 -680 1048 -550 1048 -398 c 0
 1048 -240 1149 -116 1287 -79 c 1
 1249 -67 1211 -62 1174 -62 c 0
 987 -62 821 -201 821 -390 c 0
 821 -495 875 -577 939 -626 c 0
 947 -632 951 -639 951 -648 c 128
 951 -666 938 -680 921 -680 c 2
 39 -676 l 2
 22 -676 9 -663 9 -646 c 128
 9 -629 22 -615 39 -615 c 0
 150 -616 263 -616 372 -616 c 1
 473 -611 554 -529 554 -421 c 0
 554 -328 475 -243 381 -243 c 0
1107 -388 m 0
 1107 -510 1190 -619 1309 -619 c 0
 1428 -619 1527 -518 1527 -385 c 0
 1527 -266 1467 -184 1389 -129 c 1
 1385 -129 1381 -129 1377 -129 c 0
 1229 -129 1107 -241 1107 -388 c 0
EndSplineSet
LCarets2: 2 0 0
EndChar

StartChar: ch2u1
Encoding: 65621 -1 202
Width: 2852
GlyphClass: 3
LigCaretCntFixed: 1
Flags: HW
LayerCount: 2
Fore
SplineSet
2060 -253 m 5
 379 -248 l 6
 221 -248 70 -267 70 -378 c 4
 70 -478 189 -508 330 -508 c 4
 333 -508 336 -508 339 -508 c 4
 1129 -500 1924 -496 2716 -490 c 5
 2724 -490 l 6
 2738 -490 2752 -509 2752 -524 c 132
 2752 -543 2737 -560 2717 -560 c 4
 1925 -566 1130 -570 340 -578 c 5
 332 -578 l 6
 152 -578 -1 -527 -1 -380 c 4
 -1 -231 152 -178 339 -177 c 5
 2069 -183 l 5
 2420 -183 2682 -22 2682 314 c 4
 2682 537 2541 706 2368 772 c 5
 2440 672 2480 555 2480 439 c 4
 2480 216 2321 -4 2092 -4 c 4
 1864 -4 1704 184 1704 403 c 4
 1704 666 1915 854 2159 873 c 5
 2073 925 1978 944 1872 944 c 4
 1587 944 1350 722 1350 443 c 4
 1350 278 1433 139 1530 59 c 4
 1539 52 1543 43 1543 34 c 4
 1543 15 1526 -3 1507 -3 c 6
 42 3 l 6
 22 3 7 19 7 38 c 132
 7 53 20 73 34 73 c 6
 42 73 l 5
 657 71 l 6
 812 70 936 218 936 390 c 4
 936 533 823 671 665 671 c 4
 521 671 416 561 416 412 c 4
 416 384 421 357 431 334 c 132
 437 321 440 309 440 300 c 4
 440 280 426 269 402 269 c 132
 390 269 381 276 375 290 c 4
 355 335 345 381 345 424 c 4
 345 597 493 741 672 741 c 4
 847 741 1007 579 1007 396 c 4
 1007 250 949 144 843 70 c 5
 1421 67 l 5
 1344 156 1281 288 1281 441 c 4
 1281 778 1556 1015 1895 1015 c 4
 2039 1015 2168 970 2283 867 c 5
 2545 826 2752 609 2752 317 c 4
 2752 -66 2458 -253 2060 -253 c 5
2408 439 m 4
 2408 600 2347 707 2251 801 c 5
 2232 803 2214 804 2196 804 c 4
 1960 804 1775 632 1775 402 c 4
 1775 226 1901 69 2076 69 c 4
 2279 69 2408 239 2408 439 c 4
EndSplineSet
LCarets2: 1 0
EndChar

StartChar: ch2u2
Encoding: 65622 -1 203
Width: 2956
GlyphClass: 3
LigCaretCntFixed: 1
Flags: HW
LayerCount: 2
Fore
SplineSet
2664 296 m 1
 2772 267 2856 172 2856 43 c 0
 2856 -192 2630 -254 2380 -254 c 2
 338 -262 l 2
 216 -262 72 -270 72 -383 c 0
 72 -477 193 -500 331 -500 c 1
 2808 -482 l 1
 2816 -482 l 2
 2830 -482 2844 -501 2844 -516 c 128
 2844 -535 2828 -552 2809 -552 c 2
 2808 -552 l 1
 319 -570 l 1
 142 -570 0 -522 -0 -380 c 0
 0 -239 144 -192 321 -192 c 2
 2380 -184 l 1
 2599 -182 2786 -145 2786 45 c 0
 2786 145 2704 238 2601 238 c 0
 2584 238 2564 231 2548 231 c 0
 2523 231 2511 244 2511 270 c 128
 2511 283 2519 293 2535 298 c 0
 2612 323 2678 393 2678 495 c 0
 2678 673 2514 745 2309 749 c 1
 2377 654 2413 543 2413 433 c 0
 2413 211 2255 -5 2028 -5 c 0
 1818 -5 1659 155 1659 359 c 0
 1659 634 1903 781 2154 812 c 1
 2059 887 1946 938 1833 938 c 0
 1560 938 1316 707 1316 430 c 0
 1316 270 1396 134 1490 56 c 0
 1499 49 1503 40 1503 30 c 128
 1503 10 1488 -6 1468 -6 c 2
 42 1 l 2
 22 1 7 17 7 36 c 128
 7 55 22 71 42 71 c 6
 640 68 l 6
 791 67 911 210 911 378 c 0
 911 518 802 650 648 650 c 0
 509 650 407 544 407 400 c 0
 407 373 411 346 421 323 c 128
 427 310 430 300 430 291 c 0
 430 270 416 259 392 259 c 128
 380 259 371 266 365 280 c 0
 345 322 336 366 336 408 c 0
 336 574 478 722 641 722 c 0
 839 722 982 555 982 380 c 0
 982 242 924 139 825 67 c 1
 1382 65 l 1
 1308 150 1248 284 1248 431 c 0
 1248 769 1533 1009 1836 1009 c 128
 1998 1009 2136 935 2250 820 c 1
 2279 820 l 2
 2522 820 2748 724 2748 500 c 0
 2748 419 2720 351 2664 296 c 1
2008 68 m 0
 2212 68 2344 237 2344 433 c 0
 2344 546 2299 659 2221 748 c 1
 1954 732 1729 586 1729 360 c 0
 1729 201 1853 68 2008 68 c 0
EndSplineSet
LCarets2: 1 0
EndChar

StartChar: ch2r1
Encoding: 65623 -1 204
Width: 2903
GlyphClass: 3
LigCaretCntFixed: 1
Flags: HW
LayerCount: 2
Fore
SplineSet
2062 -4 m 0
 1835 -4 1679 183 1679 398 c 0
 1679 651 1889 839 2113 872 c 1
 2030 919 1943 942 1855 942 c 0
 1556 942 1331 714 1331 448 c 0
 1331 284 1406 142 1507 59 c 0
 1516 52 1520 43 1520 34 c 0
 1520 15 1503 -3 1484 -3 c 2
 35 3 l 2
 15 3 0 19 0 38 c 128
 0 53 15 73 28 73 c 130
 36 73 l 1
 644 71 l 1
 796 89 919 216 919 386 c 0
 919 527 808 664 652 664 c 0
 515 664 406 557 406 417 c 0
 406 382 413 348 427 316 c 0
 429 311 430 305 430 300 c 0
 430 280 414 266 392 266 c 128
 380 266 370 273 364 287 c 0
 344 332 334 377 334 420 c 0
 334 591 481 734 658 734 c 0
 832 734 990 571 990 390 c 0
 990 248 932 143 829 70 c 1
 1398 68 l 1
 1322 156 1260 286 1260 437 c 0
 1260 767 1530 1011 1861 1011 c 0
 1998 1011 2121 966 2231 876 c 1
 2565 852 2803 577 2803 225 c 0
 2803 -218 2414 -569 1980 -569 c 0
 1791 -569 1616 -505 1616 -329 c 0
 1616 -184 1751 -104 1909 -104 c 4
 2133 -104 2312 -208 2426 -333 c 0
 2429 -336 2431 -339 2432 -342 c 1
 2617 -203 2733 -26 2733 233 c 0
 2733 512 2551 733 2315 792 c 1
 2399 689 2447 562 2447 436 c 0
 2447 215 2289 -4 2062 -4 c 0
2204 808 m 1
 2200 808 2196 808 2192 808 c 0
 1942 808 1748 628 1748 397 c 0
 1748 223 1867 68 2056 68 c 0
 2251 68 2376 246 2376 441 c 0
 2376 604 2300 722 2204 808 c 1
2375 -380 m 1
 2256 -250 2098 -173 1900 -173 c 0
 1786 -173 1686 -245 1686 -325 c 4
 1686 -459 1836 -500 1979 -500 c 0
 2130 -500 2280 -443 2375 -381 c 1
 2375 -380 l 1
EndSplineSet
LCarets2: 1 0
EndChar

StartChar: ch3u1
Encoding: 65624 -1 205
Width: 1855
GlyphClass: 3
LigCaretCntFixed: 1
Flags: HW
LayerCount: 2
Fore
SplineSet
1100 937 m 0
 953 937 825 816 830 677 c 2
 837 496 l 2
 837 483 817 468 802 468 c 128
 784 468 767 482 767 501 c 2
 758 684 l 2
 749 858 624 945 456 945 c 0
 393 945 336 929 286 897 c 1
 296 898 306 899 316 899 c 0
 433 899 539 804 539 677 c 0
 539 542 432 460 322 460 c 0
 193 460 100 574 100 702 c 0
 100 900 278 1014 464 1014 c 0
 633 1014 744 943 799 820 c 1
 855 930 953 1006 1104 1006 c 0
 1293 1006 1444 866 1444 677 c 0
 1444 607 1423 541 1381 479 c 1
 1403 483 1426 484 1447 484 c 0
 1639 484 1804 343 1804 154 c 0
 1804 -158 1478 -226 1151 -228 c 2
 403 -233 l 2
 275 -234 171 -258 171 -345 c 0
 171 -441 307 -460 415 -460 c 128
 863 -461 1310 -461 1758 -462 c 0
 1777 -462 1793 -479 1793 -498 c 128
 1793 -513 1778 -532 1765 -532 c 2
 1758 -532 l 1
 1300 -531 832 -551 377 -529 c 1
 223 -526 102 -472 102 -341 c 0
 102 -207 238 -163 402 -163 c 1
 1151 -158 l 2
 1467 -156 1732 -99 1732 154 c 0
 1732 307 1597 414 1445 414 c 0
 1386 414 1328 398 1277 370 c 1
 1372 348 1456 271 1456 163 c 0
 1456 50 1368 -39 1257 -39 c 0
 1138 -39 1058 60 1058 166 c 0
 1058 205 1069 245 1091 286 c 1
 883 214 582 -11 357 -11 c 0
 232 -11 113 58 113 182 c 0
 113 316 242 379 373 379 c 0
 492 379 748 336 900 336 c 0
 1135 336 1373 449 1373 675 c 0
 1373 828 1253 937 1100 937 c 0
468 676 m 0
 468 759 402 830 317 830 c 0
 239 830 171 776 171 696 c 0
 171 598 251 531 327 531 c 0
 396 531 468 587 468 676 c 0
882 266 m 1
 798 267 460 309 378 309 c 0
 280 308 181 272 181 184 c 0
 181 100 268 61 356 61 c 0
 519 61 700 169 882 266 c 1
1257 31 m 0
 1332 31 1386 90 1386 165 c 0
 1386 265 1294 308 1193 308 c 1
 1152 266 1129 217 1129 168 c 0
 1129 98 1182 31 1257 31 c 0
EndSplineSet
LCarets2: 1 0
EndChar

StartChar: ch3u2
Encoding: 65625 -1 206
Width: 1915
GlyphClass: 3
LigCaretCntFixed: 1
Flags: HW
LayerCount: 2
Fore
SplineSet
407 -262 m 4
 285 -262 170 -271 170 -353 c 4
 170 -462 332 -465 456 -465 c 4
 893 -466 1330 -466 1767 -467 c 4
 1786 -467 1802 -483 1802 -502 c 132
 1802 -517 1787 -537 1774 -537 c 132
 1314 -537 855 -535 395 -535 c 4
 229 -535 100 -485 100 -355 c 4
 100 -231 229 -192 375 -192 c 4
 762 -192 1133 -198 1515 -198 c 4
 1658 -198 1794 -145 1794 -20 c 4
 1794 37 1744 107 1672 107 c 4
 1641 107 1597 81 1583 81 c 4
 1558 81 1545 93 1545 118 c 4
 1545 169 1681 190 1681 294 c 4
 1681 401 1580 471 1476 471 c 4
 1397 471 1307 417 1239 367 c 5
 1335 346 1420 269 1420 160 c 4
 1420 51 1335 -38 1226 -38 c 4
 1119 -38 1035 50 1035 157 c 4
 1035 198 1048 241 1073 287 c 5
 853 218 581 -13 349 -13 c 4
 226 -13 112 64 112 184 c 4
 112 315 238 395 365 395 c 4
 481 395 729 334 876 334 c 4
 1107 334 1334 448 1334 665 c 4
 1334 807 1216 942 1070 942 c 4
 928 942 804 807 809 673 c 6
 816 502 l 134
 816 479 796 470 781 470 c 132
 762 470 747 485 746 503 c 6
 737 680 l 5
 733 848 610 942 448 942 c 4
 388 942 333 918 285 888 c 5
 293 889 302 889 310 889 c 4
 425 889 527 796 527 672 c 4
 527 541 423 462 317 462 c 4
 189 462 100 572 100 699 c 4
 100 886 264 1012 452 1012 c 4
 616 1012 725 932 778 815 c 5
 832 919 928 1012 1073 1012 c 4
 1249 1012 1404 851 1404 677 c 4
 1404 619 1393 568 1371 522 c 5
 1407 533 1442 538 1476 538 c 4
 1621 538 1751 442 1751 292 c 4
 1751 250 1738 210 1712 171 c 5
 1790 152 1865 82 1865 -17 c 4
 1865 -190 1694 -268 1510 -268 c 4
 1148 -268 777 -262 407 -262 c 4
457 682 m 4
 457 762 392 820 311 820 c 4
 235 820 169 759 169 682 c 4
 169 589 250 533 321 533 c 4
 389 533 457 595 457 682 c 4
853 265 m 5
 746 266 474 325 370 325 c 4
 271 325 181 271 181 185 c 4
 181 107 265 56 340 56 c 4
 519 56 709 186 853 265 c 5
1350 162 m 4
 1350 260 1254 304 1170 304 c 5
 1127 254 1106 206 1106 161 c 4
 1106 93 1154 32 1225 32 c 4
 1297 32 1350 92 1350 162 c 4
EndSplineSet
LCarets2: 1 0
EndChar

StartChar: ch3r1
Encoding: 65626 -1 207
Width: 1777
GlyphClass: 3
LigCaretCntFixed: 1
Flags: HW
LayerCount: 2
Fore
SplineSet
320 455 m 0
 187 455 100 572 100 700 c 0
 100 887 265 1016 452 1016 c 0
 613 1016 729 936 787 827 c 1
 829 934 932 1016 1064 1016 c 0
 1261 1016 1424 863 1424 669 c 0
 1424 564 1373 475 1316 417 c 1
 1563 413 1727 184 1727 -45 c 0
 1727 -383 1453 -577 1112 -577 c 4
 951 -577 773 -537 773 -369 c 0
 773 -212 938 -151 1085 -151 c 0
 1242 -151 1418 -208 1418 -373 c 0
 1418 -398 1413 -425 1399 -451 c 1
 1530 -383 1658 -234 1658 -45 c 0
 1658 155 1522 342 1320 347 c 1
 1379 316 1434 253 1434 170 c 0
 1434 60 1347 -33 1238 -33 c 0
 1119 -33 1039 63 1039 170 c 0
 1039 205 1048 246 1066 280 c 1
 838 195 648 -9 349 -9 c 0
 228 -9 111 58 111 182 c 0
 111 317 243 375 375 375 c 0
 552 375 718 334 881 334 c 0
 1114 334 1354 432 1354 668 c 0
 1354 820 1223 946 1067 946 c 0
 908 946 827 831 832 670 c 2
 838 493 l 2
 839 471 821 459 803 459 c 0
 786 459 769 469 768 491 c 2
 763 629 l 2
 755 827 661 946 458 946 c 0
 385 946 312 921 264 882 c 1
 281 886 298 887 314 887 c 0
 435 887 529 792 529 671 c 0
 529 550 439 455 320 455 c 0
459 682 m 0
 459 762 394 818 312 818 c 0
 240 818 168 755 168 682 c 0
 168 590 238 526 324 526 c 0
 400 526 459 603 459 682 c 0
1237 38 m 0
 1308 38 1365 98 1365 170 c 0
 1365 258 1281 306 1192 306 c 0
 1188 306 1184 306 1180 306 c 1
 1139 276 1108 224 1108 170 c 0
 1108 101 1166 38 1237 38 c 0
383 305 m 0
 287 305 181 277 181 182 c 0
 181 100 267 60 350 60 c 0
 553 60 722 183 869 263 c 1
 702 264 547 305 383 305 c 0
1093 -221 m 0
 977 -221 844 -253 844 -367 c 0
 844 -485 991 -507 1112 -507 c 0
 1217 -507 1349 -476 1349 -370 c 0
 1349 -254 1209 -221 1093 -221 c 0
EndSplineSet
LCarets2: 1 0
EndChar

StartChar: ch3ch3
Encoding: 65627 -1 208
Width: 3081
GlyphClass: 3
LigCaretCntFixed: 1
Flags: HW
LayerCount: 2
Fore
SplineSet
2597 940 m 0
 2476 940 2351 825 2353 709 c 2
 2357 509 l 2
 2357 491 2342 474 2325 474 c 0
 2301 474 2288 485 2287 507 c 2
 2282 706 l 2
 2278 882 2171 946 2008 946 c 0
 1910 946 1827 921 1758 869 c 1
 1768 870 1778 870 1788 870 c 0
 1920 870 2025 764 2025 632 c 0
 2025 517 1941 412 1815 412 c 0
 1736 412 1674 445 1627 510 c 1
 1509 132 1158 -23 646 -23 c 0
 372 -23 124 -33 124 188 c 0
 124 315 252 381 374 381 c 0
 528 381 750 327 929 327 c 0
 1177 327 1425 437 1425 674 c 0
 1425 826 1309 937 1158 937 c 0
 1039 937 893 838 896 709 c 2
 900 509 l 2
 900 490 885 473 866 473 c 128
 847 473 831 489 830 507 c 2
 825 705 l 2
 821 881 734 946 531 946 c 0
 433 946 350 920 281 868 c 1
 291 869 300 870 310 870 c 0
 442 870 547 764 547 632 c 0
 547 517 463 411 337 411 c 0
 191 411 100 532 100 665 c 0
 100 890 311 1015 538 1015 c 0
 711 1015 829 959 874 848 c 1
 938 951 1031 1008 1166 1008 c 0
 1339 1008 1494 856 1494 679 c 0
 1494 403 1223 255 931 255 c 0
 750 255 571 310 387 310 c 0
 288 310 194 276 194 188 c 0
 194 36 402 48 664 48 c 0
 1164 48 1578 222 1578 671 c 0
 1578 886 1787 1015 2009 1015 c 0
 2145 1015 2285 961 2331 848 c 1
 2395 951 2475 1008 2611 1008 c 0
 2781 1008 2938 863 2938 685 c 0
 2938 557 2895 452 2784 371 c 1
 2877 350 2958 275 2958 171 c 0
 2958 54 2866 -36 2751 -36 c 0
 2629 -36 2534 60 2534 182 c 0
 2534 209 2539 237 2550 264 c 1
 2334 166 2127 -20 1848 -20 c 0
 1706 -20 1601 72 1601 173 c 0
 1601 301 1717 380 1873 380 c 0
 1985 380 2212 331 2381 331 c 0
 2640 331 2868 435 2868 679 c 0
 2868 825 2750 940 2597 940 c 0
1956 637 m 0
 1956 725 1878 801 1787 801 c 0
 1699 801 1646 749 1646 661 c 0
 1646 562 1731 482 1814 482 c 0
 1895 482 1956 544 1956 637 c 0
478 637 m 0
 478 725 401 800 310 800 c 0
 221 800 169 749 169 660 c 0
 169 561 253 481 336 481 c 0
 417 481 478 544 478 637 c 0
2389 261 m 1
 2294 261 1968 309 1877 309 c 0
 1774 309 1670 271 1670 180 c 0
 1670 92 1761 50 1854 50 c 0
 2088 50 2230 176 2389 261 c 1
2888 169 m 0
 2888 257 2809 309 2726 309 c 0
 2647 309 2604 259 2604 183 c 0
 2604 101 2667 34 2750 34 c 0
 2825 34 2888 98 2888 169 c 0
EndSplineSet
LCarets2: 2 0 0
EndChar

StartChar: ch3ch3u1
Encoding: 65628 -1 209
Width: 3311
GlyphClass: 3
LigCaretCntFixed: 1
Flags: HW
LayerCount: 2
Fore
SplineSet
318 885 m 0
 427 885 530 787 530 671 c 0
 530 558 439 453 324 453 c 0
 193 453 101 568 101 694 c 0
 101 882 266 999 456 999 c 0
 622 999 732 928 785 810 c 5
 832 901 906 958 1007 982 c 4
 1032 988 1057 991 1083 991 c 0
 1115 991 1149 987 1183 978 c 132
 1300 948 1417 819 1417 676 c 0
 1417 402 1161 258 874 258 c 0
 729 258 538 296 393 306 c 4
 381 307 369 308 358 308 c 0
 286 308 237 290 209 254 c 132
 192 232 184 211 184 192 c 0
 184 146 225 109 266 91 c 132
 293 79 347 71 425 69 c 132
 512 66 594 64 678 64 c 0
 840 64 978 83 1091 122 c 4
 1333 205 1483 340 1541 526 c 4
 1546 542 1554 577 1566 631 c 132
 1578 685 1591 726 1604 757 c 5
 1634 905 1781 1012 1950 1012 c 0
 2119 1012 2228 944 2283 822 c 5
 2330 913 2405 971 2505 995 c 4
 2530 1001 2555 1004 2581 1004 c 0
 2613 1004 2646 1000 2680 991 c 132
 2802 960 2915 832 2915 679 c 0
 2915 608 2893 541 2849 479 c 5
 2866 481 2883 482 2900 482 c 0
 3048 482 3162 398 3218 300 c 132
 3248 248 3261 192 3261 137 c 0
 3261 57 3232 -21 3183 -81 c 132
 3059 -232 2901 -267 2629 -269 c 6
 2004 -274 l 5
 1996 -274 l 2
 1971 -274 1918 -273 1868 -273 c 0
 1765 -273 1726 -267 1681 -323 c 132
 1672 -335 1667 -346 1667 -359 c 0
 1667 -377 1676 -396 1695 -416 c 132
 1731 -454 1831 -467 1958 -467 c 6
 3223 -469 l 6
 3242 -469 3258 -485 3258 -504 c 132
 3258 -519 3243 -539 3230 -539 c 134
 3222 -539 l 5
 1958 -537 l 6
 1927 -537 1872 -537 1834 -535 c 4
 1747 -530 1686 -507 1647 -466 c 132
 1615 -432 1600 -394 1600 -358 c 0
 1600 -245 1718 -201 1851 -201 c 0
 1918 -201 1997 -204 2002 -204 c 2
 2004 -204 l 5
 2628 -199 l 6
 2860 -197 3020 -169 3125 -41 c 4
 3167 10 3192 72 3192 137 c 0
 3192 295 3057 414 2899 414 c 0
 2852 414 2804 403 2756 380 c 5
 2847 357 2927 283 2927 178 c 0
 2927 67 2842 -21 2732 -21 c 0
 2616 -21 2534 77 2534 180 c 0
 2534 217 2545 255 2565 295 c 5
 2514 277 2450 246 2374 203 c 132
 2298 160 2248 133 2225 121 c 4
 2077 44 1951 5 1851 5 c 0
 1802 5 1759 14 1722 32 c 4
 1667 59 1611 117 1611 194 c 0
 1611 238 1624 273 1649 302 c 4
 1698 360 1771 389 1867 389 c 0
 1983 389 2234 346 2382 346 c 0
 2423 346 2459 349 2488 354 c 4
 2662 379 2845 490 2845 679 c 0
 2845 799 2757 899 2661 923 c 4
 2633 930 2605 934 2579 934 c 0
 2435 934 2324 817 2315 681 c 4
 2316 666 2316 651 2317 635 c 6
 2321 510 l 5
 2321 502 l 134
 2321 490 2302 475 2289 475 c 4
 2265 475 2252 486 2251 508 c 6
 2246 630 l 5
 2244 646 2244 665 2243 687 c 4
 2239 857 2114 941 1954 941 c 0
 1903 941 1856 932 1815 913 c 5
 1935 913 2032 813 2032 694 c 0
 2032 568 1932 467 1817 467 c 0
 1729 467 1662 520 1628 584 c 5
 1595 432 1539 329 1432 234 c 4
 1267 88 1044 9 764 -3 c 132
 691 -6 624 -8 565 -8 c 0
 398 -8 287 5 232 30 c 4
 173 56 114 111 114 192 c 0
 114 278 175 330 241 358 c 132
 275 372 319 377 365 377 c 0
 550 377 691 329 875 329 c 0
 1031 329 1152 367 1239 443 c 4
 1307 503 1349 585 1349 667 c 0
 1349 811 1228 922 1080 922 c 0
 937 922 826 804 817 669 c 4
 818 654 818 639 819 622 c 6
 823 498 l 5
 823 490 l 134
 823 477 804 462 789 462 c 132
 770 462 754 477 753 495 c 6
 748 617 l 5
 746 634 745 654 745 675 c 4
 741 844 616 930 452 930 c 0
 390 930 334 914 285 883 c 5
 296 884 307 885 318 885 c 0
1818 536 m 0
 1898 536 1962 612 1962 695 c 0
 1962 760 1901 843 1827 843 c 0
 1756 843 1704 807 1671 737 c 5
 1669 722 1668 709 1668 696 c 0
 1668 604 1748 536 1818 536 c 0
461 666 m 0
 461 747 396 816 314 816 c 0
 247 816 200 776 178 728 c 4
 172 714 170 699 170 684 c 0
 170 589 252 525 324 525 c 0
 388 525 429 559 454 624 c 4
 459 638 461 652 461 666 c 0
2363 277 m 5
 2281 278 1959 318 1874 318 c 0
 1794 318 1738 297 1706 259 c 132
 1689 238 1680 218 1680 197 c 0
 1680 179 1686 160 1699 141 c 4
 1729 97 1776 74 1841 74 c 0
 1857 74 1874 75 1892 78 c 132
 1983 92 2084 127 2192 184 c 4
 2221 199 2335 262 2363 277 c 5
2857 177 m 0
 2857 268 2776 318 2688 318 c 0
 2681 318 2675 317 2668 317 c 5
 2629 277 2606 229 2606 182 c 0
 2606 114 2657 49 2730 49 c 0
 2802 49 2857 108 2857 177 c 0
EndSplineSet
LCarets2: 1 0
EndChar

StartChar: ch3ch3u2
Encoding: 65629 -1 210
Width: 3422
GlyphClass: 3
LigCaretCntFixed: 1
Flags: HW
LayerCount: 2
Fore
SplineSet
400 399 m 0
 535 399 727 360 870 360 c 0
 910 360 945 363 974 368 c 4
 1145 392 1324 500 1324 684 c 0
 1324 799 1239 898 1147 921 c 4
 1120 928 1095 931 1070 931 c 0
 927 931 822 825 808 698 c 5
 808 521 l 6
 808 502 792 486 773 486 c 132
 754 486 738 502 738 521 c 6
 737 688 l 6
 737 771 727 817 686 863 c 4
 641 914 570 937 475 937 c 0
 411 937 355 925 307 902 c 5
 309 902 l 2
 426 902 527 807 527 684 c 0
 527 663 523 642 515 622 c 4
 478 527 415 475 317 475 c 0
 193 475 101 581 101 704 c 0
 101 729 104 754 112 779 c 4
 156 925 301 1007 472 1007 c 0
 631 1007 735 949 782 838 c 5
 838 934 933 1002 1062 1002 c 0
 1095 1002 1130 997 1167 988 c 132
 1278 960 1394 833 1394 697 c 0
 1394 426 1143 291 853 291 c 0
 802 291 749 294 692 301 c 4
 543 319 457 329 381 329 c 0
 295 329 237 309 208 268 c 132
 192 246 185 225 185 206 c 0
 185 158 227 122 268 104 c 132
 341 71 602 68 720 68 c 0
 1124 68 1445 220 1529 536 c 4
 1534 556 1539 578 1545 602 c 4
 1572 716 1611 795 1660 841 c 5
 1716 927 1823 991 1966 991 c 0
 2129 991 2238 927 2290 815 c 5
 2347 915 2442 984 2573 984 c 0
 2607 984 2643 980 2681 970 c 132
 2791 942 2906 814 2906 679 c 0
 2906 622 2895 571 2874 526 c 5
 2909 537 2944 541 2977 541 c 0
 3109 541 3217 462 3244 349 c 132
 3248 331 3250 315 3250 298 c 0
 3250 256 3238 216 3212 178 c 5
 3291 160 3373 87 3373 -16 c 0
 3373 -33 3371 -51 3366 -70 c 4
 3347 -143 3297 -197 3218 -233 c 4
 3148 -264 3086 -272 2998 -272 c 0
 2876 -272 2765 -264 2646 -264 c 0
 2639 -264 2632 -264 2625 -264 c 6
 2013 -269 l 5
 2006 -269 l 2
 1971 -269 1894 -267 1837 -267 c 0
 1815 -267 1796 -267 1783 -268 c 132
 1737 -271 1684 -303 1684 -347 c 0
 1684 -363 1691 -382 1709 -401 c 132
 1744 -438 1843 -450 1967 -450 c 6
 3265 -452 l 6
 3284 -452 3300 -468 3300 -487 c 132
 3300 -502 3285 -522 3272 -522 c 134
 3265 -522 l 5
 1967 -520 l 5
 1915 -520 l 2
 1789 -520 1705 -499 1665 -456 c 132
 1631 -420 1615 -381 1615 -344 c 0
 1615 -295 1644 -250 1697 -223 c 4
 1742 -200 1781 -195 1834 -195 c 0
 1873 -195 1982 -199 2008 -199 c 2
 2012 -199 l 5
 2624 -194 l 6
 2627 -194 2630 -194 2633 -194 c 0
 2718 -194 2910 -202 3009 -202 c 0
 3120 -202 3202 -179 3253 -127 c 132
 3286 -92 3301 -55 3301 -20 c 0
 3301 40 3249 114 3174 114 c 0
 3162 114 3149 112 3136 109 c 5
 3111 95 3093 88 3082 88 c 132
 3060 88 3045 103 3045 125 c 4
 3045 144 3067 161 3109 174 c 5
 3145 197 3180 240 3180 299 c 0
 3180 405 3080 475 2977 475 c 0
 2917 475 2854 451 2785 405 c 4
 2772 393 2758 382 2744 372 c 5
 2839 351 2922 274 2922 166 c 0
 2922 58 2838 -30 2730 -30 c 0
 2624 -30 2540 58 2540 164 c 0
 2540 204 2553 247 2578 292 c 5
 2523 275 2456 245 2378 201 c 132
 2300 157 2250 130 2229 119 c 4
 2083 42 1961 5 1862 5 c 0
 1815 5 1772 13 1736 31 c 4
 1682 57 1626 114 1626 190 c 0
 1626 233 1640 267 1664 296 c 4
 1712 353 1784 382 1878 382 c 0
 1993 382 2237 340 2383 340 c 0
 2509 340 2607 366 2686 417 c 5
 2705 433 2723 447 2741 460 c 5
 2801 517 2837 592 2837 667 c 0
 2837 776 2750 880 2660 903 c 4
 2633 910 2606 913 2581 913 c 0
 2441 913 2337 813 2319 690 c 5
 2320 679 2320 664 2320 648 c 2
 2320 620 l 5
 2318 498 l 6
 2318 479 2301 464 2282 464 c 132
 2263 464 2248 480 2248 499 c 6
 2249 690 l 5
 2251 838 2120 923 1973 923 c 0
 1939 923 1904 918 1870 909 c 5
 1930 900 1978 875 2012 834 c 4
 2053 785 2074 735 2074 683 c 0
 2074 552 1971 457 1845 457 c 0
 1729 457 1648 548 1625 632 c 5
 1615 595 1592 496 1578 458 c 4
 1465 150 1126 -2 718 -2 c 0
 461 -2 302 11 244 38 c 132
 176 69 113 131 113 207 c 0
 113 237 122 269 146 302 c 4
 199 377 291 399 400 399 c 0
1846 527 m 0
 1932 527 2001 595 2001 681 c 0
 2001 774 1920 842 1833 842 c 0
 1792 842 1750 827 1714 796 c 5
 1695 764 1686 730 1686 699 c 0
 1686 605 1759 527 1846 527 c 0
457 682 m 0
 457 763 393 833 310 833 c 0
 244 833 197 792 176 744 c 5
 173 731 172 718 172 705 c 0
 172 669 183 636 204 604 c 132
 232 563 272 545 313 545 c 0
 385 545 457 601 457 682 c 0
2359 270 m 5
 2280 271 1969 311 1886 311 c 0
 1808 311 1751 291 1720 254 c 132
 1703 234 1695 214 1695 193 c 0
 1695 175 1701 156 1714 138 c 4
 1743 95 1789 73 1852 73 c 0
 1868 73 1884 74 1902 77 c 132
 1991 90 2089 125 2196 181 c 4
 2226 197 2331 255 2359 270 c 5
2852 168 m 0
 2852 263 2759 309 2679 309 c 2
 2675 309 l 5
 2632 259 2611 212 2611 168 c 0
 2611 101 2659 41 2729 41 c 0
 2800 41 2852 99 2852 168 c 0
EndSplineSet
LCarets2: 1 0
EndChar

StartChar: ch3ch3r1
Encoding: 65630 -1 211
Width: 3285
GlyphClass: 3
LigCaretCntFixed: 1
Flags: HW
LayerCount: 2
Fore
SplineSet
1076 922 m 0
 960 922 857 840 821 736 c 5
 821 712 l 5
 822 697 822 681 822 664 c 6
 822 495 l 6
 822 476 806 460 787 460 c 132
 768 460 752 476 752 495 c 6
 751 709 l 5
 744 855 655 926 488 926 c 0
 416 926 354 911 303 884 c 5
 307 884 311 885 315 885 c 0
 432 885 534 790 534 665 c 0
 534 643 531 623 523 603 c 4
 486 506 421 453 321 453 c 0
 193 453 101 562 101 688 c 0
 101 714 105 740 113 767 c 132
 156 905 304 995 491 995 c 0
 643 995 744 942 793 836 c 5
 859 935 952 993 1088 993 c 0
 1274 993 1421 844 1421 667 c 0
 1421 564 1371 462 1288 390 c 4
 1188 304 1050 261 872 261 c 0
 820 261 764 265 705 272 c 4
 537 293 455 305 374 305 c 0
 297 305 242 285 210 247 c 132
 193 227 184 206 184 185 c 0
 184 162 195 137 215 113 c 132
 247 75 310 55 404 55 c 0
 424 55 445 56 468 58 c 4
 527 60 683 62 743 64 c 4
 1088 73 1318 167 1434 347 c 4
 1479 417 1548 613 1586 694 c 132
 1610 745 1649 790 1702 830 c 5
 1760 938 1885 1009 2050 1009 c 0
 2212 1009 2316 950 2364 835 c 5
 2424 939 2520 1005 2663 1005 c 0
 2846 1005 2988 856 2988 682 c 0
 2988 595 2953 507 2890 439 c 5
 3046 425 3159 311 3205 187 c 132
 3225 133 3234 80 3234 29 c 0
 3234 -89 3187 -194 3126 -272 c 5
 3122 -287 3113 -290 3104 -300 c 4
 3041 -375 2886 -485 2737 -485 c 0
 2708 -485 2679 -480 2651 -471 c 4
 2585 -449 2512 -383 2512 -299 c 0
 2512 -289 2513 -279 2515 -269 c 132
 2533 -182 2594 -137 2680 -117 c 132
 2695 -114 2711 -112 2729 -112 c 0
 2766 -112 2811 -119 2862 -133 c 132
 2938 -154 3010 -183 3079 -218 c 5
 3126 -153 3164 -66 3164 30 c 0
 3164 161 3098 269 3017 320 c 132
 2959 356 2912 370 2864 370 c 5
 2932 342 2996 276 2996 185 c 0
 2996 73 2908 -14 2798 -14 c 0
 2674 -14 2596 89 2596 197 c 0
 2596 227 2602 256 2614 285 c 5
 2559 262 2345 144 2297 119 c 4
 2149 42 2025 3 1924 3 c 0
 1875 3 1832 13 1794 31 c 4
 1739 58 1682 116 1682 193 c 0
 1682 237 1695 271 1720 300 c 4
 1769 358 1842 388 1938 388 c 0
 2055 388 2319 344 2465 344 c 0
 2562 344 2640 365 2704 393 c 5
 2721 404 2739 413 2759 421 c 5
 2850 476 2919 562 2919 685 c 0
 2919 795 2827 899 2737 922 c 4
 2710 929 2683 932 2658 932 c 0
 2513 932 2405 827 2390 697 c 5
 2389 508 l 6
 2389 489 2373 474 2354 474 c 132
 2335 474 2319 489 2319 508 c 6
 2319 669 l 6
 2319 858 2245 939 2047 939 c 0
 1969 939 1904 921 1850 887 c 5
 1856 887 1861 888 1867 888 c 0
 1988 888 2097 798 2097 666 c 0
 2097 554 2006 466 1893 466 c 0
 1773 466 1674 561 1669 692 c 5
 1646 658 1618 596 1583 505 c 132
 1548 414 1518 348 1493 309 c 4
 1375 125 1161 22 851 -1 c 4
 780 -6 533 -9 465 -14 c 4
 445 -15 426 -16 408 -16 c 0
 290 -16 206 14 156 74 c 4
 129 107 115 147 115 185 c 0
 115 222 127 257 152 287 c 4
 201 345 273 375 368 375 c 0
 483 375 739 330 889 330 c 0
 930 330 966 332 995 338 c 5
 1169 363 1352 475 1352 663 c 0
 1352 780 1264 884 1172 909 c 4
 1138 918 1106 922 1076 922 c 0
2027 664 m 0
 2027 757 1952 818 1867 818 c 0
 1822 818 1792 805 1757 782 c 5
 1745 755 1739 729 1739 703 c 0
 1739 619 1802 534 1893 534 c 0
 1963 534 2027 599 2027 664 c 0
464 666 m 0
 464 747 399 816 316 816 c 0
 249 816 202 775 180 727 c 4
 179 724 176 721 174 718 c 4
 172 705 171 693 171 681 c 0
 171 587 252 523 324 523 c 0
 389 523 431 557 456 623 c 4
 461 637 464 651 464 666 c 0
2667 196 m 0
 2667 125 2715 56 2797 56 c 0
 2867 56 2927 117 2927 184 c 0
 2927 271 2845 320 2765 320 c 0
 2751 320 2736 319 2720 317 c 5
 2683 282 2667 238 2667 196 c 0
2438 276 m 5
 2329 277 2048 317 1943 317 c 0
 1865 317 1810 299 1779 262 c 132
 1760 240 1751 217 1751 194 c 0
 1751 176 1757 157 1770 139 c 4
 1800 95 1849 73 1916 73 c 0
 1933 73 1951 74 1971 77 c 132
 2068 91 2183 136 2319 210 c 4
 2351 227 2408 260 2438 276 c 5
2583 -295 m 0
 2583 -370 2658 -414 2728 -414 c 0
 2846 -414 2958 -346 3032 -273 c 5
 2966 -240 2837 -184 2732 -184 c 0
 2658 -184 2583 -221 2583 -295 c 0
EndSplineSet
LCarets2: 1 0
EndChar

StartChar: ch3nj
Encoding: 65631 -1 212
Width: 4128
GlyphClass: 3
LigCaretCntFixed: 1
Flags: HW
LayerCount: 2
Fore
SplineSet
882 340 m 0
 1125 340 1363 455 1363 683 c 0
 1363 830 1241 941 1090 941 c 0
 945 941 835 822 824 686 c 1
 828 630 829 569 831 511 c 1
 831 504 l 2
 831 491 811 475 796 475 c 128
 778 475 761 490 761 508 c 0
 758 570 752 628 752 691 c 0
 748 862 621 950 455 950 c 0
 391 950 334 933 284 900 c 1
 294 901 305 902 315 902 c 0
 431 902 536 821 536 694 c 0
 536 561 429 468 322 468 c 0
 193 468 100 569 100 694 c 0
 100 886 266 1019 460 1019 c 0
 628 1019 738 947 792 827 c 1
 848 935 945 1011 1094 1011 c 0
 1277 1011 1431 871 1431 691 c 0
 1431 414 1171 269 880 269 c 0
 723 269 522 319 362 319 c 0
 269 319 183 282 183 201 c 0
 183 78 381 66 539 66 c 0
 1156 66 1237 279 1570 491 c 1
 1622 732 1808 1014 2102 1014 c 0
 2313 1014 2459 851 2515 685 c 1
 2578 868 2735 1009 2976 1009 c 0
 3061 1009 3136 987 3212 955 c 1
 3290 986 3368 1004 3444 1004 c 0
 3760 1004 4029 769 4029 452 c 0
 4029 244 3914 87 3775 3 c 0
 3770 0 3762 -2 3754 -2 c 128
 3735 -2 3722 15 3722 36 c 128
 3722 48 3728 56 3739 63 c 0
 3860 136 3960 271 3960 452 c 0
 3960 734 3712 933 3445 933 c 0
 3393 933 3344 923 3298 910 c 1
 3441 820 3572 643 3572 427 c 0
 3572 194 3433 0 3201 0 c 128
 2972 0 2838 203 2838 427 c 4
 2838 639 2977 823 3125 912 c 1
 3073 927 3024 940 2975 940 c 0
 2673 940 2551 730 2551 420 c 2
 2551 34 l 2
 2551 11 2539 -1 2516 -1 c 0
 2497 -1 2481 15 2481 34 c 2
 2479 400 l 2
 2477 693 2388 944 2101 944 c 0
 1872 944 1716 727 1654 535 c 1
 1718 563 1778 576 1833 576 c 0
 2025 576 2165 451 2165 269 c 0
 2165 110 2037 -14 1882 -14 c 0
 1682 -14 1556 172 1556 371 c 0
 1556 380 1557 388 1557 397 c 1
 1254 170 1127 -5 565 -5 c 0
 349 -5 114 14 114 202 c 128
 114 328 234 388 367 388 c 0
 554 388 696 340 882 340 c 0
3211 879 m 1
 3057 807 2908 634 2908 427 c 4
 2908 240 3019 67 3203 67 c 0
 3392 67 3501 239 3501 427 c 0
 3501 628 3361 807 3211 879 c 1
326 538 m 0
 396 538 465 606 465 694 c 0
 465 776 399 833 316 833 c 0
 240 833 169 771 169 694 c 0
 169 597 252 538 326 538 c 0
1626 372 m 0
 1626 207 1726 55 1884 55 c 0
 1999 55 2094 155 2094 271 c 0
 2094 417 1972 505 1835 505 c 0
 1752 505 1694 481 1632 447 c 1
 1628 421 1626 396 1626 372 c 0
EndSplineSet
LCarets2: 2 0 0
EndChar

StartChar: ch3r3
Encoding: 65632 -1 213
Width: 2141
GlyphClass: 3
Flags: HW
LayerCount: 2
Fore
SplineSet
1508 935 m 0
 1362 935 1250 816 1241 679 c 4
 1242 664 1242 648 1243 632 c 6
 1247 507 l 5
 1247 499 l 134
 1247 486 1227 471 1212 471 c 132
 1193 471 1178 486 1177 504 c 6
 1172 628 l 5
 1170 644 1169 663 1168 685 c 4
 1164 856 1038 944 872 944 c 0
 809 944 753 928 703 896 c 5
 713 897 722 898 731 898 c 0
 848 898 953 804 953 677 c 0
 953 655 949 634 941 614 c 4
 904 516 839 464 739 464 c 0
 609 464 518 575 518 704 c 0
 518 730 522 756 529 782 c 132
 552 863 603 924 682 965 c 132
 743 997 809 1013 877 1013 c 0
 1045 1013 1156 941 1209 821 c 5
 1257 913 1331 972 1433 996 c 4
 1458 1002 1484 1005 1510 1005 c 0
 1542 1005 1575 1001 1610 992 c 132
 1728 962 1847 833 1847 690 c 0
 1847 589 1813 503 1743 430 c 5
 1762 430 l 2
 1916 430 2024 323 2066 214 c 4
 2085 166 2093 120 2093 76 c 0
 2093 -41 2036 -144 1958 -219 c 4
 1852 -322 1680 -378 1442 -386 c 4
 1408 -387 1363 -387 1309 -388 c 6
 1008 -392 l 6
 998 -392 988 -393 978 -393 c 0
 813 -393 682 -373 586 -334 c 4
 453 -280 343 -189 255 -61 c 4
 152 90 100 255 100 436 c 0
 100 651 165 826 291 986 c 4
 298 995 306 1000 317 1000 c 132
 337 1000 353 985 353 966 c 132
 353 957 350 949 345 943 c 4
 230 798 171 620 171 440 c 0
 171 278 219 115 318 -29 c 132
 422 -181 563 -273 740 -305 c 4
 805 -317 884 -323 976 -323 c 0
 986 -323 997 -322 1007 -322 c 6
 1308 -318 l 6
 1456 -316 1566 -309 1635 -296 c 4
 1754 -273 1845 -231 1908 -170 c 132
 1976 -104 2022 -12 2022 83 c 0
 2022 224 1915 360 1760 360 c 0
 1750 360 1740 359 1730 358 c 5
 1797 328 1862 262 1862 167 c 0
 1862 56 1775 -34 1665 -34 c 0
 1558 -34 1470 54 1470 158 c 0
 1470 211 1485 255 1509 294 c 5
 1457 278 1388 246 1299 197 c 132
 1123 100 936 -3 772 -3 c 0
 723 -3 681 7 643 25 c 4
 587 52 530 110 530 188 c 0
 530 232 544 266 569 296 c 4
 619 355 691 384 788 384 c 0
 906 384 1159 341 1309 341 c 0
 1351 341 1386 343 1416 349 c 5
 1592 374 1777 486 1777 677 c 0
 1777 798 1688 899 1591 924 c 4
 1562 931 1534 935 1508 935 c 0
882 677 m 0
 882 759 816 829 733 829 c 0
 666 829 617 789 595 740 c 4
 589 726 587 710 587 695 c 0
 587 599 669 534 742 534 c 0
 807 534 849 569 874 635 c 4
 879 649 882 662 882 677 c 0
1290 271 m 5
 1207 272 882 313 796 313 c 0
 715 313 658 293 625 254 c 132
 608 233 599 212 599 190 c 0
 599 171 606 152 619 133 c 4
 648 90 699 69 772 69 c 0
 794 69 817 71 843 75 c 4
 926 87 1047 137 1207 226 c 4
 1246 248 1274 262 1290 271 c 5
1542 174 m 0
 1542 95 1587 36 1664 36 c 0
 1735 36 1793 100 1793 168 c 0
 1793 260 1703 310 1618 312 c 5
 1566 271 1542 231 1542 174 c 0
EndSplineSet
LCarets2: 1 0
EndChar

StartChar: njch1
Encoding: 65639 -1 220
Width: 3052
GlyphClass: 3
LigCaretCntFixed: 1
Flags: HW
LayerCount: 2
Fore
SplineSet
2521 461 m 0
 2521 297 2441 157 2346 70 c 1
 2883 69 l 1
 2883 974 l 2
 2883 996 2899 1009 2917 1009 c 2
 2918 1009 l 2
 2937 1009 2953 993 2953 974 c 2
 2953 34 l 2
 2953 16 2936 -1 2918 -1 c 2
 2239 0 l 2
 2216 0 2204 12 2204 35 c 0
 2204 48 2210 59 2221 66 c 0
 2341 136 2452 280 2452 460 c 0
 2452 491 2448 524 2441 557 c 128
 2420 652 2375 733 2305 799 c 128
 2211 888 2116 933 1964 933 c 0
 1920 933 1878 928 1837 917 c 1
 1986 825 2110 658 2110 425 c 0
 2110 252 2027 111 1906 41 c 128
 1855 12 1800 -3 1740 -3 c 128
 1680 -3 1624 13 1571 45 c 0
 1449 119 1377 243 1377 425 c 0
 1377 638 1512 828 1659 917 c 1
 1617 928 1575 933 1535 933 c 0
 1469 933 1405 918 1345 889 c 0
 1174 804 1120 660 1120 402 c 2
 1120 31 l 2
 1120 13 1103 -4 1085 -4 c 128
 1067 -4 1050 11 1050 30 c 2
 1048 398 l 2
 1047 579 1032 677 952 780 c 128
 889 861 776 923 643 923 c 0
 600 923 555 917 508 902 c 0
 344 850 215 714 178 525 c 1
 241 627 336 691 477 691 c 0
 571 691 652 652 706 606 c 128
 772 549 828 455 828 340 c 0
 828 169 697 22 548 0 c 128
 527 -3 506 -4 487 -4 c 0
 324 -4 211 97 152 211 c 0
 148 216 144 222 144 228 c 0
 115 291 100 359 100 432 c 0
 100 468 104 505 111 544 c 128
 154 777 369 995 642 995 c 0
 704 995 767 983 830 957 c 0
 953 906 1037 815 1083 682 c 1
 1145 865 1299 1003 1539 1003 c 0
 1610 1003 1680 989 1748 962 c 1
 1821 991 1894 1004 1964 1004 c 0
 2118 1004 2257 942 2354 850 c 128
 2450 758 2521 617 2521 461 c 0
1748 886 m 1
 1657 844 1585 780 1530 693 c 0
 1474 605 1446 515 1446 424 c 0
 1446 271 1508 165 1608 104 c 128
 1653 77 1697 63 1742 63 c 0
 1784 63 1825 75 1866 99 c 128
 1975 162 2039 287 2039 428 c 0
 2039 646 1902 814 1748 886 c 1
758 341 m 0
 758 501 626 621 478 621 c 0
 321 621 195 496 195 343 c 0
 195 314 199 285 209 254 c 1
 256 154 351 66 488 66 c 0
 643 66 758 190 758 341 c 0
EndSplineSet
LCarets2: 2 0 0
EndChar

StartChar: njch3
Encoding: 65643 -1 224
Width: 2750
GlyphClass: 3
LigCaretCntFixed: 1
Flags: HW
LayerCount: 2
Fore
SplineSet
764 292 m 0
 764 125 624 -10 457 -10 c 0
 238 -10 100 193 100 426 c 0
 100 732 307 1013 626 1013 c 0
 842 1013 995 884 1058 707 c 1
 1113 870 1253 1011 1460 1011 c 0
 1505 1011 1549 1000 1593 984 c 1
 1639 1000 1684 1011 1728 1011 c 0
 1885 1011 1994 937 2044 832 c 1
 2092 934 2182 1011 2321 1011 c 0
 2499 1011 2646 860 2646 684 c 0
 2646 549 2584 452 2472 377 c 1
 2575 360 2650 293 2650 184 c 0
 2650 83 2568 -11 2460 -11 c 0
 2352 -11 2270 83 2270 184 c 0
 2270 215 2278 249 2296 281 c 1
 2096 195 1883 -10 1638 -10 c 0
 1515 -10 1399 61 1399 187 c 0
 1399 310 1527 377 1668 377 c 0
 1750 377 1958 352 2088 352 c 0
 2345 352 2577 447 2577 682 c 0
 2577 827 2457 940 2315 940 c 0
 2147 940 2081 801 2076 626 c 1
 2074 502 l 2
 2073 479 2062 468 2039 468 c 0
 2020 468 2004 484 2004 503 c 0
 2005 563 2006 616 2006 677 c 0
 2006 834 1903 940 1739 940 c 0
 1721 940 1702 937 1683 934 c 1
 1765 872 1809 790 1809 680 c 0
 1809 565 1724 447 1594 447 c 0
 1461 447 1370 557 1370 696 c 0
 1370 786 1434 881 1501 934 c 1
 1487 936 1472 940 1458 940 c 0
 1195 940 1096 714 1096 434 c 2
 1096 22 l 2
 1096 3 1079 -12 1061 -12 c 128
 1043 -12 1026 3 1026 22 c 2
 1024 430 l 1
 1024 725 910 943 630 943 c 0
 359 943 169 715 169 441 c 0
 169 427 170 412 171 398 c 1
 213 513 320 599 465 599 c 0
 630 599 764 450 764 292 c 0
1585 517 m 0
 1675 517 1739 595 1739 683 c 0
 1739 789 1686 864 1593 908 c 1
 1516 872 1444 795 1444 694 c 0
 1444 603 1501 517 1585 517 c 0
464 59 m 0
 594 59 693 173 693 291 c 0
 693 417 588 528 462 528 c 0
 337 528 222 428 222 300 c 0
 222 171 321 59 464 59 c 0
2341 184 m 0
 2341 119 2398 58 2460 58 c 0
 2524 58 2583 120 2583 184 c 0
 2583 253 2518 307 2452 307 c 128
 2394 307 2341 249 2341 184 c 0
2145 282 m 1
 2125 282 l 2
 2019 282 1752 306 1667 306 c 0
 1567 306 1470 273 1470 186 c 0
 1470 102 1554 60 1642 60 c 0
 1793 60 1960 176 2145 282 c 1
EndSplineSet
LCarets2: 2 0 0
EndChar

StartChar: njch3u1
Encoding: 65644 -1 225
Width: 3068
GlyphClass: 3
LigCaretCntFixed: 1
Flags: HW
LayerCount: 2
Fore
SplineSet
1389 697 m 0
 1389 809 1437 883 1519 944 c 5
 1504 946 1489 947 1474 947 c 0
 1398 947 1327 921 1261 870 c 132
 1141 777 1107 652 1107 438 c 6
 1108 33 l 6
 1108 14 1092 -1 1073 -1 c 132
 1054 -1 1038 14 1038 33 c 6
 1038 34 l 5
 1036 434 l 6
 1035 593 1024 678 961 775 c 132
 897 872 776 942 637 942 c 0
 585 942 531 932 477 911 c 4
 342 858 249 761 200 619 c 4
 180 561 170 501 170 441 c 0
 170 427 171 413 172 399 c 5
 214 516 323 604 469 604 c 0
 539 604 603 579 661 531 c 132
 732 472 771 384 771 294 c 0
 771 222 746 150 693 91 c 132
 635 26 562 -7 475 -9 c 4
 447 -10 426 -9 412 -5 c 132
 398 -1 389 0 387 0 c 132
 385 0 382 1 379 2 c 4
 313 20 252 64 195 134 c 132
 134 210 101 322 101 440 c 0
 101 508 111 577 134 642 c 132
 188 796 302 918 452 977 c 132
 517 1003 581 1014 642 1014 c 0
 842 1014 1007 887 1070 712 c 5
 1107 823 1177 909 1282 968 c 132
 1343 1002 1406 1019 1470 1019 c 0
 1516 1019 1563 1011 1611 993 c 5
 1658 1010 1703 1019 1748 1019 c 0
 1762 1019 1777 1018 1791 1016 c 4
 1927 999 2019 940 2067 839 c 5
 2115 942 2208 1017 2349 1017 c 0
 2461 1017 2554 957 2609 885 c 132
 2654 827 2677 762 2677 690 c 0
 2677 560 2617 465 2508 386 c 5
 2565 410 2621 423 2675 423 c 0
 2738 423 2798 406 2857 373 c 4
 2941 326 3018 230 3018 106 c 0
 3018 -46 2901 -161 2791 -203 c 132
 2669 -250 2592 -256 2410 -258 c 6
 1809 -263 l 6
 1806 -263 1803 -263 1800 -263 c 0
 1767 -263 1721 -262 1693 -262 c 0
 1586 -262 1521 -282 1498 -323 c 4
 1492 -334 1488 -345 1488 -355 c 0
 1488 -373 1499 -390 1519 -406 c 132
 1550 -430 1613 -443 1711 -443 c 0
 1730 -443 1760 -442 1765 -442 c 6
 2982 -445 l 6
 3002 -445 3017 -461 3017 -480 c 132
 3017 -499 3001 -515 2982 -515 c 6
 1765 -512 l 5
 1764 -512 l 2
 1751 -512 1701 -513 1678 -513 c 0
 1554 -513 1472 -481 1436 -417 c 4
 1424 -396 1418 -374 1418 -353 c 0
 1418 -331 1425 -310 1437 -288 c 4
 1480 -214 1582 -192 1717 -192 c 0
 1742 -192 1787 -193 1803 -193 c 2
 1808 -193 l 5
 2410 -188 l 6
 2589 -186 2650 -182 2745 -146 c 4
 2846 -107 2948 -26 2948 105 c 0
 2948 201 2887 276 2821 313 c 4
 2775 339 2727 351 2676 351 c 0
 2648 351 2619 348 2589 340 c 5
 2647 305 2694 240 2694 160 c 0
 2694 55 2611 -33 2505 -33 c 0
 2398 -33 2326 44 2326 156 c 0
 2326 210 2345 254 2385 300 c 5
 2248 271 2114 170 2012 111 c 4
 1873 31 1755 -9 1657 -9 c 0
 1605 -9 1559 2 1518 25 c 4
 1468 53 1416 109 1416 182 c 0
 1416 316 1542 379 1691 379 c 0
 1761 379 1853 372 1987 360 c 4
 2031 356 2073 354 2113 354 c 0
 2340 354 2492 420 2569 553 c 4
 2594 595 2606 642 2606 688 c 0
 2606 809 2510 917 2411 937 c 4
 2387 942 2363 945 2341 945 c 0
 2269 945 2210 918 2165 865 c 4
 2112 803 2102 742 2100 632 c 6
 2097 506 l 6
 2096 483 2085 472 2062 472 c 4
 2043 472 2027 488 2027 507 c 6
 2028 613 l 6
 2028 632 2029 657 2029 683 c 0
 2029 842 1924 948 1757 948 c 0
 1739 948 1720 947 1701 944 c 5
 1778 886 1830 792 1830 695 c 0
 1830 571 1739 451 1612 451 c 0
 1477 451 1389 569 1389 697 c 0
1613 521 m 0
 1680 521 1760 592 1760 686 c 0
 1760 796 1707 872 1611 917 c 5
 1554 890 1512 851 1486 800 c 132
 1467 762 1457 728 1457 697 c 0
 1457 616 1505 557 1551 536 c 4
 1572 526 1593 521 1613 521 c 0
465 534 m 0
 334 534 223 429 223 302 c 0
 223 205 266 133 353 89 c 4
 392 69 431 60 467 60 c 0
 573 60 661 136 689 219 c 132
 698 246 702 273 702 299 c 0
 702 432 587 534 465 534 c 0
2167 284 m 5
 2148 284 l 2
 2041 284 1769 309 1685 309 c 0
 1604 309 1547 290 1514 252 c 132
 1494 229 1486 207 1486 186 c 0
 1486 140 1524 101 1565 78 c 132
 1585 67 1613 62 1649 62 c 0
 1669 62 1691 64 1716 67 c 132
 1786 76 1873 111 1977 171 c 4
 2010 190 2132 265 2167 284 c 5
2395 150 m 0
 2395 83 2438 37 2509 37 c 0
 2577 37 2624 96 2624 161 c 0
 2624 237 2565 287 2497 302 c 5
 2430 261 2395 214 2395 150 c 0
EndSplineSet
LCarets2: 1 0
EndChar

StartChar: njch3u2
Encoding: 65645 -1 226
Width: 3146
GlyphClass: 3
LigCaretCntFixed: 1
Flags: HW
LayerCount: 2
Fore
SplineSet
1402 685 m 0
 1402 798 1451 874 1534 936 c 5
 1518 938 1503 939 1487 939 c 0
 1410 939 1339 914 1272 862 c 132
 1150 767 1117 641 1117 424 c 6
 1117 34 l 6
 1117 16 1100 -1 1082 -1 c 132
 1064 -1 1047 14 1047 33 c 6
 1045 420 l 6
 1044 581 1034 666 970 765 c 132
 906 864 782 934 640 934 c 0
 588 934 534 925 479 904 c 4
 341 851 247 752 198 608 c 4
 179 551 169 494 169 438 c 0
 169 423 170 408 171 393 c 5
 171 391 l 5
 209 498 310 590 449 590 c 0
 585 590 675 525 726 424 c 132
 749 378 760 333 760 289 c 0
 760 126 628 -10 465 -10 c 0
 435 -10 404 -5 373 4 c 4
 310 21 252 62 196 128 c 132
 129 207 100 299 100 428 c 0
 100 590 151 726 254 835 c 4
 338 924 478 1006 638 1006 c 0
 860 1006 1013 881 1079 700 c 5
 1129 852 1246 965 1414 1002 c 132
 1439 1008 1464 1010 1490 1010 c 0
 1535 1010 1580 1002 1626 985 c 5
 1673 1002 1720 1011 1765 1011 c 0
 1780 1011 1794 1010 1808 1008 c 4
 1946 991 2039 931 2087 829 c 5
 2135 934 2228 1009 2370 1009 c 0
 2550 1009 2702 854 2702 675 c 0
 2702 542 2638 444 2528 369 c 5
 2623 431 2710 463 2788 463 c 0
 2916 463 3035 371 3035 244 c 0
 3035 199 3020 154 2985 115 c 5
 3050 87 3096 30 3096 -57 c 0
 3096 -108 3073 -154 3028 -196 c 132
 2974 -246 2891 -271 2778 -271 c 0
 2775 -271 2772 -271 2769 -271 c 4
 2709 -271 2495 -260 2434 -260 c 6
 1826 -266 l 6
 1816 -266 1772 -265 1744 -265 c 0
 1640 -265 1572 -277 1538 -301 c 132
 1514 -318 1502 -337 1502 -359 c 0
 1502 -369 1504 -379 1509 -390 c 4
 1543 -459 1661 -462 1781 -462 c 6
 3011 -464 l 5
 3012 -464 l 6
 3031 -464 3047 -481 3047 -500 c 132
 3047 -515 3031 -534 3018 -534 c 6
 3011 -534 l 5
 1781 -532 l 5
 1717 -532 l 6
 1573 -532 1483 -495 1446 -421 c 4
 1436 -401 1432 -381 1432 -362 c 0
 1432 -338 1439 -315 1453 -292 c 4
 1493 -227 1580 -195 1716 -195 c 2
 1720 -195 l 6
 1744 -195 1802 -196 1825 -196 c 6
 2433 -191 l 5
 2447 -191 l 2
 2535 -191 2720 -202 2797 -202 c 0
 2877 -202 2937 -184 2976 -148 c 132
 3009 -118 3026 -86 3026 -52 c 0
 3026 10 2981 60 2917 60 c 0
 2905 60 2895 58 2880 58 c 132
 2868 58 2850 75 2850 88 c 4
 2850 109 2859 121 2876 126 c 4
 2924 140 2965 185 2965 245 c 0
 2965 340 2878 392 2777 392 c 0
 2728 392 2668 372 2599 331 c 5
 2669 296 2726 226 2726 135 c 0
 2726 29 2642 -62 2535 -62 c 0
 2430 -62 2353 15 2353 123 c 0
 2353 177 2378 232 2427 287 c 5
 2377 280 2331 265 2290 244 c 132
 2194 195 2120 148 2031 95 c 4
 1891 13 1771 -27 1672 -27 c 0
 1620 -27 1573 -16 1532 7 c 4
 1482 35 1429 92 1429 165 c 0
 1429 302 1557 364 1708 364 c 0
 1778 364 1871 357 2006 345 c 4
 2050 341 2092 339 2132 339 c 0
 2362 339 2517 406 2594 541 c 4
 2619 584 2632 631 2632 678 c 0
 2632 800 2534 910 2435 929 c 4
 2410 934 2386 936 2364 936 c 0
 2291 936 2232 910 2186 856 c 4
 2133 793 2122 730 2119 620 c 5
 2117 493 l 6
 2116 470 2103 459 2078 459 c 4
 2062 459 2047 477 2047 494 c 6
 2048 601 l 6
 2048 621 2049 646 2049 672 c 0
 2049 834 1942 940 1772 940 c 0
 1754 940 1735 939 1716 936 c 5
 1794 877 1848 782 1848 684 c 0
 1848 559 1754 438 1627 438 c 0
 1491 438 1402 556 1402 685 c 0
1618 508 m 0
 1711 508 1776 589 1776 679 c 0
 1776 788 1721 864 1626 909 c 5
 1547 872 1473 795 1473 691 c 0
 1473 597 1532 508 1618 508 c 0
461 521 m 0
 333 521 223 422 223 298 c 0
 223 197 270 126 357 85 c 4
 388 70 418 58 457 58 c 0
 571 58 649 129 678 216 c 132
 686 240 690 265 690 289 c 0
 690 336 675 381 644 426 c 132
 601 489 540 521 461 521 c 0
2188 270 m 5
 2167 270 l 2
 2059 270 1789 294 1702 294 c 0
 1620 294 1561 275 1527 236 c 132
 1507 213 1498 191 1498 170 c 0
 1498 124 1538 83 1579 60 c 132
 1599 49 1627 43 1664 43 c 0
 1684 43 1707 45 1732 48 c 132
 1802 58 1890 94 1996 156 c 4
 2026 174 2156 252 2188 270 c 5
2535 7 m 0
 2601 7 2656 68 2656 136 c 0
 2656 214 2594 266 2527 283 c 5
 2461 233 2425 184 2425 117 c 0
 2425 61 2470 7 2535 7 c 0
EndSplineSet
LCarets2: 1 0
EndChar

StartChar: njnj
Encoding: 65646 -1 227
Width: 4027
GlyphClass: 3
LigCaretCntFixed: 1
Flags: HW
LayerCount: 2
Fore
SplineSet
3856 488 m 0
 3856 761 3638 983 3364 983 c 0
 3302 983 3238 972 3172 946 c 5
 3308 851 3414 692 3438 491 c 4
 3441 465 3443 440 3443 416 c 0
 3443 244 3368 107 3252 36 c 132
 3203 6 3147 -9 3092 -9 c 0
 3033 -9 2975 7 2925 40 c 132
 2815 112 2745 245 2745 411 c 0
 2745 436 2747 462 2750 488 c 4
 2775 688 2886 852 3024 947 c 5
 2963 971 2902 983 2844 983 c 0
 2658 983 2500 868 2467 690 c 132
 2459 646 2455 592 2455 527 c 2
 2455 499 l 5
 2463 25 l 6
 2463 5 2447 -11 2428 -11 c 132
 2409 -11 2394 5 2393 23 c 6
 2385 485 l 6
 2382 653 2367 744 2292 841 c 132
 2228 924 2115 984 1982 984 c 0
 1932 984 1880 976 1826 957 c 5
 1943 877 2023 765 2065 621 c 4
 2082 560 2091 496 2091 434 c 0
 2091 332 2067 234 2018 158 c 4
 1964 75 1868 -3 1740 -3 c 132
 1611 -3 1512 78 1460 165 c 4
 1415 238 1393 322 1393 418 c 0
 1393 439 1394 461 1396 483 c 4
 1416 683 1519 858 1671 957 c 5
 1617 976 1564 985 1514 985 c 0
 1441 985 1372 965 1306 926 c 4
 1206 865 1144 771 1121 643 c 4
 1114 606 1110 544 1109 459 c 6
 1104 32 l 6
 1104 14 1087 -3 1069 -3 c 132
 1051 -3 1034 14 1034 32 c 6
 1038 461 l 5
 1038 493 l 2
 1038 647 1028 726 962 824 c 132
 908 905 797 984 676 984 c 0
 626 984 582 978 546 967 c 4
 360 912 237 754 190 559 c 4
 181 522 175 486 173 450 c 5
 224 542 314 611 447 611 c 0
 595 611 702 512 741 400 c 4
 753 365 759 330 759 297 c 0
 759 176 684 76 600 30 c 132
 554 5 504 -8 454 -8 c 0
 392 -8 331 11 277 48 c 132
 171 122 101 255 101 418 c 0
 101 466 107 517 120 570 c 132
 154 708 216 820 305 905 c 4
 401 997 526 1055 656 1055 c 0
 872 1055 1020 916 1077 747 c 5
 1139 917 1271 1029 1482 1053 c 132
 1497 1055 1512 1055 1527 1055 c 0
 1598 1055 1671 1037 1749 1001 c 5
 1823 1036 1905 1054 1986 1054 c 0
 2207 1054 2353 930 2415 763 c 5
 2476 936 2623 1053 2859 1053 c 0
 2936 1053 3016 1032 3099 990 c 5
 3187 1033 3276 1053 3361 1053 c 0
 3652 1053 3880 836 3920 574 c 4
 3925 543 3927 512 3927 482 c 0
 3927 355 3885 239 3801 134 c 4
 3751 72 3691 23 3620 -13 c 4
 3615 -16 3608 -17 3600 -17 c 132
 3586 -17 3569 0 3569 14 c 132
 3569 40 3581 46 3606 59 c 132
 3687 99 3761 184 3802 264 c 4
 3839 338 3856 414 3856 488 c 0
1749 923 m 5
 1589 836 1462 663 1462 421 c 0
 1462 277 1520 163 1616 104 c 132
 1655 80 1696 67 1740 67 c 132
 1841 67 1916 130 1959 196 c 4
 2002 262 2021 345 2021 429 c 0
 2021 657 1902 838 1749 923 c 5
3098 911 m 5
 2946 823 2815 645 2815 409 c 0
 2815 271 2872 160 2962 100 c 132
 3002 74 3047 61 3093 61 c 0
 3136 61 3179 72 3218 96 c 132
 3314 155 3372 273 3372 416 c 0
 3372 438 3371 460 3368 483 c 4
 3346 667 3245 826 3098 911 c 5
446 62 m 0
 590 62 688 160 688 303 c 0
 688 328 684 351 677 373 c 4
 646 460 561 541 449 541 c 0
 425 541 400 537 374 529 c 132
 285 501 202 413 202 299 c 0
 202 278 205 256 211 233 c 4
 212 231 212 229 212 228 c 4
 251 149 340 62 446 62 c 0
EndSplineSet
LCarets2: 2 0 0
EndChar

StartChar: t1r1
Encoding: 65651 -1 232
Width: 1103
GlyphClass: 3
LigCaretCntFixed: 1
Flags: HW
LayerCount: 2
Fore
SplineSet
812 34 m 1
 879 78 932 142 932 237 c 0
 932 394 775 460 606 472 c 0
 377 488 112 494 112 737 c 0
 112 910 305 1012 528 1012 c 0
 709 1012 847 950 943 826 c 0
 948 819 951 812 951 803 c 128
 951 784 934 770 914 770 c 128
 903 770 894 775 887 784 c 0
 806 889 685 942 524 942 c 0
 349 942 182 868 182 736 c 0
 182 545 430 553 611 542 c 0
 833 527 1003 432 1003 234 c 0
 1003 -5 759 -115 489 -115 c 0
 309 -115 100 -32 100 132 c 0
 100 246 216 317 316 317 c 0
 504 317 723 132 803 48 c 0
 807 44 810 39 812 34 c 1
313 247 m 0
 244 247 169 199 169 131 c 0
 169 10 356 -45 487 -45 c 0
 582 -45 684 -25 750 2 c 1
 650 106 482 247 313 247 c 0
EndSplineSet
LCarets2: 1 0
EndChar

StartChar: t1t1
Encoding: 65652 -1 233
Width: 1150
GlyphClass: 3
LigCaretCntFixed: 1
Flags: HW
LayerCount: 2
Fore
SplineSet
154 719 m 0
 154 912 361 1011 567 1011 c 0
 760 1011 916 916 1006 812 c 0
 1012 805 1015 797 1015 788 c 128
 1015 769 998 754 979 754 c 128
 969 754 960 758 953 766 c 0
 857 878 724 940 554 940 c 0
 397 940 224 866 224 723 c 0
 224 564 408 525 599 525 c 0
 851 521 1044 454 1044 246 c 0
 1044 141 971 63 888 27 c 1
 980 -14 1050 -91 1050 -206 c 0
 1050 -414 778 -511 574 -511 c 0
 364 -511 201 -408 108 -288 c 0
 103 -281 100 -274 100 -265 c 128
 100 -247 117 -231 136 -231 c 128
 146 -231 156 -236 163 -245 c 0
 264 -375 404 -443 581 -443 c 0
 752 -443 979 -356 979 -200 c 0
 979 -45 826 -4 662 -4 c 2
 212 -4 l 1
 189 -3 179 8 179 31 c 0
 179 56 193 66 206 66 c 130
 693 71 l 1
 848 71 976 107 976 252 c 0
 976 410 800 452 610 454 c 128
 361 456 154 507 154 719 c 0
EndSplineSet
LCarets2: 2 0 0
EndChar

StartChar: t1r3
Encoding: 65655 -1 236
Width: 1447
GlyphClass: 3
Flags: HW
LayerCount: 2
Fore
SplineSet
272 1012 m 128
 292 1012 309 997 309 978 c 128
 309 969 306 961 300 954 c 0
 228 870 170 745 170 600 c 0
 170 224 477 32 864 32 c 0
 1067 32 1278 75 1278 250 c 0
 1278 397 1139 465 903 466 c 0
 660 467 444 512 444 734 c 0
 444 911 640 1012 869 1012 c 0
 1054 1012 1195 954 1292 827 c 0
 1297 820 1300 813 1300 804 c 128
 1300 785 1283 770 1263 770 c 128
 1252 770 1244 775 1237 784 c 0
 1154 893 1028 942 861 942 c 0
 681 942 514 868 514 733 c 0
 514 557 708 538 917 536 c 128
 1151 534 1348 457 1348 250 c 0
 1348 32 1109 -37 878 -37 c 0
 439 -37 100 176 100 600 c 0
 100 766 164 902 247 999 c 0
 254 1008 262 1012 272 1012 c 128
EndSplineSet
LCarets2: 1 0
EndChar

